<svg width="200" height="156" viewBox="0 0 200 156" fill="none" xmlns="http://www.w3.org/2000/svg">
<g clip-path="url(#clip0_816_2830)">
<path d="M41.5202 102.382C32.4779 93.4803 28.6588 84.1938 30.7663 76.2332C33.4708 66.0174 45.4856 58.954 63.7299 56.8542L63.7973 57.4402C45.8069 59.5107 33.9754 66.4155 31.3364 76.384C29.2854 84.1313 33.0491 93.215 41.934 101.962L41.5202 102.382Z" fill="#F0F0F0"/>
<path d="M128.763 133.98C117.478 133.98 105.214 132.303 93.033 129.078C77.9693 125.09 64.1575 119.071 53.0908 111.67L53.4185 111.18C64.4319 118.545 78.1825 124.536 93.1839 128.508C106.74 132.097 120.399 133.76 132.677 133.321L132.698 133.91C131.402 133.957 130.09 133.98 128.763 133.98Z" fill="#F0F0F0"/>
<path d="M154.653 130.271L154.465 129.712C164.558 126.3 170.871 120.802 172.721 113.814C175.073 104.931 169.963 94.6217 158.334 84.7865C146.646 74.9013 129.79 66.699 110.873 61.691L111.024 61.1208C130.024 66.1509 146.961 74.3956 158.715 84.3362C170.528 94.3267 175.704 104.849 173.291 113.965C171.388 121.154 164.943 126.792 154.653 130.271Z" fill="#F0F0F0"/>
<path d="M61.9743 134.226C39.7991 124.391 22.7115 111.632 13.8594 98.2975L14.3506 97.9712C23.1416 111.213 40.1395 123.897 62.2133 133.687L61.9743 134.226Z" fill="#F0F0F0"/>
<path d="M139.94 151.264C137.653 151.264 135.326 151.213 132.961 151.111L132.986 150.522C150.638 151.286 166.213 149.174 178.03 144.412L178.251 144.959C167.942 149.113 154.804 151.264 139.94 151.264Z" fill="#F0F0F0"/>
<path d="M127.074 57.3832C123.409 56.1899 119.639 55.0788 115.869 54.0808C94.174 48.3374 72.8479 46.2982 54.1951 48.1848L54.1357 47.5979C72.8581 45.7052 94.2572 47.7493 116.02 53.5106C119.8 54.5115 123.581 55.6258 127.256 56.8226L127.074 57.3832Z" fill="#F0F0F0"/>
<path d="M27.6608 103.267C18.6185 94.3651 14.7995 85.0785 16.9069 77.1179C19.6114 66.9022 31.6262 59.8388 49.8705 57.739L49.9379 58.325C31.9476 60.3954 20.116 67.3003 17.477 77.2688C15.4261 85.0161 19.1897 94.0997 28.0746 102.846L27.6608 103.267Z" fill="#F0F0F0"/>
<path d="M114.905 134.864C103.619 134.864 91.3558 133.187 79.1746 129.962C64.1109 125.974 50.2991 119.955 39.2324 112.555L39.5601 112.065C50.5735 119.429 64.3241 125.421 79.3255 129.392C92.882 132.981 106.54 134.644 118.818 134.205L118.84 134.795C117.543 134.841 116.231 134.864 114.905 134.864Z" fill="#F0F0F0"/>
<path d="M140.794 131.156L140.605 130.597C150.698 127.185 157.011 121.687 158.861 114.699C161.213 105.815 156.104 95.5065 144.475 85.6712C132.786 75.786 115.931 67.5838 97.0137 62.5758L97.1646 62.0056C116.165 67.0357 133.102 75.2804 144.855 85.221C156.668 95.2114 161.845 105.734 159.432 114.85C157.529 122.039 151.084 127.677 140.794 131.156Z" fill="#F0F0F0"/>
<path d="M48.1149 135.111C25.9398 125.276 8.85213 112.516 0 99.1822L0.491261 98.856C9.28221 112.098 26.2801 124.782 48.3539 134.572L48.1149 135.111Z" fill="#F0F0F0"/>
<path d="M126.081 152.149C123.793 152.149 121.467 152.098 119.102 151.996L119.127 151.407C136.779 152.171 152.354 150.058 164.171 145.296L164.391 145.844C154.083 149.997 140.945 152.149 126.081 152.149Z" fill="#F0F0F0"/>
<path d="M113.214 58.2677C109.549 57.0744 105.779 55.9633 102.009 54.9653C80.3146 49.2219 58.9885 47.1828 40.3357 49.0693L40.2764 48.4825C58.9987 46.5897 80.3978 48.6338 102.16 54.3951C105.941 55.3961 109.721 56.5103 113.397 57.7071L113.214 58.2677Z" fill="#F0F0F0"/>
<path d="M10.0515 87.4708C14.2894 82.7192 21.0497 79.8233 27.176 81.5568C21.5242 85.5565 17.4693 91.4263 15.7287 98.1278C15.0668 100.715 14.6 103.661 12.4486 105.243C11.1099 106.227 9.33621 106.462 7.68995 106.238C6.04361 106.014 4.48696 105.373 2.95131 104.739L2.53809 104.775C3.72615 98.5196 5.81352 92.2224 10.0515 87.4708Z" fill="#F2F2F2"/>
<path d="M27.1571 81.6891C22.0351 82.9292 17.4341 85.7517 14.0075 89.7557C13.2546 90.6046 12.6401 91.5668 12.1868 92.607C11.778 93.6346 11.6517 94.7529 11.8213 95.8457C11.9588 96.8679 12.218 97.8975 12.1047 98.9353C12.0388 99.4656 11.8616 99.9761 11.5846 100.433C11.3076 100.89 10.9371 101.284 10.4975 101.587C9.42167 102.373 8.12775 102.725 6.85044 103.026C5.43223 103.359 3.95387 103.683 2.7978 104.626C2.65772 104.74 2.48871 104.516 2.62858 104.402C4.63994 102.762 7.43529 102.972 9.66067 101.781C10.6991 101.226 11.5763 100.354 11.7896 99.1569C11.9761 98.1105 11.7098 97.0485 11.5615 96.0148C11.3805 94.9511 11.4627 93.8593 11.801 92.8347C12.1998 91.7748 12.7762 90.7905 13.5053 89.9239C15.1157 87.9468 17.027 86.2353 19.1691 84.8519C21.605 83.2595 24.2955 82.0955 27.124 81.4104C27.299 81.368 27.331 81.647 27.1571 81.6891Z" fill="white"/>
<path d="M15.0357 88.4014C14.442 87.7353 14.1043 86.8799 14.0831 85.9878C14.0619 85.0958 14.3584 84.2252 14.9198 83.5317C15.0339 83.3917 15.2567 83.5624 15.1425 83.7025C14.6185 84.3474 14.3424 85.1584 14.3638 85.989C14.3853 86.8196 14.703 87.6152 15.2595 88.2322C15.3803 88.3664 15.1558 88.5349 15.0357 88.4014Z" fill="white"/>
<path d="M11.6832 95.3366C13.5033 95.4575 15.302 94.8879 16.7208 93.7415C16.8612 93.6278 17.0303 93.8518 16.89 93.9654C15.4114 95.1556 13.5383 95.7445 11.6446 95.6145C11.4641 95.602 11.5037 95.3242 11.6832 95.3366Z" fill="white"/>
<path d="M21.6684 83.6262C21.8444 83.9318 22.0936 84.1889 22.3935 84.3744C22.6935 84.5599 23.0348 84.668 23.3868 84.689C23.5674 84.6992 23.5276 84.9771 23.3482 84.9669C22.9594 84.9419 22.5826 84.8221 22.2507 84.6179C21.9189 84.4137 21.6421 84.1313 21.4446 83.7954C21.4233 83.7653 21.4143 83.7283 21.4194 83.6918C21.4244 83.6553 21.4432 83.6221 21.4719 83.5989C21.5016 83.5766 21.539 83.567 21.5758 83.5721C21.6126 83.5773 21.6459 83.5967 21.6684 83.6262Z" fill="white"/>
<path d="M35.8725 101.282C35.7596 101.279 35.6467 101.276 35.5323 101.274C34.0139 101.24 32.4952 101.328 30.9911 101.539C30.8746 101.554 30.7567 101.57 30.6408 101.588C27.0226 102.135 23.5375 103.35 20.3626 105.169C19.0999 105.895 17.8942 106.715 16.7559 107.623C15.184 108.877 13.5795 110.362 11.7392 111.005C11.5479 111.074 11.3526 111.132 11.1543 111.177L2.61398 105.276C2.6013 105.253 2.58719 105.232 2.57441 105.208L2.22266 104.988C2.27809 104.937 2.33668 104.886 2.39211 104.835C2.42414 104.805 2.45809 104.777 2.49011 104.747C2.51207 104.728 2.53413 104.708 2.55284 104.69C2.56012 104.683 2.5675 104.677 2.57345 104.672C2.59216 104.654 2.61152 104.638 2.62888 104.621C2.95558 104.332 3.28487 104.044 3.61678 103.758C3.61812 103.756 3.61813 103.756 3.62138 103.756C6.15587 101.583 8.89399 99.6031 11.8456 98.1017C11.9344 98.0566 12.0245 98.0094 12.1172 97.967C13.4514 97.2976 14.8381 96.7384 16.2634 96.2949C17.0446 96.0546 17.8375 95.854 18.639 95.6938C20.7108 95.284 22.8342 95.2026 24.9313 95.4527C29.1117 95.9517 33.086 97.7822 35.677 101.032C35.7432 101.115 35.8077 101.197 35.8725 101.282Z" fill="#F2F2F2"/>
<path d="M35.7782 101.377C30.9419 99.2834 25.5689 98.7669 20.4223 99.9008C19.3101 100.125 18.2401 100.524 17.2519 101.081C16.3068 101.656 15.5327 102.472 15.0101 103.447C14.5046 104.346 14.0916 105.324 13.3763 106.085C13.0044 106.468 12.5556 106.769 12.0592 106.967C11.5629 107.166 11.0303 107.257 10.4963 107.234C9.16435 107.214 7.9192 106.716 6.71846 106.187C5.38528 105.599 4.00981 104.968 2.5193 105.025C2.33871 105.031 2.33864 104.751 2.51897 104.744C5.1122 104.646 7.21737 106.497 9.71131 106.886C10.875 107.067 12.1005 106.899 12.9912 106.072C13.7702 105.349 14.1969 104.34 14.7009 103.426C15.1968 102.467 15.9198 101.645 16.8067 101.031C17.7634 100.425 18.8162 99.9857 19.9201 99.7328C22.3963 99.1238 24.9528 98.9079 27.496 99.093C30.3997 99.2882 33.2487 99.9787 35.9196 101.135C36.0848 101.206 35.9424 101.448 35.7782 101.377Z" fill="white"/>
<path d="M22.0585 99.4382C21.9855 98.5489 22.231 97.6626 22.7511 96.9376C23.2712 96.2126 24.0321 95.696 24.8979 95.4802C25.0733 95.4372 25.1484 95.7076 24.9729 95.7507C24.1662 95.9502 23.4575 96.4314 22.9745 97.1076C22.4916 97.7837 22.2662 98.6102 22.3391 99.4379C22.3548 99.6178 22.0741 99.6171 22.0585 99.4382Z" fill="white"/>
<path d="M15.207 102.958C16.5874 104.15 18.3665 104.778 20.1895 104.717C20.3701 104.711 20.3702 104.991 20.1898 104.998C18.2926 105.058 16.4425 104.4 15.0088 103.156C14.8722 103.038 15.0711 102.84 15.207 102.958Z" fill="white"/>
<path d="M30.2298 99.6189C30.1864 99.9689 30.2305 100.324 30.3583 100.653C30.4861 100.982 30.6936 101.273 30.962 101.502C31.1 101.619 30.9009 101.817 30.7638 101.701C30.4684 101.447 30.2397 101.124 30.0977 100.761C29.9557 100.398 29.9047 100.006 29.9492 99.6192C29.9503 99.5824 29.9654 99.5474 29.9915 99.5213C30.0175 99.4952 30.0525 99.48 30.0893 99.4788C30.1265 99.4789 30.1621 99.4937 30.1884 99.5199C30.2147 99.5462 30.2296 99.5817 30.2298 99.6189Z" fill="white"/>
<path d="M176.109 126.422C173.715 120.522 168.321 115.523 161.969 115.096C165.947 120.763 167.794 127.654 167.181 134.551C166.934 137.21 166.384 140.141 167.879 142.354C168.809 143.731 170.4 144.549 172.026 144.891C173.652 145.233 175.333 145.153 176.993 145.072L177.37 145.244C178.353 138.954 178.504 132.321 176.109 126.422Z" fill="#F2F2F2"/>
<path d="M161.943 115.227C166.35 118.117 169.735 122.321 171.616 127.244C172.04 128.297 172.295 129.41 172.373 130.542C172.412 131.647 172.155 132.742 171.628 133.715C171.155 134.631 170.565 135.514 170.323 136.529C170.207 137.051 170.202 137.591 170.309 138.115C170.417 138.638 170.633 139.133 170.945 139.567C171.695 140.669 172.795 141.435 173.897 142.148C175.12 142.938 176.404 143.74 177.176 145.017C177.27 145.171 177.504 145.017 177.411 144.863C176.067 142.642 173.364 141.901 171.668 140.031C170.877 139.159 170.344 138.043 170.545 136.844C170.721 135.796 171.329 134.885 171.816 133.961C172.344 133.02 172.634 131.964 172.66 130.886C172.64 129.753 172.428 128.633 172.033 127.571C171.18 125.168 169.956 122.914 168.403 120.891C166.644 118.572 164.501 116.572 162.068 114.976C161.917 114.877 161.793 115.129 161.943 115.227Z" fill="white"/>
<path d="M171.103 125.623C171.887 125.196 172.492 124.503 172.812 123.67C173.132 122.837 173.145 121.918 172.849 121.076C172.789 120.906 172.522 120.992 172.582 121.162C172.859 121.945 172.846 122.802 172.547 123.577C172.248 124.352 171.681 124.995 170.949 125.389C170.791 125.475 170.945 125.709 171.103 125.623Z" fill="white"/>
<path d="M171.929 133.282C170.174 132.784 168.671 131.643 167.72 130.086C167.626 129.932 167.392 130.086 167.486 130.24C168.478 131.858 170.044 133.042 171.872 133.557C172.046 133.605 172.102 133.33 171.929 133.282Z" fill="white"/>
<path d="M166.461 118.897C166.192 119.125 165.871 119.284 165.526 119.357C165.181 119.431 164.823 119.418 164.485 119.32C164.311 119.269 164.255 119.544 164.428 119.595C164.802 119.702 165.198 119.716 165.579 119.635C165.96 119.554 166.316 119.381 166.614 119.131C166.645 119.11 166.666 119.078 166.673 119.042C166.681 119.006 166.674 118.968 166.655 118.937C166.634 118.906 166.602 118.884 166.566 118.877C166.53 118.869 166.492 118.876 166.461 118.897Z" fill="white"/>
<path d="M147.149 130.751C147.257 130.786 147.364 130.821 147.472 130.858C148.914 131.336 150.315 131.93 151.66 132.634C151.765 132.687 151.871 132.742 151.974 132.798C155.198 134.529 158.072 136.844 160.451 139.625C161.396 140.733 162.256 141.91 163.023 143.148C164.082 144.858 165.094 146.796 166.611 148.02C166.768 148.149 166.933 148.269 167.104 148.378L177.131 145.691C177.151 145.674 177.171 145.658 177.191 145.641L177.596 145.552C177.561 145.485 177.523 145.417 177.488 145.35C177.468 145.312 177.445 145.273 177.425 145.235C177.411 145.209 177.397 145.183 177.385 145.16C177.381 145.151 177.376 145.142 177.372 145.136C177.361 145.112 177.348 145.091 177.337 145.07C177.126 144.687 176.913 144.305 176.697 143.924C176.696 143.922 176.696 143.922 176.693 143.921C175.036 141.023 173.123 138.238 170.848 135.831C170.779 135.759 170.71 135.684 170.637 135.613C169.605 134.534 168.487 133.542 167.294 132.645C166.639 132.156 165.96 131.701 165.259 131.28C163.445 130.198 161.473 129.408 159.413 128.938C155.308 128.003 150.95 128.392 147.418 130.581C147.327 130.637 147.239 130.693 147.149 130.751Z" fill="#F2F2F2"/>
<path d="M147.206 130.872C152.465 130.526 157.699 131.845 162.165 134.643C163.137 135.228 164.011 135.963 164.754 136.82C165.451 137.679 165.906 138.709 166.07 139.802C166.244 140.819 166.304 141.879 166.722 142.835C166.944 143.322 167.265 143.756 167.666 144.109C168.067 144.463 168.538 144.728 169.048 144.886C170.31 145.315 171.65 145.264 172.959 145.17C174.412 145.064 175.919 144.932 177.304 145.486C177.472 145.553 177.566 145.289 177.399 145.222C174.989 144.258 172.385 145.294 169.905 144.822C168.748 144.601 167.65 144.031 167.089 142.953C166.599 142.01 166.536 140.917 166.369 139.886C166.224 138.817 165.819 137.799 165.19 136.923C164.493 136.03 163.649 135.263 162.694 134.654C160.567 133.248 158.232 132.185 155.774 131.505C152.974 130.713 150.058 130.406 147.154 130.596C146.975 130.608 147.027 130.884 147.206 130.872Z" fill="white"/>
<path d="M160.78 133.658C161.147 132.845 161.214 131.927 160.968 131.07C160.722 130.212 160.179 129.47 159.436 128.976C159.285 128.876 159.123 129.106 159.274 129.205C159.967 129.664 160.473 130.356 160.7 131.155C160.928 131.954 160.862 132.808 160.515 133.563C160.44 133.727 160.705 133.821 160.78 133.658Z" fill="white"/>
<path d="M166.05 139.275C164.349 139.934 162.462 139.928 160.766 139.257C160.598 139.191 160.503 139.455 160.671 139.522C162.438 140.216 164.401 140.218 166.17 139.529C166.338 139.463 166.217 139.21 166.05 139.275Z" fill="white"/>
<path d="M153.022 131.082C152.946 131.426 152.785 131.746 152.554 132.012C152.323 132.279 152.029 132.484 151.7 132.609C151.53 132.673 151.651 132.926 151.82 132.863C152.183 132.723 152.507 132.496 152.763 132.202C153.018 131.908 153.198 131.556 153.286 131.176C153.298 131.141 153.295 131.103 153.28 131.07C153.264 131.036 153.236 131.01 153.202 130.997C153.167 130.984 153.128 130.986 153.095 131.002C153.061 131.018 153.035 131.047 153.022 131.082Z" fill="white"/>
<path d="M129.657 146.511C130.96 146.511 132.016 145.455 132.016 144.152C132.016 142.849 130.96 141.793 129.657 141.793C128.354 141.793 127.298 142.849 127.298 144.152C127.298 145.455 128.354 146.511 129.657 146.511Z" fill="#FD6584"/>
<path d="M138.012 106.332C139.315 106.332 140.371 105.276 140.371 103.973C140.371 102.67 139.315 101.614 138.012 101.614C136.709 101.614 135.653 102.67 135.653 103.973C135.653 105.276 136.709 106.332 138.012 106.332Z" fill="#E6E6E6"/>
<path d="M94.1177 40.8993C95.4206 40.8993 96.4767 39.8432 96.4767 38.5404C96.4767 37.2375 95.4206 36.1814 94.1177 36.1814C92.8149 36.1814 91.7588 37.2375 91.7588 38.5404C91.7588 39.8432 92.8149 40.8993 94.1177 40.8993Z" fill="#E6E6E6"/>
<path d="M44.6846 129.03C44.6846 129.63 44.7044 130.231 44.7464 130.826C44.7909 131.538 44.8675 132.245 44.9713 132.947C45.3201 135.31 45.9867 137.615 46.9531 139.799C47.0025 139.908 47.0519 140.017 47.1014 140.125L47.1755 140.288C47.2002 140.343 47.2274 140.397 47.2521 140.449C47.2867 140.521 47.3188 140.59 47.3534 140.659C47.3954 140.745 47.4374 140.832 47.4819 140.918C47.4869 140.928 47.4918 140.941 47.4992 140.953C47.5363 141.027 47.5709 141.099 47.6104 141.173C47.6177 141.189 47.626 141.205 47.6351 141.22C47.6772 141.304 47.7216 141.39 47.7661 141.474C47.8155 141.563 47.8625 141.655 47.9119 141.744C48.0305 141.964 48.1541 142.181 48.2801 142.399C48.3172 142.463 48.3542 142.527 48.3938 142.591C48.4284 142.651 48.463 142.71 48.5 142.769C48.5248 142.809 48.5495 142.851 48.5742 142.89C48.6137 142.957 48.6532 143.021 48.6953 143.088C48.7867 143.234 48.8806 143.38 48.972 143.526H48.9745C49.0165 143.592 49.061 143.659 49.1055 143.723V143.726C49.2364 143.923 49.3724 144.121 49.5083 144.316L49.5092 144.316L49.51 144.317L49.5106 144.318L49.5107 144.319C49.6195 144.477 49.7331 144.63 49.8443 144.783V144.786C49.9185 144.882 49.9901 144.981 50.0643 145.077C50.1236 145.156 50.1854 145.238 50.2471 145.317C50.2595 145.334 50.2743 145.349 50.2867 145.367V145.369C50.304 145.391 50.3213 145.411 50.3386 145.433C50.6005 145.769 50.8707 146.098 51.1491 146.419L51.1936 146.471C51.2084 146.488 51.2257 146.506 51.2405 146.525C51.2653 146.553 51.2875 146.58 51.3122 146.607C51.3344 146.634 51.3592 146.661 51.3839 146.689C52.8352 148.323 54.4808 149.775 56.2841 151.011C56.5238 151.176 56.7685 151.337 57.0131 151.492C57.0749 151.532 57.1367 151.572 57.1985 151.609C57.2158 151.621 57.2355 151.633 57.2528 151.646C57.2874 151.665 57.3196 151.685 57.3541 151.707C57.3863 151.727 57.4184 151.747 57.453 151.767C57.584 151.848 57.7174 151.927 57.8509 152.006C57.883 152.026 57.9176 152.046 57.9522 152.066C57.9843 152.083 58.0189 152.103 58.0535 152.123C58.0535 152.125 58.0535 152.125 58.056 152.125H58.0584V152.128H58.0609C58.2265 152.224 58.3945 152.318 58.565 152.409C58.6564 152.459 58.7503 152.511 58.8442 152.558C59.0568 152.674 59.2718 152.785 59.4867 152.891C59.5634 152.928 59.6424 152.965 59.719 153.005C59.7833 153.034 59.8475 153.067 59.9118 153.096C59.9316 153.106 59.9489 153.114 59.9661 153.123C60.0205 153.148 60.0724 153.173 60.1268 153.198C60.1861 153.225 60.2454 153.252 60.3022 153.279C60.3689 153.309 60.4332 153.338 60.4999 153.366C60.747 153.477 60.9966 153.583 61.2462 153.684C62.1406 154.051 63.0547 154.368 63.9842 154.633C64.0262 154.646 64.0707 154.658 64.1152 154.67C64.5131 154.782 64.9134 154.883 65.3162 154.974C66.0205 155.137 66.7313 155.271 67.4488 155.375H67.4537C67.5402 155.387 67.6242 155.399 67.7107 155.412C67.7181 155.412 67.7255 155.414 67.7354 155.414C67.7354 155.417 67.7354 155.417 67.7379 155.414C67.8318 155.427 67.9282 155.439 68.0221 155.451C68.0285 155.453 68.0352 155.454 68.0419 155.454C68.1308 155.466 68.2223 155.476 68.3112 155.486C68.4076 155.496 68.5039 155.506 68.6003 155.516C68.6745 155.523 68.7486 155.53 68.8227 155.538C68.8291 155.54 68.8358 155.541 68.8425 155.54C68.9092 155.545 68.9759 155.553 69.0427 155.558H69.0526C69.1094 155.562 69.1687 155.567 69.2255 155.572C69.915 155.627 70.6069 155.651 71.3087 155.651C72.0674 155.651 72.821 155.622 73.5649 155.558H73.5723C73.7329 155.543 73.8911 155.528 74.0492 155.513C74.0912 155.508 74.1308 155.506 74.1728 155.501C74.1802 155.501 74.1901 155.498 74.1975 155.498C74.2098 155.496 74.2222 155.496 74.237 155.493C74.2437 155.494 74.2504 155.493 74.2568 155.491C74.3112 155.486 74.3655 155.478 74.4223 155.473L74.6077 155.451C74.6695 155.444 74.7312 155.434 74.793 155.427C74.8078 155.424 74.8202 155.424 74.835 155.422C74.8795 155.417 74.924 155.409 74.9685 155.402C74.9907 155.399 75.013 155.397 75.0327 155.394C75.0772 155.387 75.1192 155.382 75.1637 155.375H75.1662C76.5222 155.179 77.8607 154.878 79.1694 154.473C79.2386 154.45 79.3078 154.431 79.377 154.408C79.3795 154.408 79.3819 154.406 79.3844 154.406C79.4042 154.399 79.4264 154.394 79.4462 154.386C79.6315 154.327 79.8144 154.265 79.9973 154.201C80.2493 154.117 80.4989 154.025 80.7485 153.932C80.8152 153.904 80.8819 153.88 80.9486 153.852C81.0846 153.801 81.218 153.746 81.3514 153.692C81.5788 153.6 81.8061 153.504 82.031 153.405C82.241 153.311 82.4486 153.217 82.6562 153.119C82.6611 153.116 82.6686 153.116 82.6735 153.111C82.7204 153.089 82.7674 153.067 82.8119 153.044H82.8143C83.9524 152.498 85.0499 151.871 86.0985 151.169C86.4346 150.944 86.7657 150.712 87.0919 150.472C87.3538 150.277 87.6108 150.079 87.8678 149.876C89.1357 148.868 90.3094 147.746 91.3744 146.525V146.523C91.451 146.439 91.5227 146.353 91.5968 146.266C91.6092 146.254 91.619 146.241 91.6289 146.231C91.6759 146.175 91.7204 146.12 91.7673 146.066V146.063C91.8291 145.992 91.8909 145.918 91.9502 145.843C91.965 145.826 91.9774 145.811 91.9897 145.797V145.794C92.0391 145.735 92.0861 145.675 92.1355 145.614C92.1602 145.584 92.1825 145.554 92.2072 145.525V145.522C92.353 145.339 92.4938 145.156 92.6347 144.969C92.6717 144.919 92.7088 144.867 92.7484 144.815C92.9263 144.576 93.0993 144.331 93.2673 144.086V144.084C93.3315 143.993 93.3933 143.899 93.4576 143.807C93.5193 143.713 93.5811 143.619 93.6429 143.526C93.7047 143.427 93.7689 143.33 93.8307 143.231L93.8381 143.217C93.8999 143.123 93.9617 143.024 94.021 142.928C94.0679 142.848 94.1149 142.772 94.1619 142.695C94.1915 142.643 94.2236 142.591 94.2533 142.537C94.2649 142.52 94.2756 142.503 94.2854 142.485C94.3546 142.364 94.4238 142.243 94.493 142.122C94.5745 141.981 94.6536 141.838 94.7327 141.694C94.7623 141.635 94.7945 141.576 94.8266 141.517C94.8389 141.497 94.8488 141.477 94.8587 141.457C94.8958 141.388 94.9328 141.316 94.9674 141.245C95.0045 141.176 95.0416 141.104 95.0786 141.032C95.1132 140.963 95.1503 140.891 95.1849 140.82C95.2121 140.765 95.2368 140.711 95.264 140.657C95.2659 140.652 95.2684 140.648 95.2714 140.644C95.2837 140.617 95.2961 140.592 95.306 140.568C95.309 140.564 95.3115 140.56 95.3134 140.555C95.3406 140.501 95.3653 140.444 95.3925 140.39C95.4271 140.318 95.4592 140.244 95.4938 140.172C95.516 140.123 95.5407 140.071 95.563 140.019C95.5951 139.947 95.6297 139.876 95.6594 139.802C95.694 139.727 95.7261 139.653 95.7582 139.577C95.7675 139.558 95.7757 139.539 95.7829 139.52C95.8002 139.485 95.8126 139.451 95.8274 139.416C95.8669 139.325 95.9065 139.231 95.9435 139.139C95.988 139.035 96.03 138.929 96.0696 138.825C96.1091 138.729 96.1462 138.63 96.1832 138.531L96.1981 138.497C96.7738 136.98 97.2106 135.415 97.5028 133.819V133.816C97.6677 132.905 97.7856 131.987 97.8562 131.064C97.8587 131.012 97.8636 130.962 97.8661 130.913C97.9106 130.288 97.9303 129.66 97.9303 129.03C97.9303 128.751 97.9254 128.474 97.918 128.197C97.7455 122.409 95.6814 116.836 92.0416 112.332C91.9625 112.233 91.8834 112.135 91.8019 112.036C91.7204 111.937 91.6363 111.841 91.5548 111.744C88.8458 108.572 85.4294 106.08 81.5808 104.47C77.7323 102.861 73.5593 102.178 69.3984 102.477C65.2375 102.776 61.205 104.048 57.6261 106.191C54.0471 108.335 51.0218 111.289 48.7941 114.816C48.673 115.009 48.5519 115.204 48.4358 115.399C48.3172 115.597 48.2035 115.794 48.0898 115.995C45.8511 119.974 44.6782 124.464 44.6846 129.03Z" fill="#F2F2F2"/>
<path d="M70.2504 111.617C74.6282 112.74 79.1145 113.387 83.6312 113.548C84.3143 113.585 84.9989 113.58 85.6814 113.534C87.1811 113.408 88.4657 112.936 89.8964 112.679C90.5842 112.555 91.3504 112.465 92.0428 112.332C91.8828 112.133 91.7199 111.937 91.5542 111.743C90.0611 111.869 88.5447 112.282 87.0337 112.474C84.4651 112.801 81.5871 112.436 79.6399 111.538C78.6952 111.101 77.9715 110.557 77.0301 110.119C76.9021 110.053 76.7634 110.011 76.6205 109.993C76.3491 109.985 76.081 110.055 75.8477 110.194C74.2683 110.991 71.9752 111.639 69.8468 111.283C69.6881 111.407 69.9895 111.548 70.2504 111.617Z" fill="white"/>
<path d="M60.8318 114.422C60.8124 114.419 60.7929 114.416 60.7734 114.413C60.8552 114.362 60.9322 114.304 61.0035 114.24L60.8318 114.422Z" fill="white"/>
<path d="M48.0908 115.995C48.9798 116.066 49.8734 116.119 50.7716 116.154C51.4547 116.191 52.1393 116.186 52.8217 116.14C54.3215 116.013 55.6061 115.543 57.0368 115.285C58.348 115.049 59.9413 114.936 60.7739 114.413C58.6222 114.04 56.3928 114.798 54.1741 115.081C52.3794 115.301 50.5601 115.211 48.7959 114.815C48.5502 115.201 48.3152 115.595 48.0908 115.995Z" fill="white"/>
<path d="M58.8447 152.557C59.0572 152.674 59.2722 152.785 59.4872 152.891C59.5638 152.928 59.6429 152.965 59.7195 153.005C59.7838 153.034 59.848 153.067 59.9123 153.096C59.932 153.106 59.9493 153.113 59.9666 153.123C60.021 153.148 60.0729 153.173 60.1273 153.197C60.1866 153.225 60.2459 153.252 60.3027 153.279C60.3694 153.309 60.4337 153.338 60.5004 153.366C60.7475 153.477 60.9971 153.583 61.2467 153.684C62.1411 154.051 63.0552 154.368 63.9847 154.633C64.0267 154.646 64.0712 154.658 64.1157 154.67C64.5135 154.781 64.9139 154.883 65.3167 154.974C66.0209 155.137 66.7318 155.271 67.4493 155.375H67.4542C67.5407 155.387 67.6247 155.399 67.7112 155.412C67.7186 155.412 67.726 155.414 67.7359 155.414C67.7359 155.417 67.7359 155.417 67.7384 155.414C67.8323 155.426 67.9287 155.439 68.0226 155.451C68.029 155.453 68.0357 155.454 68.0423 155.454C68.1313 155.466 68.2227 155.476 68.3117 155.486C68.4081 155.496 68.5044 155.506 68.6008 155.515C68.675 155.523 68.7491 155.53 68.8232 155.538C68.8296 155.54 68.8363 155.541 68.843 155.54C68.9097 155.545 68.9764 155.552 69.0431 155.557H69.053C69.1099 155.562 69.1692 155.567 69.226 155.572C69.9155 155.627 70.6074 155.651 71.3092 155.651C72.0678 155.651 72.8215 155.622 73.5653 155.557H73.5728C73.7334 155.543 73.8915 155.528 74.0497 155.513C74.0917 155.508 74.1312 155.506 74.1732 155.501C74.1807 155.501 74.1905 155.498 74.198 155.498C74.2103 155.496 74.2227 155.496 74.2375 155.493C74.2442 155.493 74.2509 155.493 74.2573 155.491C74.3116 155.486 74.366 155.478 74.4228 155.473L74.6082 155.451C74.6699 155.444 74.7317 155.434 74.7935 155.426C74.8083 155.424 74.8207 155.424 74.8355 155.422C74.88 155.417 74.9245 155.409 74.969 155.402C74.9912 155.399 75.0134 155.397 75.0332 155.394C75.0777 155.387 75.1197 155.382 75.1642 155.375H75.1666C76.5226 155.179 77.8612 154.878 79.1699 154.473C79.2391 154.45 79.3083 154.431 79.3775 154.408C79.0584 152.92 78.4015 151.526 77.4576 150.332C76.5136 149.138 75.3079 148.177 73.9335 147.524C74.2735 147.2 74.5085 146.782 74.6082 146.323C74.6723 146.027 74.6774 145.722 74.6231 145.424C74.5688 145.126 74.4563 144.842 74.2919 144.588C73.9712 144.096 73.4681 143.751 72.8932 143.629L69.231 142.863C68.6414 142.748 68.0303 142.871 67.5306 143.204C67.0308 143.537 66.6828 144.054 66.5621 144.642C66.5248 144.823 66.5082 145.007 66.5127 145.191C62.9864 147.539 60.4485 149.973 58.8447 152.557Z" fill="#36A9C0"/>
<path d="M69.6581 141.417C73.8719 141.417 77.2879 138.001 77.2879 133.787C77.2879 129.573 73.8719 126.157 69.6581 126.157C65.4443 126.157 62.0283 129.573 62.0283 133.787C62.0283 138.001 65.4443 141.417 69.6581 141.417Z" fill="#FFB8B8"/>
<path d="M64.9021 140.365C64.0885 139.809 63.2576 138.741 62.7029 137.941C61.9679 136.889 61.4621 135.694 61.2184 134.434C60.9747 133.173 60.9985 131.876 61.2882 130.626C61.3806 130.126 61.6077 129.661 61.945 129.28C62.3044 128.925 62.8913 128.756 63.3299 129.008C63.2102 128.687 63.1575 128.345 63.175 128.004C63.1925 127.662 63.2798 127.328 63.4316 127.021C63.7399 126.409 64.1865 125.877 64.7362 125.467C65.7874 124.658 67.0382 124.148 68.3557 123.992C69.6733 123.836 71.0085 124.039 72.2197 124.581C72.6963 124.802 71.9135 123.096 72.4123 123.261C72.9079 123.453 73.4588 123.443 73.9473 123.234C74.4165 122.998 75.9716 124.401 75.7917 123.907C76.1477 124.069 76.4571 124.318 76.6909 124.632C76.9248 124.945 77.0755 125.312 77.129 125.7C77.1826 126.087 77.1373 126.482 76.9973 126.847C76.8573 127.212 76.6272 127.536 76.3283 127.788C75.9346 128.12 75.4429 128.312 75.0118 128.594C74.2564 129.125 73.7217 129.915 73.5086 130.814C73.2956 131.712 73.419 132.658 73.8555 133.472C73.4019 133.181 72.9042 132.964 72.3816 132.832C72.1194 132.768 71.8457 132.767 71.5833 132.83C71.3209 132.893 71.0774 133.018 70.873 133.194C70.7022 133.39 70.5732 133.618 70.4938 133.865C70.4145 134.112 70.3865 134.373 70.4116 134.632C70.4287 135.149 70.5519 135.659 70.5657 136.177C70.6063 137.697 71.4201 140.586 70.2419 141.393C69.3122 142.031 66.013 141.124 64.9021 140.365Z" fill="#2F2E41"/>
<path d="M199.75 9.21739H0.250417C0.183496 9.21591 0.119816 9.18828 0.0730114 9.14043C0.026207 9.09257 0 9.0283 0 8.96136C0 8.89442 0.026207 8.83014 0.0730114 8.78229C0.119816 8.73443 0.183496 8.70681 0.250417 8.70532H199.75C199.816 8.70681 199.88 8.73443 199.927 8.78229C199.974 8.83014 200 8.89442 200 8.96136C200 9.0283 199.974 9.09257 199.927 9.14043C199.88 9.18828 199.816 9.21591 199.75 9.21739Z" fill="#CACACA"/>
<path d="M5.88782 5.63281C7.40937 5.63281 8.64282 4.37186 8.64282 2.8164C8.64282 1.26095 7.40937 0 5.88782 0C4.36627 0 3.13281 1.26095 3.13281 2.8164C3.13281 4.37186 4.36627 5.63281 5.88782 5.63281Z" fill="#3F3D56"/>
<path d="M15.4054 5.63281C16.9269 5.63281 18.1604 4.37186 18.1604 2.8164C18.1604 1.26095 16.9269 0 15.4054 0C13.8838 0 12.6504 1.26095 12.6504 2.8164C12.6504 4.37186 13.8838 5.63281 15.4054 5.63281Z" fill="#3F3D56"/>
<path d="M24.922 5.63281C26.4435 5.63281 27.677 4.37186 27.677 2.8164C27.677 1.26095 26.4435 0 24.922 0C23.4005 0 22.167 1.26095 22.167 2.8164C22.167 4.37186 23.4005 5.63281 24.922 5.63281Z" fill="#3F3D56"/>
<path d="M194.047 1.72263H187.285C187.151 1.71968 187.024 1.66443 186.93 1.56872C186.837 1.47301 186.784 1.34444 186.784 1.21056C186.784 1.07667 186.837 0.948112 186.93 0.852401C187.024 0.756691 187.151 0.701442 187.285 0.698486H194.047C194.181 0.701442 194.309 0.756691 194.402 0.852401C194.496 0.948112 194.548 1.07667 194.548 1.21056C194.548 1.34444 194.496 1.47301 194.402 1.56872C194.309 1.66443 194.181 1.71968 194.047 1.72263Z" fill="#3F3D56"/>
<path d="M194.047 3.64304H187.285C187.151 3.6401 187.024 3.58486 186.93 3.48915C186.837 3.39344 186.784 3.26486 186.784 3.13097C186.784 2.99707 186.837 2.8685 186.93 2.77279C187.024 2.67708 187.151 2.62184 187.285 2.6189H194.047C194.181 2.62184 194.309 2.67708 194.402 2.77279C194.496 2.8685 194.548 2.99707 194.548 3.13097C194.548 3.26486 194.496 3.39344 194.402 3.48915C194.309 3.58486 194.181 3.6401 194.047 3.64304Z" fill="#3F3D56"/>
<path d="M194.047 5.56321H187.285C187.151 5.56027 187.024 5.50503 186.93 5.40931C186.837 5.3136 186.784 5.18503 186.784 5.05113C186.784 4.91724 186.837 4.78867 186.93 4.69296C187.024 4.59725 187.151 4.542 187.285 4.53906H194.047C194.181 4.542 194.309 4.59725 194.402 4.69296C194.496 4.78867 194.548 4.91724 194.548 5.05113C194.548 5.18503 194.496 5.3136 194.402 5.40931C194.309 5.50503 194.181 5.56027 194.047 5.56321Z" fill="#3F3D56"/>
<path d="M74.9034 95.5978C74.7427 95.5974 74.5837 95.5652 74.4355 95.5032C74.2143 95.4143 74.0251 95.2607 73.8926 95.0625C73.7602 94.8643 73.6907 94.6307 73.6932 94.3924V93.1847C73.6929 92.9313 73.5922 92.6885 73.4131 92.5093C73.234 92.3302 72.9911 92.2294 72.7378 92.2291C72.4189 92.2288 72.1132 92.102 71.8878 91.8765C71.6623 91.6511 71.5355 91.3454 71.5352 91.0265V74.481C71.5355 74.1621 71.6623 73.8564 71.8877 73.631C72.1132 73.4055 72.4188 73.2787 72.7377 73.2783H127.554C127.873 73.2787 128.179 73.4055 128.404 73.631C128.63 73.8564 128.756 74.1621 128.757 74.481V91.0265C128.756 91.3454 128.63 91.6511 128.404 91.8765C128.179 92.102 127.873 92.2288 127.554 92.2291H79.1555C79.03 92.2288 78.9056 92.2534 78.7897 92.3014C78.6737 92.3494 78.5684 92.42 78.4798 92.509L75.7462 95.2425C75.6363 95.3546 75.5051 95.4437 75.3605 95.5047C75.2158 95.5657 75.0604 95.5973 74.9034 95.5978Z" fill="white"/>
<path d="M74.9035 95.8449C74.7103 95.8447 74.519 95.8061 74.3408 95.7315C74.0742 95.6243 73.8462 95.4391 73.6865 95.2002C73.5269 94.9613 73.4431 94.6797 73.4461 94.3924V93.1848C73.4459 92.997 73.3713 92.8169 73.2385 92.6841C73.1057 92.5513 72.9256 92.4765 72.7378 92.4763C72.3535 92.4758 71.9849 92.323 71.7132 92.0511C71.4414 91.7793 71.2885 91.4108 71.2881 91.0264V74.481C71.2885 74.0966 71.4414 73.7282 71.7131 73.4564C71.9849 73.1846 72.3534 73.0317 72.7377 73.0312H127.554C127.939 73.0317 128.307 73.1846 128.579 73.4564C128.851 73.7281 129.004 74.0966 129.004 74.481V91.0264C129.004 91.4108 128.851 91.7793 128.579 92.0511C128.307 92.323 127.939 92.4759 127.554 92.4763H79.1556C79.0625 92.476 78.9703 92.4942 78.8843 92.5299C78.7983 92.5655 78.7202 92.6178 78.6546 92.6838L75.921 95.4173C75.7881 95.5523 75.6298 95.6597 75.4551 95.7331C75.2804 95.8065 75.0929 95.8445 74.9035 95.8449ZM72.7377 73.5255C72.4844 73.5258 72.2415 73.6266 72.0624 73.8057C71.8833 73.9848 71.7826 74.2277 71.7823 74.481V91.0264C71.7826 91.2798 71.8833 91.5227 72.0624 91.7019C72.2416 91.881 72.4845 91.9818 72.7378 91.9821C73.0567 91.9825 73.3623 92.1093 73.5878 92.3348C73.8132 92.5603 73.94 92.866 73.9403 93.1848V94.3924C73.9404 94.5814 73.9965 94.7661 74.1015 94.9232C74.2065 95.0803 74.3557 95.2027 74.5303 95.275C74.7048 95.3473 74.8969 95.3662 75.0823 95.3293C75.2676 95.2925 75.4378 95.2015 75.5714 95.0679L78.3051 92.3344C78.4165 92.2223 78.5491 92.1335 78.695 92.073C78.841 92.0126 78.9976 91.9816 79.1556 91.9821H127.554C127.808 91.9818 128.051 91.881 128.23 91.7019C128.409 91.5227 128.51 91.2798 128.51 91.0264V74.481C128.51 74.2277 128.409 73.9848 128.23 73.8056C128.05 73.6265 127.808 73.5257 127.554 73.5255L72.7377 73.5255Z" fill="#3F3D56"/>
<path d="M122.844 80.769H78.3932C78.2234 80.769 78.0605 80.7015 77.9404 80.5815C77.8204 80.4614 77.7529 80.2986 77.7529 80.1288C77.7529 79.959 77.8204 79.7961 77.9404 79.676C78.0605 79.556 78.2234 79.4885 78.3932 79.4885H122.844C123.013 79.4885 123.176 79.556 123.296 79.676C123.416 79.7961 123.484 79.959 123.484 80.1288C123.484 80.2986 123.416 80.4614 123.296 80.5815C123.176 80.7015 123.013 80.769 122.844 80.769Z" fill="#36A9C0"/>
<path d="M122.762 83.489H78.3932C78.2234 83.489 78.0605 83.4215 77.9404 83.3014C77.8204 83.1814 77.7529 83.0185 77.7529 82.8487C77.7529 82.6789 77.8204 82.5161 77.9404 82.396C78.0605 82.276 78.2234 82.2085 78.3932 82.2085H122.762C122.932 82.2085 123.095 82.276 123.215 82.396C123.335 82.5161 123.402 82.6789 123.402 82.8487C123.402 83.0185 123.335 83.1814 123.215 83.3014C123.095 83.4215 122.932 83.489 122.762 83.489Z" fill="#E6E6E6"/>
<path d="M122.718 86.2087H78.3932C78.2234 86.2087 78.0605 86.1412 77.9404 86.0212C77.8204 85.9011 77.7529 85.7383 77.7529 85.5685C77.7529 85.3987 77.8204 85.2358 77.9404 85.1157C78.0605 84.9957 78.2234 84.9282 78.3932 84.9282H122.718C122.888 84.9282 123.05 84.9957 123.171 85.1157C123.291 85.2358 123.358 85.3987 123.358 85.5685C123.358 85.7383 123.291 85.9011 123.171 86.0212C123.05 86.1412 122.888 86.2087 122.718 86.2087Z" fill="#E6E6E6"/>
<path d="M192.844 70.7107C192.844 71.3112 192.825 71.9117 192.783 72.5072C192.738 73.2189 192.662 73.9257 192.558 74.6275C192.209 76.9905 191.542 79.2955 190.576 81.48C190.526 81.5887 190.477 81.6974 190.428 81.8062L190.353 81.9693C190.329 82.0236 190.302 82.078 190.277 82.1299C190.242 82.2015 190.21 82.2707 190.176 82.3399C190.134 82.4264 190.092 82.5129 190.047 82.5994C190.042 82.6093 190.037 82.6216 190.03 82.634C189.993 82.7081 189.958 82.7798 189.919 82.8539C189.911 82.8701 189.903 82.8857 189.894 82.9009C189.852 82.9849 189.807 83.0714 189.763 83.1554C189.713 83.2444 189.666 83.3358 189.617 83.4248C189.498 83.6447 189.375 83.8621 189.249 84.0796C189.212 84.1439 189.175 84.2081 189.135 84.2724C189.101 84.3317 189.066 84.391 189.029 84.4503C189.004 84.4898 188.98 84.5318 188.955 84.5714C188.915 84.6381 188.876 84.7023 188.834 84.7691C188.742 84.9149 188.648 85.0607 188.557 85.2065H188.554C188.512 85.2732 188.468 85.3399 188.424 85.4041V85.4066C188.293 85.6043 188.157 85.802 188.021 85.9972C188.02 85.9972 188.02 85.9973 188.02 85.9974C188.019 85.9975 188.019 85.9977 188.019 85.9979C188.019 85.9981 188.019 85.9984 188.018 85.9987C188.018 85.999 188.018 85.9993 188.018 85.9997C187.91 86.1578 187.796 86.311 187.685 86.4642V86.4667C187.61 86.5631 187.539 86.6619 187.465 86.7583C187.405 86.8374 187.344 86.9189 187.282 86.998C187.269 87.0153 187.255 87.0301 187.242 87.0474V87.0499C187.225 87.0721 187.208 87.0919 187.19 87.1142C186.928 87.4502 186.658 87.7789 186.38 88.1001L186.335 88.152C186.321 88.1693 186.303 88.1866 186.288 88.2064C186.264 88.2336 186.241 88.2608 186.217 88.288C186.195 88.3151 186.17 88.3423 186.145 88.3695C184.694 90.0044 183.048 91.4558 181.245 92.6915C181.005 92.8571 180.76 93.0177 180.516 93.1734C180.454 93.2129 180.392 93.2525 180.331 93.2895C180.313 93.3019 180.293 93.3143 180.276 93.3266C180.242 93.3464 180.209 93.3662 180.175 93.3884C180.143 93.4082 180.111 93.4279 180.076 93.4477C179.945 93.5292 179.812 93.6083 179.678 93.6874C179.646 93.7072 179.611 93.7269 179.577 93.7467C179.545 93.764 179.51 93.7838 179.475 93.8036C179.475 93.806 179.475 93.806 179.473 93.806H179.471V93.8085H179.468C179.302 93.9049 179.134 93.9988 178.964 94.0902C178.873 94.1396 178.779 94.1915 178.685 94.2385C178.472 94.3546 178.257 94.4658 178.042 94.5721C177.966 94.6091 177.887 94.6462 177.81 94.6857C177.746 94.7154 177.681 94.7475 177.617 94.7772C177.597 94.7871 177.58 94.7945 177.563 94.8044C177.508 94.8291 177.457 94.8538 177.402 94.8785C177.343 94.9057 177.284 94.9329 177.227 94.96C177.16 94.9897 177.096 95.0194 177.029 95.0465C176.782 95.1577 176.532 95.264 176.283 95.3653C175.388 95.732 174.474 96.0488 173.545 96.3142C173.503 96.3266 173.458 96.3389 173.414 96.3513C173.016 96.4625 172.616 96.5638 172.213 96.6552C171.509 96.8183 170.798 96.9518 170.08 97.0556H170.075C169.989 97.0679 169.905 97.0803 169.818 97.0926C169.811 97.0926 169.803 97.0951 169.794 97.0951C169.794 97.0976 169.794 97.0976 169.791 97.0951C169.697 97.1075 169.601 97.1198 169.507 97.1322C169.5 97.1341 169.494 97.1349 169.487 97.1346C169.398 97.147 169.307 97.1569 169.218 97.1668C169.121 97.1767 169.025 97.1865 168.929 97.1964C168.855 97.2038 168.78 97.2113 168.706 97.2187C168.7 97.2209 168.693 97.2217 168.686 97.2211C168.62 97.2261 168.553 97.2335 168.486 97.2384H168.476C168.42 97.2434 168.36 97.2483 168.303 97.2533C167.614 97.3076 166.922 97.3323 166.22 97.3323C165.462 97.3323 164.708 97.3027 163.964 97.2384H163.957C163.796 97.2236 163.638 97.2088 163.48 97.194C163.438 97.189 163.398 97.1865 163.356 97.1816C163.349 97.1816 163.339 97.1791 163.331 97.1791C163.319 97.1767 163.307 97.1767 163.292 97.1742C163.285 97.1744 163.279 97.1736 163.272 97.1717C163.218 97.1668 163.163 97.1594 163.107 97.1544L162.921 97.1322C162.86 97.1248 162.798 97.1149 162.736 97.1075C162.721 97.105 162.709 97.105 162.694 97.1025C162.649 97.0976 162.605 97.0902 162.56 97.0828C162.538 97.0803 162.516 97.0778 162.496 97.0754C162.452 97.0679 162.41 97.063 162.365 97.0556H162.363C161.007 96.8604 159.668 96.5588 158.36 96.1536C158.29 96.1314 158.221 96.1116 158.152 96.0894C158.15 96.0894 158.147 96.0869 158.145 96.0869C158.125 96.0795 158.103 96.0745 158.083 96.0671C157.897 96.0078 157.715 95.946 157.532 95.8818C157.28 95.7978 157.03 95.7063 156.781 95.6124C156.714 95.5853 156.647 95.5605 156.58 95.5334C156.444 95.4815 156.311 95.4271 156.178 95.3727C155.95 95.2813 155.723 95.1849 155.498 95.0861C155.288 94.9922 155.08 94.8983 154.873 94.7994C154.868 94.797 154.86 94.797 154.855 94.792C154.809 94.7698 154.762 94.7475 154.717 94.7253H154.715C153.577 94.1791 152.479 93.5523 151.43 92.8497C151.094 92.6248 150.763 92.3925 150.437 92.1528C150.175 91.9576 149.918 91.7599 149.661 91.5573C148.393 90.5488 147.22 89.4272 146.155 88.2064V88.2039C146.078 88.1199 146.006 88.0334 145.932 87.9469C145.92 87.9346 145.91 87.9222 145.9 87.9124C145.853 87.8555 145.809 87.8012 145.762 87.7468V87.7443C145.7 87.6726 145.638 87.5985 145.579 87.5244C145.564 87.5071 145.552 87.4923 145.539 87.4774V87.475C145.49 87.4157 145.443 87.3563 145.393 87.2946C145.369 87.2649 145.347 87.2353 145.322 87.2056V87.2031C145.176 87.0203 145.035 86.8374 144.894 86.6496C144.857 86.6002 144.82 86.5483 144.781 86.4964C144.603 86.2567 144.43 86.012 144.262 85.7674V85.7649C144.197 85.6735 144.136 85.5796 144.071 85.4882C144.01 85.3943 143.948 85.3004 143.886 85.2065C143.824 85.1076 143.76 85.0112 143.698 84.9124L143.691 84.8976C143.629 84.8037 143.567 84.7048 143.508 84.6084C143.461 84.5294 143.414 84.4528 143.367 84.3762C143.337 84.3243 143.305 84.2724 143.276 84.218C143.264 84.2013 143.253 84.1839 143.244 84.1661C143.174 84.045 143.105 83.9239 143.036 83.8029C142.954 83.662 142.875 83.5187 142.796 83.3753C142.767 83.316 142.735 83.2567 142.702 83.1974C142.69 83.1777 142.68 83.1579 142.67 83.1381C142.633 83.0689 142.596 82.9973 142.562 82.9256C142.524 82.8564 142.487 82.7847 142.45 82.7131C142.416 82.6439 142.379 82.5722 142.344 82.5006C142.317 82.4462 142.292 82.3918 142.265 82.3375C142.263 82.333 142.261 82.3289 142.258 82.3251C142.245 82.2979 142.233 82.2732 142.223 82.2485C142.22 82.2447 142.217 82.2406 142.216 82.2361C142.188 82.1818 142.164 82.1249 142.137 82.0706C142.102 81.9989 142.07 81.9248 142.035 81.8531C142.013 81.8037 141.988 81.7518 141.966 81.6999C141.934 81.6282 141.899 81.5566 141.87 81.4825C141.835 81.4083 141.803 81.3342 141.771 81.2576C141.761 81.2391 141.753 81.2201 141.746 81.2007C141.729 81.1661 141.716 81.1315 141.702 81.097C141.662 81.0055 141.622 80.9116 141.585 80.8202C141.541 80.7164 141.499 80.6101 141.459 80.5063C141.42 80.41 141.383 80.3111 141.346 80.2123L141.331 80.1777C140.755 78.6612 140.318 77.0954 140.026 75.4998V75.4973C139.861 74.5864 139.743 73.6675 139.673 72.7445C139.67 72.6926 139.665 72.6432 139.663 72.5937C139.618 71.9685 139.599 71.3409 139.599 70.7107C139.599 70.4315 139.604 70.1547 139.611 69.878C139.783 64.0896 141.848 58.5172 145.487 54.0132C145.566 53.9144 145.646 53.8155 145.727 53.7167C145.809 53.6178 145.893 53.5215 145.974 53.4251C148.683 50.2527 152.1 47.7611 155.948 46.1514C159.797 44.5416 163.97 43.8587 168.131 44.1575C172.291 44.4564 176.324 45.7288 179.903 47.8721C183.482 50.0154 186.507 52.9697 188.735 56.4967C188.856 56.6895 188.977 56.8847 189.093 57.0799C189.212 57.2776 189.325 57.4753 189.439 57.6755C191.678 61.6548 192.851 66.1449 192.844 70.7107Z" fill="#F2F2F2"/>
<path d="M167.279 53.2974C162.901 54.4208 158.415 55.0683 153.898 55.2287C153.215 55.2659 152.53 55.2613 151.848 55.2148C150.348 55.0886 149.063 54.6173 147.633 54.3597C146.945 54.2362 146.179 54.1459 145.486 54.0125C145.646 53.814 145.809 53.6179 145.975 53.4243C147.468 53.5504 148.984 53.9633 150.495 54.1552C153.064 54.4818 155.942 54.1174 157.889 53.2184C158.834 52.7823 159.558 52.2379 160.499 51.7997C160.627 51.734 160.766 51.6915 160.909 51.6742C161.18 51.6661 161.448 51.7356 161.681 51.8747C163.261 52.6721 165.554 53.32 167.682 52.9635C167.841 53.0877 167.54 53.2291 167.279 53.2974Z" fill="white"/>
<path d="M176.697 56.1034C176.716 56.0998 176.736 56.0971 176.755 56.0937C176.674 56.043 176.597 55.985 176.525 55.9204L176.697 56.1034Z" fill="white"/>
<path d="M189.439 57.6765C188.55 57.7475 187.656 57.8004 186.758 57.8352C186.075 57.8721 185.39 57.8674 184.708 57.8212C183.208 57.6944 181.924 57.2237 180.493 56.9661C179.182 56.7305 177.588 56.6169 176.756 56.0938C178.908 55.7213 181.137 56.4795 183.356 56.7617C185.15 56.9823 186.97 56.8925 188.734 56.4961C188.98 56.8825 189.215 57.276 189.439 57.6765Z" fill="white"/>
<path d="M163.219 82.3599C167.635 82.3599 171.215 78.7001 171.215 74.1854C171.215 69.6708 167.635 66.011 163.219 66.011C158.803 66.011 155.223 69.6708 155.223 74.1854C155.223 78.7001 158.803 82.3599 163.219 82.3599Z" fill="#FFB6B6"/>
<path d="M178.685 94.2384C178.473 94.3545 178.258 94.4657 178.043 94.572C177.966 94.609 177.887 94.6461 177.81 94.6856C177.746 94.7153 177.682 94.7474 177.618 94.7771C177.598 94.787 177.58 94.7944 177.563 94.8042C177.509 94.829 177.457 94.8537 177.403 94.8784C177.343 94.9056 177.284 94.9327 177.227 94.9599C177.16 94.9896 177.096 95.0192 177.029 95.0464C176.782 95.1576 176.533 95.2639 176.283 95.3652C175.389 95.7318 174.475 96.0486 173.545 96.3141C173.503 96.3265 173.459 96.3388 173.414 96.3512C173.016 96.4624 172.616 96.5637 172.213 96.6551C171.509 96.8183 170.798 96.9517 170.081 97.0555H170.076C169.989 97.0678 169.905 97.0802 169.819 97.0925C169.811 97.0925 169.804 97.095 169.794 97.095C169.794 97.0975 169.794 97.0975 169.791 97.095C169.698 97.1074 169.601 97.1197 169.507 97.1321C169.501 97.134 169.494 97.1348 169.487 97.1346C169.399 97.1469 169.307 97.1568 169.218 97.1667C169.122 97.1765 169.025 97.1864 168.929 97.1963C168.855 97.2037 168.781 97.2111 168.707 97.2186C168.7 97.2208 168.694 97.2216 168.687 97.221C168.62 97.226 168.553 97.2334 168.487 97.2383H168.477C168.42 97.2433 168.361 97.2482 168.304 97.2532C167.614 97.3075 166.922 97.3322 166.221 97.3322C165.462 97.3322 164.708 97.3026 163.964 97.2383H163.957C163.796 97.2235 163.638 97.2087 163.48 97.1939C163.438 97.1889 163.399 97.1864 163.357 97.1815C163.349 97.1815 163.339 97.179 163.332 97.179C163.32 97.1766 163.307 97.1766 163.292 97.1741C163.286 97.1743 163.279 97.1735 163.273 97.1716C163.218 97.1667 163.164 97.1593 163.107 97.1543L162.922 97.1321C162.86 97.1247 162.798 97.1148 162.736 97.1074C162.721 97.1049 162.709 97.1049 162.694 97.1024C162.65 97.0975 162.605 97.0901 162.561 97.0827C162.539 97.0802 162.516 97.0777 162.497 97.0752C162.452 97.0678 162.41 97.0629 162.366 97.0555H162.363C161.007 96.8603 159.669 96.5587 158.36 96.1535C158.291 96.1313 158.222 96.1115 158.152 96.0893C158.471 94.6012 159.128 93.2065 160.072 92.0127C161.016 90.819 162.222 89.8582 163.596 89.2047C163.256 88.8808 163.021 88.4625 162.922 88.0037C162.857 87.7079 162.852 87.4024 162.907 87.1047C162.961 86.807 163.074 86.523 163.238 86.2689C163.559 85.7765 164.062 85.4317 164.637 85.3101L168.299 84.5441C168.888 84.4291 169.499 84.5516 169.999 84.8847C170.499 85.2179 170.847 85.7349 170.968 86.3233C171.005 86.5037 171.022 86.6877 171.017 86.8719C174.543 89.2195 177.081 91.6535 178.685 94.2384Z" fill="#36A9C0"/>
<path d="M184.616 70.6403C183.257 69.0553 182.611 66.9524 181.524 65.1525C180.438 63.3526 178.547 61.7416 176.549 62.1605C175.172 62.4493 174.108 63.6644 173.569 65.0191C173.03 66.3737 172.929 67.8677 172.835 69.3312C172.868 66.3236 170.887 63.4078 168.157 62.4481C165.428 61.4884 162.161 62.5589 160.446 64.9752C159.698 64.2815 158.721 63.8865 157.7 63.8651C156.68 63.8436 155.687 64.1973 154.91 64.859C153.376 66.2302 153.037 68.84 154.165 70.589C155.293 72.3379 157.737 72.9895 159.53 72.0195L160.164 72.6026C159.807 73.8505 160.499 75.3247 161.662 75.7945C162.605 76.1754 163.937 76.112 164.29 77.1018C164.536 77.7935 164.075 78.5317 163.585 79.0631C163.095 79.5946 162.512 80.1434 162.453 80.8788C162.364 81.9885 163.511 82.7658 164.554 82.9999C167.067 83.5644 169.856 82.4005 171.305 80.1823C171.333 80.1395 171.363 80.0967 171.396 80.0538C172.209 79.0144 172.801 77.8202 173.137 76.5441C173.472 75.268 173.544 73.9369 173.348 72.6321C173.267 72.1194 173.349 71.7381 173.702 71.6167C175.23 71.0919 179.51 72.1933 180.806 73.1888C182.101 74.1843 183.139 75.5017 184.387 76.5614C185.634 77.6211 187.225 78.4385 188.809 78.1499C190.078 77.9188 191.157 76.9976 191.884 75.8864C192.61 74.7752 193.027 73.4799 193.402 72.1927C190.596 73.8137 186.755 73.1351 184.616 70.6403Z" fill="#2F2E41"/>
<path d="M20.4678 54.1541C20.4678 54.7546 20.4876 55.355 20.5296 55.9506C20.5741 56.6623 20.6507 57.369 20.7545 58.0708C21.1033 60.4339 21.7699 62.7389 22.7363 64.9233C22.7857 65.032 22.8351 65.1408 22.8846 65.2495L22.9587 65.4126C22.9834 65.467 23.0106 65.5213 23.0353 65.5732C23.0699 65.6449 23.102 65.7141 23.1366 65.7833C23.1786 65.8698 23.2206 65.9563 23.2651 66.0427C23.2701 66.0526 23.275 66.065 23.2824 66.0773C23.3195 66.1515 23.3541 66.2231 23.3936 66.2973C23.4009 66.3134 23.4092 66.3291 23.4183 66.3442C23.4604 66.4282 23.5048 66.5147 23.5493 66.5988C23.5987 66.6877 23.6457 66.7791 23.6951 66.8681C23.8137 67.088 23.9373 67.3055 24.0633 67.523C24.1004 67.5872 24.1374 67.6515 24.177 67.7157C24.2116 67.775 24.2462 67.8343 24.2832 67.8936C24.308 67.9332 24.3327 67.9752 24.3574 68.0147C24.3969 68.0814 24.4365 68.1457 24.4785 68.2124C24.5699 68.3582 24.6638 68.504 24.7552 68.6498H24.7577C24.7997 68.7165 24.8442 68.7832 24.8887 68.8475V68.85C25.0196 69.0477 25.1556 69.2453 25.2915 69.4406C25.2918 69.4406 25.2921 69.4406 25.2924 69.4407C25.2927 69.4409 25.293 69.441 25.2932 69.4413C25.2935 69.4415 25.2936 69.4418 25.2938 69.4421C25.2939 69.4424 25.294 69.4427 25.2939 69.443C25.4027 69.6012 25.5163 69.7544 25.6275 69.9076V69.9101C25.7017 70.0064 25.7733 70.1053 25.8475 70.2017C25.9068 70.2807 25.9686 70.3623 26.0303 70.4414C26.0427 70.4587 26.0575 70.4735 26.0699 70.4908V70.4933C26.0872 70.5155 26.1045 70.5353 26.1218 70.5575C26.3837 70.8936 26.6539 71.2222 26.9323 71.5435L26.9768 71.5954C26.9916 71.6127 27.0089 71.63 27.0237 71.6498C27.0485 71.677 27.0707 71.7041 27.0954 71.7313C27.1176 71.7585 27.1424 71.7857 27.1671 71.8128C28.6184 73.4477 30.264 74.8991 32.0673 76.1349C32.3071 76.3005 32.5517 76.4611 32.7963 76.6168C32.8581 76.6563 32.9199 76.6958 32.9817 76.7329C32.999 76.7453 33.0187 76.7576 33.036 76.77C33.0706 76.7897 33.1028 76.8095 33.1374 76.8317C33.1695 76.8515 33.2016 76.8713 33.2362 76.8911C33.3672 76.9726 33.5006 77.0517 33.6341 77.1308C33.6662 77.1505 33.7008 77.1703 33.7354 77.1901C33.7675 77.2074 33.8021 77.2271 33.8367 77.2469C33.8367 77.2494 33.8367 77.2494 33.8392 77.2494H33.8416V77.2519H33.8441C34.0097 77.3482 34.1777 77.4421 34.3482 77.5336C34.4396 77.583 34.5335 77.6349 34.6275 77.6818C34.84 77.798 35.055 77.9092 35.2699 78.0154C35.3466 78.0525 35.4256 78.0896 35.5022 78.1291C35.5665 78.1588 35.6307 78.1909 35.695 78.2205C35.7148 78.2304 35.7321 78.2378 35.7494 78.2477C35.8037 78.2724 35.8556 78.2971 35.91 78.3218C35.9693 78.349 36.0286 78.3762 36.0854 78.4034C36.1521 78.433 36.2164 78.4627 36.2831 78.4899C36.5302 78.6011 36.7798 78.7073 37.0294 78.8087C37.9238 79.1753 38.8379 79.4921 39.7674 79.7576C39.8094 79.7699 39.8539 79.7823 39.8984 79.7946C40.2963 79.9058 40.6966 80.0072 41.0994 80.0986C41.8037 80.2617 42.5145 80.3951 43.232 80.4989H43.2369C43.3234 80.5113 43.4074 80.5236 43.4939 80.536C43.5013 80.536 43.5088 80.5385 43.5186 80.5385C43.5186 80.5409 43.5186 80.5409 43.5211 80.5385C43.615 80.5508 43.7114 80.5632 43.8053 80.5755C43.8117 80.5774 43.8184 80.5783 43.8251 80.578C43.914 80.5904 44.0055 80.6002 44.0944 80.6101C44.1908 80.62 44.2872 80.6299 44.3835 80.6398C44.4577 80.6472 44.5318 80.6546 44.6059 80.662C44.6123 80.6642 44.619 80.6651 44.6257 80.6645C44.6924 80.6694 44.7592 80.6768 44.8259 80.6818H44.8358C44.8926 80.6867 44.9519 80.6917 45.0087 80.6966C45.6982 80.751 46.3901 80.7757 47.0919 80.7757C47.8506 80.7757 48.6042 80.746 49.3481 80.6818H49.3555C49.5161 80.667 49.6743 80.6521 49.8324 80.6373C49.8744 80.6324 49.914 80.6299 49.956 80.625C49.9634 80.625 49.9733 80.6225 49.9807 80.6225C49.993 80.62 50.0054 80.62 50.0202 80.6175C50.0269 80.6178 50.0336 80.617 50.04 80.6151C50.0944 80.6101 50.1487 80.6027 50.2056 80.5978L50.3909 80.5755C50.4527 80.5681 50.5144 80.5582 50.5762 80.5508C50.591 80.5483 50.6034 80.5483 50.6182 80.5459C50.6627 80.5409 50.7072 80.5335 50.7517 80.5261C50.7739 80.5236 50.7962 80.5212 50.8159 80.5187C50.8604 80.5113 50.9024 80.5064 50.9469 80.4989H50.9494C52.3054 80.3037 53.6439 80.0021 54.9526 79.597C55.0218 79.5747 55.091 79.5549 55.1602 79.5327C55.1627 79.5327 55.1651 79.5302 55.1676 79.5302C55.1874 79.5228 55.2096 79.5179 55.2294 79.5105C55.4147 79.4512 55.5976 79.3894 55.7805 79.3251C56.0325 79.2411 56.2821 79.1497 56.5317 79.0558C56.5984 79.0286 56.6651 79.0039 56.7318 78.9767C56.8678 78.9248 57.0012 78.8705 57.1346 78.8161C57.362 78.7247 57.5893 78.6283 57.8142 78.5294C58.0243 78.4355 58.2318 78.3416 58.4394 78.2428C58.4443 78.2403 58.4518 78.2403 58.4567 78.2354C58.5037 78.2131 58.5506 78.1909 58.5951 78.1686H58.5976C59.7356 77.6225 60.8331 76.9957 61.8817 76.293C62.2178 76.0682 62.5489 75.8359 62.8751 75.5962C63.1371 75.401 63.394 75.2033 63.651 75.0006C64.9189 73.9921 66.0926 72.8706 67.1576 71.6498V71.6473C67.2342 71.5633 67.3059 71.4768 67.38 71.3903C67.3924 71.3779 67.4022 71.3656 67.4121 71.3557C67.4591 71.2989 67.5036 71.2445 67.5505 71.1901V71.1877C67.6123 71.116 67.6741 71.0419 67.7334 70.9677C67.7482 70.9505 67.7606 70.9356 67.7729 70.9208V70.9183C67.8223 70.859 67.8693 70.7997 67.9187 70.7379C67.9434 70.7083 67.9657 70.6786 67.9904 70.649V70.6465C68.1362 70.4636 68.277 70.2808 68.4179 70.093C68.455 70.0435 68.492 69.9916 68.5316 69.9397C68.7095 69.7 68.8825 69.4554 69.0505 69.2108V69.2083C69.1147 69.1169 69.1765 69.023 69.2408 68.9315C69.3025 68.8376 69.3643 68.7437 69.4261 68.6498C69.4879 68.551 69.5521 68.4546 69.6139 68.3558L69.6213 68.3409C69.6831 68.247 69.7449 68.1482 69.8042 68.0518C69.8511 67.9727 69.8981 67.8961 69.945 67.8195C69.9747 67.7676 70.0068 67.7157 70.0365 67.6614C70.0481 67.6446 70.0588 67.6273 70.0686 67.6095C70.1378 67.4884 70.207 67.3673 70.2762 67.2462C70.3577 67.1054 70.4368 66.962 70.5159 66.8187C70.5455 66.7594 70.5777 66.7001 70.6098 66.6408C70.6221 66.621 70.632 66.6012 70.6419 66.5815C70.679 66.5123 70.716 66.4406 70.7506 66.369C70.7877 66.2998 70.8248 66.2281 70.8618 66.1564C70.8964 66.0872 70.9335 66.0156 70.9681 65.9439C70.9953 65.8895 71.02 65.8352 71.0472 65.7808C71.0491 65.7764 71.0516 65.7722 71.0546 65.7685C71.067 65.7413 71.0793 65.7166 71.0892 65.6919C71.0922 65.6881 71.0947 65.6839 71.0966 65.6795C71.1238 65.6251 71.1485 65.5683 71.1757 65.5139C71.2103 65.4423 71.2424 65.3681 71.277 65.2965C71.2992 65.2471 71.3239 65.1952 71.3462 65.1433C71.3783 65.0716 71.4129 64.9999 71.4426 64.9258C71.4772 64.8517 71.5093 64.7775 71.5414 64.7009C71.5507 64.6824 71.5589 64.6635 71.5661 64.6441C71.5834 64.6095 71.5958 64.5749 71.6106 64.5403C71.6501 64.4489 71.6897 64.355 71.7267 64.2635C71.7712 64.1597 71.8132 64.0535 71.8528 63.9497C71.8923 63.8533 71.9294 63.7545 71.9664 63.6556L71.9813 63.621C72.557 62.1045 72.9938 60.5388 73.286 58.9432V58.9407C73.4509 58.0297 73.5688 57.1109 73.6394 56.1878C73.6419 56.1359 73.6468 56.0865 73.6493 56.0371C73.6938 55.4119 73.7135 54.7842 73.7135 54.1541C73.7135 53.8748 73.7086 53.5981 73.7012 53.3213C73.5287 47.533 71.4646 41.9606 67.8248 37.4566C67.7457 37.3577 67.6667 37.2589 67.5851 37.16C67.5036 37.0612 67.4195 36.9648 67.338 36.8684C64.629 33.696 61.2126 31.2045 57.364 29.5947C53.5155 27.985 49.3425 27.302 45.1816 27.6009C41.0207 27.8998 36.9882 29.1722 33.4093 31.3155C29.8303 33.4588 26.805 36.413 24.5773 39.9401C24.4562 40.1328 24.3352 40.328 24.219 40.5233C24.1004 40.721 23.9867 40.9187 23.873 41.1188C21.6343 45.0981 20.4614 49.5882 20.4678 54.1541Z" fill="#F2F2F2"/>
<path d="M46.0336 36.7408C50.4114 37.8641 54.8977 38.5116 59.4144 38.6721C60.0975 38.7093 60.7821 38.7046 61.4646 38.6581C62.9643 38.532 64.2489 38.0606 65.6796 37.803C66.3674 37.6796 67.1336 37.5893 67.826 37.4558C67.666 37.2573 67.5031 37.0612 67.3374 36.8676C65.8443 36.9938 64.3279 37.4067 62.8169 37.5986C60.2483 37.9252 57.3703 37.5607 55.4231 36.6618C54.4784 36.2256 53.7547 35.6812 52.8133 35.2431C52.6853 35.1773 52.5466 35.1348 52.4037 35.1176C52.1323 35.1094 51.8642 35.179 51.6309 35.3181C50.0515 36.1154 47.7584 36.7634 45.63 36.4069C45.4713 36.531 45.7727 36.6724 46.0336 36.7408Z" fill="white"/>
<path d="M36.615 39.5468C36.5956 39.5432 36.5761 39.5404 36.5566 39.5371C36.6384 39.4864 36.7154 39.4284 36.7867 39.3638L36.615 39.5468Z" fill="white"/>
<path d="M23.873 41.1199C24.762 41.1909 25.6556 41.2438 26.5539 41.2785C27.2369 41.3154 27.9215 41.3108 28.604 41.2646C30.1037 41.1378 31.3883 40.6671 32.819 40.4095C34.1302 40.1738 35.7236 40.0603 36.5561 39.5371C34.4044 39.1647 32.1751 39.9229 29.9563 40.205C28.1616 40.4257 26.3423 40.3359 24.5781 39.9395C24.3325 40.3259 24.0974 40.7193 23.873 41.1199Z" fill="white"/>
<path d="M34.627 77.6817C34.8395 77.7979 35.0545 77.9091 35.2695 78.0153C35.3461 78.0524 35.4251 78.0895 35.5017 78.129C35.566 78.1587 35.6302 78.1908 35.6945 78.2204C35.7143 78.2303 35.7316 78.2377 35.7489 78.2476C35.8032 78.2723 35.8551 78.297 35.9095 78.3217C35.9688 78.3489 36.0281 78.3761 36.0849 78.4033C36.1517 78.433 36.2159 78.4626 36.2826 78.4898C36.5297 78.601 36.7793 78.7072 37.0289 78.8086C37.9233 79.1752 38.8374 79.492 39.7669 79.7575C39.8089 79.7698 39.8534 79.7822 39.8979 79.7946C40.2958 79.9058 40.6961 80.0071 41.0989 80.0985C41.8032 80.2616 42.514 80.395 43.2315 80.4988H43.2364C43.3229 80.5112 43.4069 80.5235 43.4934 80.5359C43.5008 80.5359 43.5083 80.5384 43.5181 80.5384C43.5181 80.5408 43.5181 80.5408 43.5206 80.5384C43.6145 80.5507 43.7109 80.5631 43.8048 80.5754C43.8112 80.5773 43.8179 80.5782 43.8246 80.5779C43.9135 80.5903 44.005 80.6001 44.0939 80.61C44.1903 80.6199 44.2867 80.6298 44.383 80.6397C44.4572 80.6471 44.5313 80.6545 44.6054 80.6619C44.6118 80.6641 44.6185 80.665 44.6252 80.6644C44.6919 80.6693 44.7587 80.6768 44.8254 80.6817H44.8353C44.8921 80.6866 44.9514 80.6916 45.0082 80.6965C45.6977 80.7509 46.3896 80.7756 47.0914 80.7756C47.8501 80.7756 48.6038 80.7459 49.3476 80.6817H49.355C49.5156 80.6669 49.6738 80.652 49.8319 80.6372C49.8739 80.6323 49.9135 80.6298 49.9555 80.6249C49.9629 80.6249 49.9728 80.6224 49.9802 80.6224C49.9925 80.6199 50.0049 80.6199 50.0197 80.6174C50.0264 80.6177 50.0331 80.6169 50.0395 80.615C50.0939 80.61 50.1482 80.6026 50.2051 80.5977L50.3904 80.5754C50.4522 80.568 50.514 80.5581 50.5757 80.5507C50.5906 80.5483 50.6029 80.5482 50.6177 80.5458C50.6622 80.5408 50.7067 80.5334 50.7512 80.526C50.7734 80.5235 50.7957 80.5211 50.8154 80.5186C50.8599 80.5112 50.9019 80.5063 50.9464 80.4988H50.9489C52.3049 80.3036 53.6434 80.002 54.9521 79.5969C55.0213 79.5746 55.0905 79.5549 55.1597 79.5326C54.8406 78.0446 54.1838 76.6498 53.2398 75.4561C52.2959 74.2623 51.0901 73.3016 49.7158 72.648C50.0557 72.3242 50.2907 71.9058 50.3904 71.447C50.4546 71.1513 50.4596 70.8458 50.4054 70.5481C50.3511 70.2504 50.2385 69.9664 50.0741 69.7123C49.7534 69.2199 49.2503 68.875 48.6754 68.7535L45.0132 67.9874C44.4236 67.8725 43.8126 67.9949 43.3128 68.3281C42.813 68.6613 42.465 69.1783 42.3444 69.7667C42.307 69.947 42.2904 70.1311 42.2949 70.3153C38.7686 72.6628 36.2307 75.0969 34.627 77.6817Z" fill="#36A9C0"/>
<path d="M49.1144 65.5154C54.0376 65.5154 58.0286 61.5244 58.0286 56.6012C58.0286 51.678 54.0376 47.687 49.1144 47.687C44.1912 47.687 40.2002 51.678 40.2002 56.6012C40.2002 61.5244 44.1912 65.5154 49.1144 65.5154Z" fill="#9E616A"/>
<path d="M47.8484 65.0389C45.6167 65.6416 43.1564 64.8403 41.4148 63.3202C39.6732 61.8002 38.5838 59.6464 37.956 57.4216C37.4963 55.7923 37.2783 53.9836 38.0038 52.4539C38.7293 50.9243 40.6818 49.8922 42.1882 50.6649C41.2589 49.5822 41.7232 47.7915 42.8085 46.8654C43.8938 45.9392 45.3841 45.6736 46.8035 45.5285C48.8634 45.3178 50.9912 45.2942 52.9514 45.9616C54.9116 46.6289 56.6926 48.088 57.3061 50.0657C57.9327 50.3574 58.6383 50.4331 59.3125 50.2809C59.9866 50.1287 60.5913 49.7571 61.0317 49.2245C61.1453 49.8362 61.0541 50.4684 60.7722 51.023C60.4904 51.5777 60.0336 52.024 59.4725 52.293L62.4759 51.3192C62.9924 52.4126 62.0873 53.7657 60.9299 54.1158C59.7726 54.4659 58.5232 54.0832 57.4249 53.5774C56.3266 53.0716 55.2623 52.4321 54.0693 52.2348C52.8763 52.0376 51.475 52.4209 50.9232 53.4968C50.6342 54.0603 50.6191 54.7203 50.4513 55.331C50.2835 55.9417 49.8584 56.5749 49.2271 56.6248C48.8282 56.6564 48.4376 56.4439 48.0399 56.4874C47.7958 56.5355 47.571 56.6537 47.393 56.8275C47.2151 57.0014 47.0917 57.2234 47.038 57.4663C46.9389 57.9538 46.9377 58.4561 47.0344 58.944L47.7973 64.7755L47.8484 65.0389Z" fill="#2F2E41"/>
</g>
<defs>
<clipPath id="clip0_816_2830">
<rect width="200" height="155.651" fill="white"/>
</clipPath>
</defs>
</svg>
