<svg width="200" height="142" viewBox="0 0 200 142" fill="none" xmlns="http://www.w3.org/2000/svg">
<g clip-path="url(#clip0_816_3216)">
<path d="M20.6863 138.183L24.0056 138.182L25.5849 125.378L20.6855 125.378L20.6863 138.183Z" fill="#FFB6B6"/>
<path d="M20.5695 141.646L30.7776 141.645V141.516C30.7775 140.462 30.3589 139.452 29.6138 138.707C28.8687 137.962 27.8581 137.543 26.8043 137.543H26.8041L24.9395 136.128L21.4604 137.543L20.5693 137.543L20.5695 141.646Z" fill="#2F2E41"/>
<path d="M26.0469 122.691L28.6602 124.738L37.7994 115.632L33.9424 112.611L26.0469 122.691Z" fill="#FFB6B6"/>
<path d="M23.8193 125.345L31.8556 131.64L31.9352 131.538C32.585 130.709 32.8786 129.655 32.7515 128.609C32.6244 127.563 32.087 126.61 31.2575 125.96L31.2573 125.96L30.6618 123.697L27.0506 122.665L26.3491 122.115L23.8193 125.345Z" fill="#2F2E41"/>
<path d="M41.6754 64.3503C41.6754 64.3503 46.0812 68.9193 44.1231 79.5257L45.767 97.6864L46.1912 98.5271C46.444 99.028 46.5323 99.596 46.4435 100.15C46.3546 100.704 46.0932 101.216 45.6964 101.613L45.3469 102.697L45.0205 104.818L32.8639 123.094L28.2134 118.198L35.7195 101.065L33.6798 96.6591L28.9477 81.3206L25.6842 109.387L26.3369 133.537H20.0906L16.22 106.613L12.1406 68.7561L14.2626 64.3503H41.6754Z" fill="#2F2E41"/>
<path d="M13.1579 72.201L13.1134 72.1385C10.7358 68.8099 14.3117 60.8114 14.851 59.6519C14.2106 59.444 13.662 59.0206 13.2987 58.4538C12.9354 57.8869 12.7798 57.2116 12.8585 56.5429L13.0909 54.5666L13.3333 52.6282L11.5971 50.892L11.5923 50.8487L10.5932 42.1065L9.14046 36.2999C8.59311 34.1049 8.63976 31.8037 9.27562 29.6326C9.91149 27.4615 11.1137 25.4987 12.7587 23.9457L16.1166 23.4126L20.1975 19.4806H26.7783L29.0348 21.6364C33.247 22.3752 33.9707 22.134 37.5889 26.4759L35.9448 39.9749L35.5346 41.832L35.5359 44.3508L36.5786 45.5096C36.9542 45.927 37.2271 46.4264 37.3756 46.968C37.5241 47.5095 37.5441 48.0783 37.434 48.6289L37.2969 49.3145C38.3723 49.7754 39.3985 57.9659 39.6437 59.1099L40.0099 60.8188C40.3232 61.2323 42.3913 63.9899 42.3913 64.7437C42.3913 64.8569 42.3078 64.9663 42.1285 65.0877C40.7191 66.042 35.1001 72.812 31.6523 71.4324C27.9798 69.9639 13.3809 72.1668 13.2338 72.1893L13.1579 72.201Z" fill="#3F3D56"/>
<path d="M12.2735 56.5038C12.2735 56.5038 13.9634 46.953 12.2609 43.3611L5.50684 43.8435L6.53471 57.469L12.439 72.5975C12.3489 73.0636 12.3837 73.5452 12.5399 73.9935C12.6961 74.4418 12.9682 74.8408 13.3284 75.15C13.6887 75.4592 14.1243 75.6675 14.5912 75.7539C15.058 75.8402 15.5393 75.8015 15.9864 75.6417C16.4334 75.4819 16.8302 75.2067 17.1364 74.8439C17.4427 74.4812 17.6475 74.0439 17.7301 73.5764C17.8127 73.1089 17.7702 72.6279 17.6068 72.1821C17.4434 71.7364 17.1649 71.3418 16.7997 71.0385L12.2735 56.5038Z" fill="#FFB6B6"/>
<path d="M5.50688 38.2955L5.92489 33.7435C6.08221 32.0303 6.5767 30.3651 7.37992 28.8437C8.18314 27.3222 9.27923 25.9746 10.6052 24.8784C11.429 24.2023 12.4255 23.77 13.4821 23.6306C14.5387 23.4911 15.6132 23.6499 16.5843 24.0891C17.8966 24.6933 18.9306 25.7732 19.4771 27.1106C20.0236 28.448 20.0419 29.943 19.5283 31.2933C17.9672 35.3874 18.5309 39.7169 15.487 40.2447L15.8177 41.8181L12.8249 51.585L4.30078 50.5976L5.50688 38.2955Z" fill="#3F3D56"/>
<path d="M50.4641 51.977C50.4641 51.977 45.5169 43.6344 41.8838 42.0216L37.0781 46.7919L46.7429 56.4511L61.0847 64.0698C61.3204 64.4819 61.6609 64.8244 62.0716 65.0624C62.4824 65.3004 62.9488 65.4254 63.4236 65.4249C63.8983 65.4243 64.3644 65.2982 64.7747 65.0592C65.1849 64.8203 65.5246 64.477 65.7592 64.0644C65.9939 63.6517 66.1152 63.1843 66.1109 62.7095C66.1065 62.2348 65.9766 61.7697 65.7343 61.3614C65.4921 60.9532 65.1462 60.6162 64.7316 60.3849C64.317 60.1535 63.8487 60.036 63.374 60.0442L50.4641 51.977Z" fill="#FFB6B6"/>
<path d="M33.4605 42.5858L30.8089 38.8623C29.8109 37.4609 29.0998 35.876 28.7166 34.1988C28.3334 32.5216 28.2855 30.7852 28.5758 29.0894C28.7594 28.0396 29.2331 27.0621 29.9431 26.2673C30.6532 25.4725 31.5714 24.8922 32.5939 24.5919C33.9828 24.1941 35.4709 24.3386 36.7574 24.9961C38.0438 25.6535 39.0327 26.775 39.5239 28.1337C41.0103 32.2554 46.432 39.0295 44.4686 41.4147L45.7453 42.3917L47.6747 47.8884L40.5686 52.6986L33.4605 42.5858Z" fill="#3F3D56"/>
<path d="M23.0439 17.5812C27.0803 17.5812 30.3524 14.309 30.3524 10.2726C30.3524 6.23625 27.0803 2.96411 23.0439 2.96411C19.0075 2.96411 15.7354 6.23625 15.7354 10.2726C15.7354 14.309 19.0075 17.5812 23.0439 17.5812Z" fill="#FFB6B6"/>
<path d="M17.7392 15.424C17.6754 15.3681 17.6152 15.3084 17.5528 15.2509C17.5506 15.2568 17.5502 15.2628 17.5479 15.2687L17.7392 15.424Z" fill="#2F2E41"/>
<path d="M29.0325 2.55483C28.6694 1.97027 28.1664 1.48533 27.569 1.14378C27.1606 0.945729 26.7315 0.793698 26.2896 0.690485L25.133 0.374908C24.5404 0.191529 23.9307 0.0687614 23.3132 0.00849775C22.4559 -0.0337976 21.6033 0.16033 20.8488 0.569675C20.0943 0.979019 19.4667 1.58784 19.0348 2.32963C18.6853 2.94945 18.405 3.72182 17.7306 3.94859C17.1867 4.13145 16.5934 3.87352 16.0219 3.92356C15.6869 3.97209 15.3692 4.10248 15.0967 4.30319C14.8242 4.50389 14.6055 4.7687 14.4598 5.07416C14.175 5.68885 14.0348 6.36065 14.05 7.03796C14.0275 8.57569 14.3277 10.1011 14.931 11.5157C15.5343 12.9303 16.4275 14.2027 17.5528 15.2509C17.7415 14.7537 17.4308 14.2169 17.1852 13.7412C16.9367 13.2599 16.7831 12.589 17.1993 12.2423C17.6624 11.8566 18.4045 12.2307 18.9522 11.9791C19.1274 11.8785 19.275 11.736 19.3818 11.5644C19.4885 11.3928 19.5511 11.1975 19.5639 10.9958C19.617 10.5962 19.5616 10.1899 19.5867 9.78759C19.6116 9.38876 19.7152 8.9988 19.8916 8.64024C20.068 8.28167 20.3137 7.96161 20.6145 7.69853C20.9153 7.43545 21.2652 7.23457 21.6441 7.10748C22.0229 6.9804 22.4232 6.92963 22.8218 6.9581C24.0685 7.04716 25.2784 7.89907 26.4782 7.5486C27.0414 7.38409 27.5217 6.96522 28.1041 6.89477C28.7492 6.81673 29.356 7.18078 29.9037 7.53033C30.1028 6.6852 30.1282 5.80846 29.9784 4.95323C29.8286 4.09799 29.5068 3.28205 29.0325 2.55483Z" fill="#2F2E41"/>
<path d="M54.3703 137.539L52.5106 134.551L52.1391 136.259C52.074 136.558 52.0088 136.862 51.9485 137.163C51.4203 136.712 50.8582 136.295 50.3083 135.894C48.6198 134.669 46.9321 133.442 45.2451 132.213L45.7734 135.277C46.099 137.163 46.4392 139.088 47.2448 140.813C47.3341 141.008 47.4305 141.201 47.5343 141.389H55.3835C55.4466 141.214 55.4903 141.033 55.5138 140.849C55.5157 140.837 55.5165 140.825 55.5161 140.813C55.6392 139.643 54.9927 138.54 54.3703 137.539Z" fill="#F0F0F0"/>
<path d="M190.436 134.312L187.062 128.891L186.389 131.988C186.27 132.531 186.152 133.082 186.043 133.629C185.085 132.811 184.065 132.054 183.068 131.328C180.005 129.105 176.944 126.879 173.884 124.651L174.842 130.208C175.433 133.629 176.05 137.121 177.511 140.249C177.673 140.603 177.848 140.954 178.036 141.295H192.274C192.388 140.978 192.467 140.649 192.51 140.315C192.513 140.293 192.515 140.271 192.514 140.249C192.737 138.127 191.565 136.127 190.436 134.312Z" fill="#F0F0F0"/>
<path d="M199.713 141.683L0.287358 141.757C0.211329 141.757 0.138491 141.727 0.0848075 141.673C0.0311244 141.619 0.000976562 141.546 0.000976562 141.47C0.000976562 141.394 0.0311244 141.321 0.0848075 141.267C0.138491 141.213 0.211329 141.183 0.287358 141.183L199.713 141.109C199.789 141.109 199.862 141.139 199.915 141.193C199.969 141.247 199.999 141.32 199.999 141.396C199.999 141.472 199.969 141.545 199.915 141.599C199.862 141.652 199.789 141.683 199.713 141.683Z" fill="#CACACA"/>
<path d="M62.5713 57.4812V126.716C62.572 127.598 62.9228 128.444 63.5467 129.068C64.1705 129.692 65.0165 130.043 65.8988 130.044H168.498C169.38 130.043 170.226 129.692 170.85 129.068C171.474 128.444 171.825 127.598 171.825 126.716V57.4812C171.823 56.5997 171.472 55.7549 170.848 55.1319C170.224 54.5089 169.379 54.1585 168.498 54.1573H65.8988C65.0173 54.1585 64.1721 54.5089 63.5484 55.1319C62.9248 55.7549 62.5734 56.5997 62.5713 57.4812Z" fill="#3F3D56"/>
<path d="M64.9775 58.3426V125.862C64.9784 126.333 65.166 126.785 65.4993 127.119C65.8327 127.452 66.2845 127.64 66.7559 127.64H167.643C168.114 127.64 168.566 127.452 168.9 127.119C169.233 126.785 169.421 126.333 169.421 125.862V58.3426C169.421 57.8706 169.234 57.418 168.901 57.0839C168.567 56.7498 168.115 56.5616 167.643 56.5605H66.7559C66.2839 56.5616 65.8316 56.7498 65.4982 57.0839C65.1648 57.418 64.9776 57.8706 64.9775 58.3426Z" fill="white"/>
<path d="M60.4252 140.219C60.6132 140.454 60.8521 140.644 61.124 140.775C61.3959 140.905 61.6938 140.971 61.9952 140.97H171.855C172.155 140.969 172.452 140.902 172.723 140.773C172.994 140.643 173.233 140.455 173.422 140.222C173.611 139.988 173.746 139.716 173.817 139.424C173.888 139.132 173.892 138.828 173.831 138.534L172.125 130.433C172.055 130.103 171.902 129.796 171.683 129.539C171.463 129.283 171.182 129.085 170.867 128.965C170.638 128.875 170.395 128.829 170.149 128.829H63.6938C63.4483 128.829 63.205 128.875 62.9765 128.965C62.6608 129.085 62.3803 129.283 62.1605 129.539C61.9406 129.796 61.7884 130.103 61.7178 130.433L60.0124 138.534C59.9517 138.828 59.9573 139.131 60.0287 139.423C60.1001 139.714 60.2356 139.986 60.4252 140.219Z" fill="#2F2E41"/>
<path d="M166.103 132.318H169.251C169.316 132.318 169.369 132.266 169.369 132.201V130.406C169.369 130.341 169.316 130.288 169.251 130.288H166.103C166.038 130.288 165.986 130.341 165.986 130.406V132.201C165.986 132.266 166.038 132.318 166.103 132.318Z" fill="#3F3D56"/>
<path d="M159.336 132.318H162.484C162.549 132.318 162.602 132.266 162.602 132.201V130.406C162.602 130.341 162.549 130.288 162.484 130.288H159.336C159.271 130.288 159.218 130.341 159.218 130.406V132.201C159.218 132.266 159.271 132.318 159.336 132.318Z" fill="#3F3D56"/>
<path d="M152.569 132.318H155.717C155.782 132.318 155.835 132.266 155.835 132.201V130.406C155.835 130.341 155.782 130.288 155.717 130.288H152.569C152.504 130.288 152.451 130.341 152.451 130.406V132.201C152.451 132.266 152.504 132.318 152.569 132.318Z" fill="#3F3D56"/>
<path d="M145.802 132.318H148.95C149.015 132.318 149.067 132.266 149.067 132.201V130.406C149.067 130.341 149.015 130.288 148.95 130.288H145.802C145.736 130.288 145.684 130.341 145.684 130.406V132.201C145.684 132.266 145.736 132.318 145.802 132.318Z" fill="#3F3D56"/>
<path d="M139.034 132.318H142.182C142.247 132.318 142.3 132.266 142.3 132.201V130.406C142.3 130.341 142.247 130.288 142.182 130.288H139.034C138.969 130.288 138.916 130.341 138.916 130.406V132.201C138.916 132.266 138.969 132.318 139.034 132.318Z" fill="#3F3D56"/>
<path d="M132.267 132.318H135.415C135.48 132.318 135.533 132.266 135.533 132.201V130.406C135.533 130.341 135.48 130.288 135.415 130.288H132.267C132.202 130.288 132.15 130.341 132.15 130.406V132.201C132.15 132.266 132.202 132.318 132.267 132.318Z" fill="#3F3D56"/>
<path d="M125.5 132.318H128.648C128.713 132.318 128.766 132.266 128.766 132.201V130.406C128.766 130.341 128.713 130.288 128.648 130.288H125.5C125.435 130.288 125.382 130.341 125.382 130.406V132.201C125.382 132.266 125.435 132.318 125.5 132.318Z" fill="#3F3D56"/>
<path d="M118.732 132.318H121.88C121.945 132.318 121.998 132.266 121.998 132.201V130.406C121.998 130.341 121.945 130.288 121.88 130.288H118.732C118.667 130.288 118.614 130.341 118.614 130.406V132.201C118.614 132.266 118.667 132.318 118.732 132.318Z" fill="#3F3D56"/>
<path d="M111.966 132.318H115.114C115.179 132.318 115.231 132.266 115.231 132.201V130.406C115.231 130.341 115.179 130.288 115.114 130.288H111.966C111.901 130.288 111.848 130.341 111.848 130.406V132.201C111.848 132.266 111.901 132.318 111.966 132.318Z" fill="#3F3D56"/>
<path d="M105.198 132.318H108.346C108.411 132.318 108.464 132.266 108.464 132.201V130.406C108.464 130.341 108.411 130.288 108.346 130.288H105.198C105.133 130.288 105.08 130.341 105.08 130.406V132.201C105.08 132.266 105.133 132.318 105.198 132.318Z" fill="#3F3D56"/>
<path d="M98.4304 132.318H101.579C101.644 132.318 101.696 132.266 101.696 132.201V130.406C101.696 130.341 101.644 130.288 101.579 130.288H98.4304C98.3654 130.288 98.3127 130.341 98.3127 130.406V132.201C98.3127 132.266 98.3654 132.318 98.4304 132.318Z" fill="#3F3D56"/>
<path d="M91.6638 132.318H94.8119C94.877 132.318 94.9297 132.266 94.9297 132.201V130.406C94.9297 130.341 94.877 130.288 94.8119 130.288H91.6638C91.5988 130.288 91.5461 130.341 91.5461 130.406V132.201C91.5461 132.266 91.5988 132.318 91.6638 132.318Z" fill="#3F3D56"/>
<path d="M84.8963 132.318H88.0444C88.1094 132.318 88.1621 132.266 88.1621 132.201V130.406C88.1621 130.341 88.1094 130.288 88.0444 130.288H84.8963C84.8312 130.288 84.7785 130.341 84.7785 130.406V132.201C84.7785 132.266 84.8312 132.318 84.8963 132.318Z" fill="#3F3D56"/>
<path d="M78.1287 132.318H81.2768C81.3418 132.318 81.3945 132.266 81.3945 132.201V130.406C81.3945 130.341 81.3418 130.288 81.2768 130.288H78.1287C78.0636 130.288 78.0109 130.341 78.0109 130.406V132.201C78.0109 132.266 78.0636 132.318 78.1287 132.318Z" fill="#3F3D56"/>
<path d="M71.3621 132.318H74.5102C74.5752 132.318 74.6279 132.266 74.6279 132.201V130.406C74.6279 130.341 74.5752 130.288 74.5102 130.288H71.3621C71.297 130.288 71.2443 130.341 71.2443 130.406V132.201C71.2443 132.266 71.297 132.318 71.3621 132.318Z" fill="#3F3D56"/>
<path d="M64.5945 132.318H67.7426C67.8076 132.318 67.8604 132.266 67.8604 132.201V130.406C67.8604 130.341 67.8076 130.288 67.7426 130.288H64.5945C64.5295 130.288 64.4767 130.341 64.4767 130.406V132.201C64.4767 132.266 64.5295 132.318 64.5945 132.318Z" fill="#3F3D56"/>
<path d="M166.183 135.702H169.331C169.396 135.702 169.449 135.649 169.449 135.584V133.79C169.449 133.725 169.396 133.672 169.331 133.672H166.183C166.118 133.672 166.066 133.725 166.066 133.79V135.584C166.066 135.649 166.118 135.702 166.183 135.702Z" fill="#3F3D56"/>
<path d="M159.416 135.702H162.564C162.629 135.702 162.682 135.649 162.682 135.584V133.79C162.682 133.725 162.629 133.672 162.564 133.672H159.416C159.351 133.672 159.298 133.725 159.298 133.79V135.584C159.298 135.649 159.351 135.702 159.416 135.702Z" fill="#3F3D56"/>
<path d="M152.648 135.702H155.796C155.861 135.702 155.914 135.649 155.914 135.584V133.79C155.914 133.725 155.861 133.672 155.796 133.672H152.648C152.583 133.672 152.53 133.725 152.53 133.79V135.584C152.53 135.649 152.583 135.702 152.648 135.702Z" fill="#3F3D56"/>
<path d="M145.882 135.702H149.03C149.095 135.702 149.147 135.649 149.147 135.584V133.79C149.147 133.725 149.095 133.672 149.03 133.672H145.882C145.817 133.672 145.764 133.725 145.764 133.79V135.584C145.764 135.649 145.817 135.702 145.882 135.702Z" fill="#3F3D56"/>
<path d="M139.114 135.702H142.262C142.327 135.702 142.38 135.649 142.38 135.584V133.79C142.38 133.725 142.327 133.672 142.262 133.672H139.114C139.049 133.672 138.996 133.725 138.996 133.79V135.584C138.996 135.649 139.049 135.702 139.114 135.702Z" fill="#3F3D56"/>
<path d="M132.346 135.702H135.495C135.56 135.702 135.612 135.649 135.612 135.584V133.79C135.612 133.725 135.56 133.672 135.495 133.672H132.346C132.281 133.672 132.229 133.725 132.229 133.79V135.584C132.229 135.649 132.281 135.702 132.346 135.702Z" fill="#3F3D56"/>
<path d="M125.58 135.702H128.728C128.793 135.702 128.846 135.649 128.846 135.584V133.79C128.846 133.725 128.793 133.672 128.728 133.672H125.58C125.515 133.672 125.462 133.725 125.462 133.79V135.584C125.462 135.649 125.515 135.702 125.58 135.702Z" fill="#3F3D56"/>
<path d="M118.812 135.702H121.96C122.025 135.702 122.078 135.649 122.078 135.584V133.79C122.078 133.725 122.025 133.672 121.96 133.672H118.812C118.747 133.672 118.695 133.725 118.695 133.79V135.584C118.695 135.649 118.747 135.702 118.812 135.702Z" fill="#3F3D56"/>
<path d="M112.046 135.702H115.194C115.259 135.702 115.312 135.649 115.312 135.584V133.79C115.312 133.725 115.259 133.672 115.194 133.672H112.046C111.981 133.672 111.928 133.725 111.928 133.79V135.584C111.928 135.649 111.981 135.702 112.046 135.702Z" fill="#3F3D56"/>
<path d="M105.278 135.702H108.426C108.491 135.702 108.544 135.649 108.544 135.584V133.79C108.544 133.725 108.491 133.672 108.426 133.672H105.278C105.213 133.672 105.16 133.725 105.16 133.79V135.584C105.16 135.649 105.213 135.702 105.278 135.702Z" fill="#3F3D56"/>
<path d="M98.5105 135.702H101.659C101.724 135.702 101.776 135.649 101.776 135.584V133.79C101.776 133.725 101.724 133.672 101.659 133.672H98.5105C98.4455 133.672 98.3928 133.725 98.3928 133.79V135.584C98.3928 135.649 98.4455 135.702 98.5105 135.702Z" fill="#3F3D56"/>
<path d="M91.7439 135.702H94.892C94.9571 135.702 95.0098 135.649 95.0098 135.584V133.79C95.0098 133.725 94.9571 133.672 94.892 133.672H91.7439C91.6789 133.672 91.6262 133.725 91.6262 133.79V135.584C91.6262 135.649 91.6789 135.702 91.7439 135.702Z" fill="#3F3D56"/>
<path d="M84.9763 135.702H88.1244C88.1895 135.702 88.2422 135.649 88.2422 135.584V133.79C88.2422 133.725 88.1895 133.672 88.1244 133.672H84.9763C84.9113 133.672 84.8586 133.725 84.8586 133.79V135.584C84.8586 135.649 84.9113 135.702 84.9763 135.702Z" fill="#3F3D56"/>
<path d="M78.2088 135.702H81.3569C81.4219 135.702 81.4746 135.649 81.4746 135.584V133.79C81.4746 133.725 81.4219 133.672 81.3569 133.672H78.2088C78.1437 133.672 78.091 133.725 78.091 133.79V135.584C78.091 135.649 78.1437 135.702 78.2088 135.702Z" fill="#3F3D56"/>
<path d="M71.4422 135.702H74.5902C74.6553 135.702 74.708 135.649 74.708 135.584V133.79C74.708 133.725 74.6553 133.672 74.5902 133.672H71.4422C71.3771 133.672 71.3244 133.725 71.3244 133.79V135.584C71.3244 135.649 71.3771 135.702 71.4422 135.702Z" fill="#3F3D56"/>
<path d="M64.6746 135.702H67.8227C67.8877 135.702 67.9404 135.649 67.9404 135.584V133.79C67.9404 133.725 67.8877 133.672 67.8227 133.672H64.6746C64.6095 133.672 64.5568 133.725 64.5568 133.79V135.584C64.5568 135.649 64.6095 135.702 64.6746 135.702Z" fill="#3F3D56"/>
<path d="M102.537 139.762H129.371C129.436 139.762 129.488 139.71 129.488 139.645V137.85C129.488 137.785 129.436 137.732 129.371 137.732H102.537C102.472 137.732 102.419 137.785 102.419 137.85V139.645C102.419 139.71 102.472 139.762 102.537 139.762Z" fill="#3F3D56"/>
<path d="M140.183 97.461C140.172 103.161 138.029 108.65 134.175 112.85C130.322 117.05 125.037 119.656 119.359 120.157C113.682 120.658 108.022 119.017 103.493 115.556C98.964 112.095 95.8934 107.066 94.8848 101.456C93.8761 95.8462 95.0025 90.062 98.0424 85.2405C101.082 80.4191 105.816 76.9092 111.312 75.4008C116.809 73.8925 122.671 74.4948 127.746 77.0894C132.821 79.684 136.742 84.0832 138.738 89.422C138.787 89.5561 138.836 89.6902 138.883 89.8255V89.8268C139.094 90.4218 139.279 91.0279 139.44 91.645C139.935 93.544 140.185 95.4986 140.183 97.461Z" fill="#3F3D56"/>
<path d="M114.685 81.9546C113.652 81.3961 112.505 81.0808 111.332 81.0328C110.159 80.9848 108.99 81.2054 107.915 81.6777C106.969 82.0896 105.972 82.8286 105.656 84.163C106.933 83.4093 108.586 84.6001 108.915 86.5104L108.838 86.5316C108.665 87.8547 109.052 89.2953 109.802 90.1158C109.858 89.7456 109.996 89.3924 110.205 89.082C110.414 88.7716 110.69 88.5117 111.012 88.3212C111.564 87.9589 112.173 87.6957 112.594 87.0729C113.093 86.3346 113.219 85.2556 113.417 84.2713C113.616 83.2869 113.991 82.2289 114.685 81.9546Z" fill="#36A9C0"/>
<path d="M107.536 93.2143C107.183 93.7454 106.71 94.0787 106.286 94.4937C105.797 94.9388 105.476 95.539 105.377 96.1931C105.324 96.6553 105.407 97.1252 105.395 97.5925C105.384 98.0599 105.228 98.5859 104.91 98.7021C104.408 98.8834 104.025 97.9513 103.509 97.8862C103.099 97.8351 102.731 98.4799 102.849 99.0392C102.968 99.5984 103.526 99.8461 103.846 99.481C104.136 99.9674 103.932 100.85 103.497 100.999C103.451 101.306 103.405 101.611 103.36 101.917C102.259 101.147 101.147 100.365 100.211 99.2371C99.1704 97.9938 98.5248 96.4678 98.3573 94.855C98.236 93.559 98.4161 92.0766 97.8211 91.0794C97.3448 90.2814 96.5276 90.1051 95.7921 90.155C95.6581 90.1639 95.5227 90.1792 95.3887 90.1958C95.8224 88.8931 96.3733 87.6324 97.0345 86.4291C97.1841 86.3649 97.3232 86.2784 97.4469 86.1725C98.1313 85.5915 98.4352 84.4155 98.9906 83.6022C99.0264 83.5499 99.0634 83.4988 99.1017 83.449C99.6699 82.7071 100.431 82.3254 101.166 81.9704C102.794 81.18 104.47 80.3795 106.188 80.4893L105.699 80.5365C105.128 82.1351 104.557 83.7337 103.986 85.3323C103.899 85.5775 103.811 85.823 103.723 86.0691C103.398 86.9782 103.064 87.946 103.114 88.9637C103.143 89.5663 103.352 90.2099 103.751 90.4167C104.122 90.6082 104.528 90.3733 104.887 90.1409C105.039 90.0439 105.19 89.9468 105.342 89.8485C105.887 89.4974 106.491 89.1373 107.067 89.3722C107.594 89.5868 107.983 90.3031 108.057 91.0756C108.125 91.8265 107.942 92.5787 107.536 93.2143Z" fill="#36A9C0"/>
<path d="M110.779 104.128C109.187 103.148 107.595 102.167 106.002 101.187L106.029 101.117C105.039 101.495 104.628 103.254 104.792 104.694C104.955 106.133 105.51 107.419 105.79 108.822C106.168 110.741 106.026 112.726 105.377 114.571C107.471 112.222 109.324 109.668 110.909 106.949C111.13 106.606 111.299 106.233 111.409 105.84C111.526 105.421 111.484 104.974 111.292 104.584C111.162 104.392 110.985 104.235 110.779 104.128Z" fill="#36A9C0"/>
<path d="M104.495 86.2915C104.308 86.693 104.279 87.1502 104.414 87.5719C104.571 87.9118 104.856 88.1757 105.207 88.3064L106.087 88.7425C106.38 88.8876 106.695 89.0341 106.993 88.9147C107.353 88.7708 107.603 88.2065 107.538 87.6828C107.47 87.1254 107.118 86.7419 106.793 86.4154C106.339 85.9585 105.884 85.5016 105.429 85.0447L105.173 85.3586C104.896 85.6289 104.666 85.9444 104.495 86.2915Z" fill="#36A9C0"/>
<path d="M135.466 92.2502C135.862 92.3435 136.258 92.4367 136.654 92.5299C136.585 93.8667 135.922 95.104 135.033 95.5521C134.663 95.7386 134.251 95.8075 133.944 96.1561C133.667 96.4728 133.527 96.9656 133.398 97.4368C133.172 98.2591 132.946 99.0813 132.72 99.9036C132.477 100.79 132.166 101.774 131.535 102.093C130.993 102.368 130.374 102.032 129.958 101.469C129.542 100.906 129.288 100.149 129.041 99.4108C129.056 100.215 128.682 101.004 128.152 101.284C127.621 101.563 126.975 101.311 126.62 100.686C126.365 100.238 126.259 99.647 126.009 99.1924C125.758 98.7379 125.234 98.4774 124.96 98.9039C124.78 99.1873 124.803 99.6214 124.714 99.9815C124.669 100.221 124.551 100.44 124.375 100.608C124.2 100.777 123.977 100.887 123.736 100.923C123.515 100.917 123.297 100.867 123.095 100.775C122.894 100.683 122.714 100.551 122.565 100.388C121.783 99.5877 121.274 98.5612 121.111 97.4546C121 96.9241 121.014 96.3751 121.152 95.8509C121.309 95.3543 121.688 94.9712 122.065 95.0657C122.312 94.5422 121.823 93.8476 121.383 93.9089C120.941 93.9701 120.595 94.4438 120.232 94.8078C119.871 95.1716 119.365 95.436 119.001 95.0746C119.006 95.1434 118.996 95.2122 118.972 95.2769C118.948 95.3416 118.911 95.4007 118.864 95.4504C118.816 95.5002 118.759 95.5396 118.695 95.5661C118.632 95.5926 118.563 95.6057 118.494 95.6045C118.253 95.535 118.028 95.4159 117.834 95.2546C117.001 94.735 115.942 95.0797 115.35 96.0629C115.72 94.4873 116.263 92.6793 117.4 92.309C117.865 92.157 118.372 92.2822 118.811 92.0191C119.589 91.5531 119.746 89.7923 119.074 89.0658C119.16 89.7527 119.143 90.5546 118.78 91.0245C118.418 91.4944 117.657 91.1879 117.703 90.4933C117.693 90.591 117.652 90.6829 117.586 90.7559C117.52 90.8289 117.433 90.8792 117.337 90.8996C117.241 90.92 117.141 90.9095 117.051 90.8695C116.961 90.8296 116.886 90.7623 116.837 90.6772C116.596 90.3095 116.616 89.7081 116.787 89.2688C116.964 88.871 117.217 88.5118 117.532 88.2116C118.138 87.5617 118.754 86.9041 119.456 86.4955C120.159 86.087 120.972 85.9491 121.676 86.3551C122.048 86.5696 122.375 86.9271 122.754 87.1161C122.845 87.1725 122.946 87.21 123.052 87.2265C123.157 87.243 123.265 87.2382 123.369 87.2122C123.473 87.1863 123.57 87.1397 123.656 87.0754C123.741 87.0111 123.813 86.9303 123.866 86.8377C124.148 86.3423 124.016 85.6069 124.12 84.9876C124.308 83.8934 125.402 83.3813 126.009 84.104C125.555 83.9878 125.087 84.5241 125.031 85.174C124.973 85.8239 125.301 86.4802 125.741 86.6769C126.479 87.0037 127.201 86.1814 127.759 85.4205C128.341 84.6237 128.925 83.8274 129.508 83.0315C129.602 82.896 129.706 82.7687 129.821 82.651C130.004 82.4727 130.248 82.3707 130.503 82.3654C130.759 82.3602 131.006 82.4523 131.196 82.6229C131.786 83.1043 132.063 84.0913 132.547 84.7706C133.25 85.7575 134.3 85.9976 135.279 86.1891C136.008 86.3308 136.737 86.4734 137.467 86.6169C137.954 87.5221 138.378 88.4593 138.737 89.4221C137.399 90.0324 136.264 91.014 135.466 92.2502Z" fill="#36A9C0"/>
<path d="M139.44 91.645C139.29 92.0859 139.208 92.547 139.197 93.0125C138.571 92.2489 138.472 90.8176 138.883 89.8268C139.094 90.4218 139.279 91.0279 139.44 91.645Z" fill="#36A9C0"/>
<path d="M137.824 107.613C137.277 108.724 136.64 109.788 135.921 110.796C135.462 110.6 134.967 110.951 134.537 111.28C134.088 111.625 133.548 111.961 133.087 111.647C132.615 111.325 132.463 110.425 132.613 109.711C132.785 109.053 133.085 108.435 133.496 107.893C133.88 107.321 134.289 106.727 134.822 106.505C135.356 106.283 136.041 106.597 136.197 107.355L136.575 107.342C136.363 107.051 136.474 106.449 136.759 106.343C137.087 106.219 137.372 106.67 137.566 107.068C137.653 107.248 137.741 107.429 137.824 107.613Z" fill="#36A9C0"/>
<path d="M123.348 102.22C122.536 102.271 121.892 101.271 121.465 100.287C121.037 99.3033 120.647 98.1782 119.914 97.6774C119.495 97.3913 119.018 97.352 118.563 97.2134C118.306 97.1483 118.067 97.0227 117.868 96.8471C117.668 96.6715 117.513 96.4509 117.416 96.2035L116.901 95.9954C116.18 96.3557 115.52 96.8264 114.944 97.3904C114.287 98.0891 113.877 98.9847 113.779 99.9391C113.68 100.971 114.044 102.121 114.723 102.508C115.26 102.814 115.884 102.621 116.428 102.902C117.107 103.252 117.511 104.269 117.663 105.274C117.816 106.278 117.777 107.322 117.886 108.338C117.996 109.353 118.297 110.41 118.919 110.931C119.699 111.582 120.843 111.041 121.192 109.855C121.364 109.274 121.358 108.617 121.486 108.014C121.712 106.95 122.322 106.161 122.805 105.289C123.289 104.417 123.67 103.232 123.348 102.22Z" fill="#36A9C0"/>
<path d="M115.321 91.7714C115.397 91.8411 115.467 91.9162 115.532 91.996C115.6 92.1121 115.634 92.2445 115.632 92.3787C115.63 92.513 115.591 92.6441 115.519 92.7579C115.617 92.7523 115.713 92.7265 115.8 92.6821C115.888 92.6377 115.965 92.5756 116.027 92.4999C116.175 92.331 116.306 92.1473 116.416 91.9516C116.468 91.8846 116.505 91.8073 116.525 91.7249C116.545 91.6424 116.547 91.5567 116.531 91.4734C116.493 91.3639 116.402 91.3171 116.338 91.2348C116.25 91.0737 116.19 90.8989 116.16 90.7177C116.125 90.5478 116.043 90.3912 115.924 90.2654C115.804 90.1395 115.652 90.0495 115.484 90.0054L115.525 90.0132C115.456 90.0543 115.401 90.1161 115.369 90.1898C115.336 90.2636 115.328 90.3456 115.344 90.4245C115.369 90.5838 115.471 90.7161 115.461 90.8786C115.446 91.1123 115.213 91.222 115.198 91.4557C115.196 91.5729 115.24 91.6863 115.321 91.7714Z" fill="#36A9C0"/>
<path d="M113.929 87.8004L113.932 87.7997C113.957 87.7769 113.98 87.7522 114.002 87.7258L113.929 87.8004Z" fill="#36A9C0"/>
<path d="M114.173 88.8972C114.27 88.8116 114.342 88.7008 114.381 88.5769C114.42 88.4531 114.424 88.3209 114.393 88.1949C114.334 87.9292 114.125 87.7505 113.933 87.7996C113.877 87.8563 113.807 87.8978 113.731 87.9203C113.655 87.9428 113.574 87.9455 113.496 87.9281C113.377 87.8975 113.246 87.8185 113.143 87.9082C113.084 87.9752 113.042 88.056 113.023 88.1431C112.984 88.2605 112.946 88.3779 112.908 88.4952C112.89 88.5373 112.885 88.5839 112.894 88.6287C112.902 88.6466 112.913 88.6624 112.929 88.6745C112.944 88.6865 112.962 88.6945 112.981 88.6976C113.21 88.7652 113.44 88.8329 113.669 88.9005C113.748 88.9369 113.834 88.9554 113.921 88.9549C114.008 88.9543 114.094 88.9346 114.173 88.8972Z" fill="#36A9C0"/>
<path d="M131.492 104.04C131.386 103.867 131.28 103.693 131.174 103.519C131.069 103.318 130.927 103.14 130.754 102.993C130.716 102.961 130.673 102.937 130.625 102.923C130.578 102.908 130.528 102.903 130.479 102.908C130.43 102.913 130.382 102.928 130.338 102.952C130.295 102.975 130.256 103.007 130.226 103.046L130.238 103.145C130.522 103.45 130.716 103.827 130.797 104.236C130.821 104.413 130.813 104.597 130.834 104.775C130.836 104.857 130.855 104.939 130.889 105.014C130.922 105.09 130.971 105.158 131.031 105.215C131.198 105.326 131.394 105.162 131.513 104.961C131.619 104.796 131.667 104.6 131.648 104.405C131.621 104.274 131.568 104.15 131.492 104.04Z" fill="#36A9C0"/>
<path d="M133.155 104.266C133.176 104.104 133.162 103.939 133.117 103.782C133.109 103.569 133.165 103.359 133.278 103.178C133.391 103.008 133.476 102.821 133.531 102.625C133.554 102.536 133.55 102.441 133.519 102.354C133.484 102.275 133.399 102.239 133.35 102.302L133.454 102.369C133.313 102.344 133.168 102.351 133.031 102.39C132.952 102.42 132.882 102.468 132.826 102.531C132.77 102.594 132.73 102.67 132.71 102.751C132.692 102.879 132.664 103.004 132.625 103.127C132.563 103.255 132.443 103.297 132.367 103.41C132.315 103.509 132.289 103.62 132.291 103.732C132.293 103.844 132.323 103.954 132.378 104.052C132.473 104.212 132.624 104.331 132.802 104.386C132.929 104.431 133.097 104.434 133.155 104.266Z" fill="#36A9C0"/>
<path d="M136.119 105.16C136.165 105.28 136.226 105.393 136.302 105.497C136.444 105.64 136.637 105.552 136.809 105.517C136.965 105.493 137.125 105.511 137.272 105.57C137.418 105.629 137.546 105.726 137.642 105.852C137.575 105.519 137.43 105.207 137.218 104.942C137.005 104.677 136.732 104.467 136.422 104.33C136.019 104.19 135.594 104.124 135.168 104.134L135.095 104.152C135.28 104.693 135.863 104.681 136.119 105.16Z" fill="#36A9C0"/>
<path d="M123.57 106.266L123.571 106.268L123.593 106.227L123.57 106.266Z" fill="#36A9C0"/>
<path d="M123.121 107.136C123.023 107.313 122.939 107.499 122.869 107.689C122.777 107.998 122.716 108.316 122.687 108.637C122.664 108.82 122.657 109.053 122.771 109.142C122.804 109.164 122.844 109.173 122.883 109.168C122.922 109.162 122.958 109.143 122.983 109.113C123.047 109.046 123.099 108.969 123.137 108.884C123.362 108.497 123.537 108.083 123.657 107.651C123.782 107.193 123.752 106.707 123.572 106.268C123.422 106.557 123.272 106.846 123.121 107.136Z" fill="#36A9C0"/>
<path d="M118.785 83.9588C118.857 84.0286 118.947 84.076 119.045 84.0951C119.143 84.1142 119.244 84.1043 119.337 84.0665C119.528 83.9828 119.704 83.8669 119.856 83.7237C119.981 83.6306 120.088 83.5141 120.17 83.3806C120.215 83.3008 120.244 83.213 120.255 83.122C120.266 83.031 120.259 82.9388 120.234 82.8505C120.199 82.766 120.143 82.6918 120.071 82.635C120 82.5782 119.914 82.5406 119.824 82.5259C119.569 82.4503 119.315 82.3748 119.06 82.2993L119.244 82.1333C119.055 82.0316 118.845 82.2204 118.727 82.4541C118.651 82.6067 118.598 82.7697 118.57 82.9378C118.529 83.1134 118.528 83.2958 118.565 83.4721C118.602 83.6484 118.677 83.8145 118.785 83.9588Z" fill="#36A9C0"/>
<path d="M123.281 82.4496C123.353 82.5287 123.452 82.5776 123.558 82.5863C123.665 82.5949 123.771 82.5627 123.854 82.4963C123.926 82.4422 123.986 82.3736 124.03 82.2949C124.074 82.2162 124.1 82.1292 124.108 82.0395C124.126 81.8392 124.027 81.6166 123.885 81.5993L123.918 81.4118C123.645 81.3626 123.31 81.3527 123.164 81.6836C123.115 81.8104 123.1 81.9478 123.12 82.0822C123.141 82.2167 123.196 82.3433 123.281 82.4496Z" fill="#36A9C0"/>
<path d="M163.914 68.7839H70.4857C70.4217 68.7825 70.3607 68.7561 70.316 68.7103C70.2712 68.6645 70.2461 68.603 70.2461 68.539C70.2461 68.4749 70.2712 68.4135 70.316 68.3677C70.3607 68.3219 70.4217 68.2955 70.4857 68.2941H163.914C163.978 68.2955 164.039 68.3219 164.084 68.3677C164.129 68.4135 164.154 68.4749 164.154 68.539C164.154 68.603 164.129 68.6645 164.084 68.7103C164.039 68.7561 163.978 68.7825 163.914 68.7839Z" fill="#CACACA"/>
<path d="M75.8776 65.355C77.333 65.355 78.5129 64.1488 78.5129 62.6609C78.5129 61.173 77.333 59.9668 75.8776 59.9668C74.4221 59.9668 73.2422 61.173 73.2422 62.6609C73.2422 64.1488 74.4221 65.355 75.8776 65.355Z" fill="#3F3D56"/>
<path d="M84.9821 65.355C86.4375 65.355 87.6174 64.1488 87.6174 62.6609C87.6174 61.173 86.4375 59.9668 84.9821 59.9668C83.5266 59.9668 82.3467 61.173 82.3467 62.6609C82.3467 64.1488 83.5266 65.355 84.9821 65.355Z" fill="#3F3D56"/>
<path d="M94.0856 65.355C95.541 65.355 96.7209 64.1488 96.7209 62.6609C96.7209 61.173 95.541 59.9668 94.0856 59.9668C92.6301 59.9668 91.4502 61.173 91.4502 62.6609C91.4502 64.1488 92.6301 65.355 94.0856 65.355Z" fill="#3F3D56"/>
<path d="M158.459 60.6345H151.992C151.864 60.6371 151.742 60.6898 151.652 60.7813C151.562 60.8729 151.512 60.996 151.512 61.1242C151.512 61.2524 151.562 61.3755 151.652 61.4671C151.742 61.5586 151.864 61.6113 151.992 61.6139H158.459C158.587 61.6113 158.709 61.5586 158.799 61.4671C158.889 61.3755 158.939 61.2524 158.939 61.1242C158.939 60.996 158.889 60.8729 158.799 60.7813C158.709 60.6898 158.587 60.6371 158.459 60.6345Z" fill="#3F3D56"/>
<path d="M158.459 62.4727H151.992C151.864 62.4752 151.742 62.5279 151.652 62.6195C151.562 62.711 151.512 62.8341 151.512 62.9623C151.512 63.0905 151.562 63.2136 151.652 63.3052C151.742 63.3967 151.864 63.4494 151.992 63.452H158.459C158.587 63.4494 158.709 63.3967 158.799 63.3052C158.889 63.2136 158.939 63.0905 158.939 62.9623C158.939 62.8341 158.889 62.711 158.799 62.6195C158.709 62.5279 158.587 62.4752 158.459 62.4727Z" fill="#3F3D56"/>
<path d="M158.459 64.3083H151.992C151.864 64.3109 151.742 64.3636 151.652 64.4552C151.562 64.5467 151.512 64.6698 151.512 64.798C151.512 64.9262 151.562 65.0493 151.652 65.1409C151.742 65.2324 151.864 65.2851 151.992 65.2877H158.459C158.587 65.2851 158.709 65.2324 158.799 65.1409C158.889 65.0493 158.939 64.9262 158.939 64.798C158.939 64.6698 158.889 64.5467 158.799 64.4552C158.709 64.3636 158.587 64.3109 158.459 64.3083Z" fill="#3F3D56"/>
<g opacity="0.35">
<path d="M166.39 98.5934C167.894 97.9378 164.844 97.5561 161.384 97.4306C157.924 97.3051 153.739 97.312 151.528 96.9551C149.389 96.6099 149.547 95.9961 149.367 95.4399C149.187 94.8838 148.365 94.3136 145.028 94.19C140.87 94.0359 134.013 94.6289 130.874 94.2729C127.945 93.9407 129.686 92.8986 125.415 92.8587C122.976 92.8359 119.834 93.1795 117.12 93.2624C115.197 93.3459 113.269 93.2454 111.365 92.9623C110.042 92.7456 109.121 92.4709 107.632 92.2794C103.723 91.7769 96.0765 91.9458 89.2513 92.5899C82.4262 93.234 76.5758 94.2896 73.2763 95.3351C69.9769 96.3806 69.0653 97.41 69.8339 98.2829C70.3247 98.8403 71.5805 99.3615 74.627 99.5855C80.3251 100.004 90.4702 99.2833 96.3582 99.6645C99.6399 99.8769 101.096 100.404 103.975 100.692C107.068 101.001 111.597 101.018 116.046 101.011C125.31 100.995 134.81 100.9 144.498 100.725C148.545 100.653 152.784 100.558 157.09 100.21C161.396 99.8629 165.787 99.1926 166.696 98.5641" fill="white"/>
</g>
</g>
<defs>
<clipPath id="clip0_816_3216">
<rect width="200" height="141.757" fill="white"/>
</clipPath>
</defs>
</svg>
