<svg width="200" height="123" viewBox="0 0 200 123" fill="none" xmlns="http://www.w3.org/2000/svg">
<g clip-path="url(#clip0_816_3298)">
<path d="M120.68 108.548L113.465 110.483L120.732 106.015C120.575 98.8915 118.089 91.505 118.089 91.505C118.089 91.505 102.56 96.0038 98.4842 103.794C94.4085 111.585 97.6167 116.728 103.33 119.717C109.043 122.705 115.097 122.408 119.173 114.618C120.08 112.884 120.529 110.776 120.68 108.548Z" fill="#F2F2F2"/>
<path d="M112.086 110.071L111.885 110.455C109.527 114.907 106.953 117.995 104.193 119.675C104.153 119.7 104.112 119.722 104.072 119.748L103.96 119.56L103.854 119.379C106.878 117.588 109.416 114.148 111.473 110.266C111.541 110.142 111.609 110.015 111.674 109.887C112.531 108.236 113.302 106.516 113.988 104.812C114.042 104.68 114.096 104.546 114.149 104.412C115.042 102.157 115.787 99.9467 116.384 98C116.427 97.8626 116.468 97.7242 116.508 97.5877C117.505 94.2886 118.058 91.8104 118.177 91.2599C118.193 91.193 118.2 91.1557 118.202 91.1471L118.41 91.1902L118.412 91.1893L118.622 91.2335C118.62 91.2421 118.595 91.3674 118.543 91.5967C118.353 92.4559 117.812 94.776 116.921 97.7431C116.88 97.8767 116.839 98.0151 116.796 98.1525C116.313 99.7328 115.736 101.479 115.062 103.277C114.894 103.728 114.722 104.172 114.548 104.606C114.497 104.741 114.444 104.876 114.389 105.007C113.648 106.849 112.881 108.537 112.086 110.071Z" fill="white"/>
<path d="M116.921 97.743C116.784 97.6935 116.646 97.643 116.508 97.5877C116.133 97.438 115.765 97.2692 115.407 97.0819C113.88 96.2855 112.551 95.1566 111.518 93.7784C111.385 93.8374 111.253 93.8964 111.117 93.9563C112.196 95.4213 113.595 96.6204 115.208 97.4621C115.59 97.662 115.983 97.8415 116.384 98C116.52 98.0543 116.659 98.1048 116.796 98.1524C117.926 98.5517 119.111 98.7769 120.308 98.8206C120.281 98.6732 120.255 98.5288 120.23 98.3873C119.101 98.3367 117.986 98.1196 116.921 97.743Z" fill="white"/>
<path d="M114.548 104.606C114.413 104.545 114.28 104.48 114.149 104.411C114.108 104.392 114.066 104.371 114.026 104.35C112.373 103.485 110.953 102.232 109.888 100.7C108.822 99.1676 108.144 97.4003 107.909 95.5489C107.774 95.6213 107.64 95.6936 107.506 95.7689C107.772 97.6573 108.484 99.4552 109.584 101.013C110.683 102.572 112.138 103.846 113.827 104.73C113.881 104.758 113.934 104.786 113.988 104.812C114.122 104.879 114.255 104.944 114.389 105.007C116.474 105.965 118.789 106.302 121.06 105.979C121.058 105.835 121.056 105.691 121.052 105.546C118.839 105.872 116.579 105.545 114.548 104.606Z" fill="white"/>
<path d="M112.086 110.071C111.947 110.013 111.81 109.951 111.674 109.887C111.528 109.818 111.383 109.747 111.241 109.673C109.02 108.507 107.237 106.654 106.157 104.391C105.078 102.127 104.761 99.5751 105.253 97.1161C105.087 97.2254 104.922 97.3327 104.76 97.4439C104.349 99.9392 104.734 102.501 105.862 104.764C106.99 107.027 108.802 108.878 111.042 110.053C111.184 110.127 111.328 110.2 111.473 110.266C111.61 110.333 111.747 110.395 111.885 110.455C114.683 111.651 117.83 111.739 120.691 110.701C120.724 110.54 120.751 110.377 120.779 110.212C117.973 111.297 114.855 111.247 112.086 110.071Z" fill="white"/>
<path d="M25.9418 109.224L33.156 111.159L25.8896 106.691C26.046 99.5672 28.5323 92.1807 28.5323 92.1807C28.5323 92.1807 44.0615 96.6796 48.1372 104.47C52.2129 112.26 49.0047 117.403 43.2917 120.392C37.5788 123.381 31.5244 123.084 27.4488 115.294C26.5416 113.56 26.0927 111.452 25.9418 109.224Z" fill="#F2F2F2"/>
<path d="M34.5355 110.747L34.7364 111.131C37.0944 115.582 39.6692 118.671 42.4293 120.351C42.4691 120.376 42.5098 120.398 42.5496 120.423L42.6623 120.236L42.7683 120.054C39.7443 118.264 37.2062 114.824 35.1485 110.942C35.081 110.817 35.0124 110.691 34.9477 110.562C34.0911 108.911 33.3197 107.191 32.6339 105.487C32.5797 105.356 32.5263 105.221 32.473 105.087C31.5795 102.833 30.8345 100.622 30.2374 98.6757C30.1945 98.5383 30.1536 98.3999 30.1137 98.2634C29.1165 94.9643 28.5634 92.4861 28.4448 91.9355C28.4292 91.8686 28.4218 91.8313 28.4197 91.8228L28.2123 91.8659L28.2094 91.865L28 91.9091C28.0021 91.9177 28.0265 92.043 28.0787 92.2724C28.2691 93.1316 28.8097 95.4516 29.701 98.4187C29.7419 98.5523 29.7828 98.6907 29.8256 98.8281C30.3085 100.408 30.8857 102.155 31.5597 103.952C31.7283 104.404 31.8996 104.847 32.0735 105.282C32.125 105.417 32.1783 105.551 32.2325 105.683C32.9736 107.525 33.7413 109.213 34.5355 110.747Z" fill="white"/>
<path d="M26.3919 99.0629C26.3667 99.2045 26.3405 99.3489 26.3135 99.4962C27.5114 99.4526 28.6957 99.2273 29.8259 98.8281C29.9632 98.7805 30.1015 98.73 30.2377 98.6756C30.639 98.5172 31.0316 98.3376 31.4139 98.1378C33.0268 97.2961 34.426 96.097 35.5047 94.632C35.3693 94.5721 35.2367 94.5131 35.1042 94.4541C34.0712 95.8323 32.7422 96.9612 31.215 97.7575C30.8569 97.9448 30.4894 98.1137 30.114 98.2633C29.9759 98.3187 29.8376 98.3692 29.7013 98.4187C28.6359 98.7952 27.5207 99.0123 26.3919 99.0629Z" fill="white"/>
<path d="M25.5699 106.222C25.5658 106.367 25.5637 106.511 25.5615 106.655C27.8323 106.978 30.1482 106.641 32.2323 105.683C32.3665 105.62 32.4996 105.555 32.6337 105.487C32.6879 105.461 32.7411 105.433 32.7944 105.406C34.4841 104.522 35.9389 103.248 37.0382 101.689C38.1376 100.131 38.8498 98.333 39.1159 96.4446C38.9821 96.3694 38.8474 96.297 38.7127 96.2246C38.4781 98.0761 37.7993 99.8433 36.7342 101.376C35.669 102.908 34.2491 104.16 32.5954 105.025C32.5555 105.046 32.5137 105.068 32.4728 105.087C32.3416 105.156 32.2085 105.221 32.0733 105.282C30.0431 106.221 27.783 106.548 25.5699 106.222Z" fill="white"/>
<path d="M25.8418 110.888C25.8698 111.053 25.8967 111.215 25.9304 111.377C28.7907 112.415 31.9384 112.327 34.7363 111.131C34.8743 111.071 35.0113 111.009 35.1483 110.942C35.293 110.876 35.4365 110.803 35.5791 110.728C37.8186 109.554 39.631 107.703 40.7588 105.44C41.8866 103.176 42.2724 100.615 41.8615 98.1196C41.6992 98.0084 41.5341 97.9011 41.368 97.7919C41.8605 100.251 41.5433 102.803 40.4639 105.067C39.3845 107.33 37.6009 109.183 35.3802 110.348C35.2376 110.423 35.0931 110.494 34.9475 110.563C34.8114 110.626 34.6744 110.688 34.5354 110.747C31.7661 111.922 28.6478 111.973 25.8418 110.888Z" fill="white"/>
<path d="M59.7645 114.679L64.0593 115.831L59.7334 113.171C59.8265 108.93 61.3066 104.533 61.3066 104.533C61.3066 104.533 70.5516 107.211 72.9779 111.849C75.4043 116.487 73.4944 119.548 70.0933 121.328C66.6922 123.107 63.0879 122.93 60.6616 118.292C60.1215 117.26 59.8543 116.005 59.7645 114.679Z" fill="#F2F2F2"/>
<path d="M64.881 115.585L65.0006 115.814C66.4044 118.464 67.9372 120.303 69.5803 121.303C69.604 121.318 69.6283 121.331 69.652 121.346L69.7191 121.235L69.7822 121.127C67.9819 120.061 66.4709 118.013 65.2459 115.702C65.2057 115.627 65.1649 115.552 65.1264 115.476C64.6164 114.493 64.1572 113.469 63.7489 112.454C63.7166 112.376 63.6849 112.296 63.6531 112.216C63.1212 110.874 62.6777 109.558 62.3222 108.399C62.2967 108.317 62.2723 108.235 62.2486 108.154C61.6549 106.19 61.3256 104.714 61.255 104.387C61.2457 104.347 61.2413 104.325 61.2401 104.32L61.1166 104.345L61.1149 104.345L60.9902 104.371C60.9915 104.376 61.006 104.451 61.0371 104.587C61.1504 105.099 61.4723 106.48 62.0029 108.246C62.0272 108.326 62.0516 108.408 62.0771 108.49C62.3646 109.431 62.7082 110.471 63.1094 111.541C63.2098 111.81 63.3117 112.073 63.4153 112.332C63.4459 112.413 63.4777 112.492 63.51 112.571C63.9512 113.667 64.4082 114.672 64.881 115.585Z" fill="white"/>
<path d="M60.032 108.63C60.017 108.714 60.0015 108.8 59.9854 108.888C60.6985 108.862 61.4035 108.728 62.0764 108.49C62.1582 108.462 62.2404 108.432 62.3215 108.399C62.5604 108.305 62.7942 108.198 63.0218 108.079C63.982 107.578 64.815 106.864 65.4571 105.992C65.3765 105.956 65.2976 105.921 65.2187 105.886C64.6037 106.706 63.8125 107.379 62.9034 107.853C62.6902 107.964 62.4714 108.065 62.2479 108.154C62.1657 108.187 62.0834 108.217 62.0022 108.246C61.368 108.47 60.7041 108.6 60.032 108.63Z" fill="white"/>
<path d="M59.5431 112.891C59.5407 112.978 59.5394 113.063 59.5381 113.149C60.8899 113.342 62.2687 113.141 63.5094 112.571C63.5892 112.533 63.6685 112.495 63.7483 112.454C63.7806 112.439 63.8123 112.422 63.844 112.406C64.8499 111.879 65.716 111.121 66.3705 110.193C67.0249 109.266 67.4489 108.195 67.6074 107.071C67.5277 107.026 67.4475 106.983 67.3673 106.94C67.2277 108.042 66.8236 109.094 66.1894 110.007C65.5553 110.919 64.71 111.664 63.7256 112.179C63.7018 112.192 63.6769 112.205 63.6525 112.216C63.5744 112.257 63.4952 112.296 63.4147 112.332C62.2061 112.891 60.8606 113.086 59.5431 112.891Z" fill="white"/>
<path d="M59.7051 115.67C59.7217 115.768 59.7378 115.864 59.7578 115.961C61.4606 116.578 63.3346 116.526 65.0002 115.814C65.0824 115.778 65.1639 115.741 65.2455 115.701C65.3316 115.662 65.4171 115.619 65.5019 115.575C66.8352 114.875 67.9141 113.774 68.5856 112.426C69.257 111.079 69.4867 109.554 69.242 108.068C69.1454 108.002 69.0471 107.938 68.9482 107.873C69.2414 109.337 69.0526 110.856 68.41 112.204C67.7674 113.551 66.7056 114.655 65.3835 115.348C65.2987 115.393 65.2126 115.435 65.1259 115.476C65.0449 115.514 64.9634 115.551 64.8806 115.585C63.232 116.285 61.3756 116.316 59.7051 115.67Z" fill="white"/>
<path d="M145.549 75.6885L145.53 75.6869C142.115 75.1229 138.32 75.1231 133.93 75.6876H133.928C133.818 75.6889 133.71 75.6685 133.608 75.6276C133.506 75.5867 133.414 75.5261 133.336 75.4492C133.258 75.3724 133.196 75.2809 133.153 75.18C133.111 75.079 133.088 74.9707 133.088 74.8612V70.8852C133.088 70.6658 133.175 70.4555 133.33 70.3004C133.486 70.1453 133.696 70.0581 133.915 70.0579C137.781 69.5537 141.697 69.554 145.563 70.0587H145.564C145.781 70.0619 145.988 70.1505 146.14 70.3052C146.292 70.4599 146.377 70.6683 146.376 70.8852V74.8612C146.376 75.0805 146.289 75.2908 146.134 75.4459C145.978 75.601 145.768 75.6882 145.549 75.6885Z" fill="white"/>
<path d="M145.549 75.6885L145.53 75.6869C142.115 75.1229 138.32 75.1231 133.93 75.6876H133.928C133.818 75.6889 133.71 75.6685 133.608 75.6276C133.506 75.5867 133.414 75.5261 133.336 75.4492C133.258 75.3724 133.196 75.2809 133.153 75.18C133.111 75.079 133.088 74.9707 133.088 74.8612V70.8852C133.088 70.6658 133.175 70.4555 133.33 70.3004C133.486 70.1453 133.696 70.0581 133.915 70.0579C137.781 69.5537 141.697 69.554 145.563 70.0587H145.564C145.781 70.0619 145.988 70.1505 146.14 70.3052C146.292 70.4599 146.377 70.6683 146.376 70.8852V74.8612C146.376 75.0805 146.289 75.2908 146.134 75.4459C145.978 75.601 145.768 75.6882 145.549 75.6885ZM139.584 69.9058C137.693 69.9024 135.804 70.0281 133.931 70.282C133.85 70.2807 133.771 70.2953 133.696 70.325C133.622 70.3547 133.554 70.3989 133.496 70.4549C133.439 70.511 133.393 70.5779 133.362 70.6518C133.33 70.7256 133.314 70.8049 133.313 70.8852V74.8612C133.313 75.0208 133.377 75.1738 133.49 75.2867C133.603 75.3996 133.756 75.4631 133.915 75.4633C138.309 74.8973 142.122 74.8972 145.558 75.4631C145.716 75.4607 145.867 75.3962 145.978 75.2835C146.088 75.1709 146.151 75.0192 146.151 74.8612V70.8852C146.151 70.7255 146.087 70.5725 145.974 70.4596C145.862 70.3467 145.708 70.2833 145.549 70.2831C143.57 70.0349 141.578 69.9089 139.584 69.9058Z" fill="#36A9C0"/>
<path d="M139.732 74.26C140.603 74.26 141.308 73.5541 141.308 72.6834C141.308 71.8127 140.603 71.1068 139.732 71.1068C138.861 71.1068 138.155 71.8127 138.155 72.6834C138.155 73.5541 138.861 74.26 139.732 74.26Z" fill="#36A9C0"/>
<path d="M135.677 71.8596H134.326C134.237 71.8595 134.151 71.8239 134.087 71.7606C134.024 71.6973 133.988 71.6114 133.988 71.5218V71.0714C133.988 70.9818 134.024 70.8959 134.087 70.8326C134.151 70.7692 134.237 70.7336 134.326 70.7335H135.677C135.767 70.7336 135.853 70.7692 135.916 70.8326C135.98 70.8959 136.015 70.9818 136.015 71.0714V71.5218C136.015 71.6114 135.98 71.6973 135.916 71.7606C135.853 71.8239 135.767 71.8595 135.677 71.8596Z" fill="#36A9C0"/>
<path d="M145.137 75.0128H143.786C143.697 75.0127 143.611 74.9771 143.547 74.9137C143.484 74.8504 143.448 74.7645 143.448 74.6749V74.2245C143.448 74.1349 143.484 74.0491 143.547 73.9857C143.611 73.9224 143.697 73.8868 143.786 73.8867H145.137C145.227 73.8868 145.313 73.9224 145.376 73.9857C145.44 74.0491 145.475 74.1349 145.475 74.2245V74.6749C145.475 74.7645 145.44 74.8504 145.376 74.9137C145.313 74.9771 145.227 75.0127 145.137 75.0128Z" fill="#36A9C0"/>
<path d="M143.626 74.044L143.609 74.0354C140.682 72.1874 137.186 70.7119 132.921 69.5246L132.92 69.5239C132.818 69.4825 132.726 69.4215 132.648 69.3442C132.571 69.267 132.509 69.1752 132.467 69.0741C132.425 68.9729 132.403 68.8645 132.403 68.755C132.403 68.6454 132.425 68.537 132.467 68.4359L134.013 64.7729C134.099 64.5709 134.261 64.4111 134.464 64.3285C134.668 64.2459 134.895 64.2473 135.097 64.3324C138.855 65.3715 142.462 66.8944 145.828 68.8628L145.829 68.8634C146.028 68.9507 146.184 69.1127 146.264 69.3143C146.344 69.516 146.341 69.741 146.256 69.9405L144.71 73.6035C144.624 73.8055 144.462 73.9653 144.259 74.0479C144.055 74.1305 143.828 74.1291 143.626 74.044Z" fill="white"/>
<path d="M143.626 74.044L143.609 74.0354C140.682 72.1874 137.186 70.7119 132.921 69.5246L132.92 69.5239C132.818 69.4825 132.726 69.4215 132.648 69.3442C132.571 69.267 132.509 69.1752 132.467 69.0741C132.425 68.9729 132.403 68.8645 132.403 68.755C132.403 68.6454 132.425 68.537 132.467 68.4359L134.013 64.7729C134.099 64.5709 134.261 64.4111 134.464 64.3285C134.668 64.2459 134.895 64.2473 135.097 64.3324C138.855 65.3715 142.462 66.8944 145.828 68.8628L145.829 68.8634C146.028 68.9507 146.184 69.1127 146.264 69.3143C146.344 69.516 146.341 69.741 146.256 69.9405L144.71 73.6035C144.624 73.8055 144.462 73.9653 144.259 74.0479C144.055 74.1305 143.828 74.1291 143.626 74.044ZM140.379 66.3969C138.639 65.6584 136.849 65.0396 135.024 64.5448C134.951 64.5125 134.872 64.495 134.792 64.4933C134.711 64.4917 134.632 64.5059 134.557 64.5353C134.482 64.5646 134.414 64.6085 134.356 64.6643C134.299 64.7201 134.253 64.7867 134.221 64.8604L132.675 68.5234C132.613 68.6706 132.612 68.8363 132.672 68.9842C132.732 69.1321 132.848 69.2501 132.995 69.3123C137.264 70.4997 140.777 71.9825 143.721 73.8398C143.868 73.899 144.032 73.8982 144.178 73.8376C144.324 73.7771 144.44 73.6615 144.502 73.5159L146.048 69.8529C146.11 69.7058 146.111 69.5401 146.051 69.3922C145.991 69.2443 145.875 69.1263 145.728 69.0641C144.001 68.066 142.215 67.1753 140.379 66.3969Z" fill="#36A9C0"/>
<path d="M139.436 70.5899C140.307 70.5899 141.013 69.8841 141.013 69.0133C141.013 68.1426 140.307 67.4368 139.436 67.4368C138.565 67.4368 137.859 68.1426 137.859 69.0133C137.859 69.8841 138.565 70.5899 139.436 70.5899Z" fill="#36A9C0"/>
<path d="M136.021 66.6779L134.776 66.1524C134.693 66.1175 134.628 66.0513 134.594 65.9683C134.56 65.8853 134.561 65.7923 134.596 65.7098L134.771 65.2948C134.806 65.2123 134.872 65.147 134.955 65.1133C135.038 65.0796 135.131 65.0802 135.214 65.1149L136.459 65.6404C136.541 65.6754 136.606 65.7416 136.64 65.8246C136.674 65.9075 136.673 66.0005 136.638 66.0831L136.463 66.4981C136.428 66.5805 136.362 66.6458 136.279 66.6795C136.196 66.7132 136.103 66.7127 136.021 66.6779Z" fill="#36A9C0"/>
<path d="M143.51 73.2615L142.265 72.736C142.182 72.7011 142.117 72.6349 142.083 72.5519C142.05 72.4689 142.05 72.376 142.085 72.2934L142.26 71.8784C142.295 71.7959 142.361 71.7307 142.444 71.6969C142.527 71.6632 142.62 71.6638 142.703 71.6985L143.948 72.2241C144.03 72.259 144.096 72.3252 144.129 72.4082C144.163 72.4912 144.162 72.5841 144.128 72.6667L143.953 73.0817C143.918 73.1642 143.851 73.2294 143.768 73.2631C143.685 73.2969 143.592 73.2963 143.51 73.2615Z" fill="#36A9C0"/>
<path d="M146.729 71.8674C147.012 71.6966 147.255 71.4658 147.44 71.1911C147.625 70.9163 147.747 70.6044 147.798 70.2773C147.849 69.9502 147.828 69.6158 147.736 69.2978C147.644 68.9797 147.484 68.6857 147.266 68.4364L151.254 61.4457L147.081 61.7154L143.933 68.3124C143.538 68.7063 143.302 69.2311 143.269 69.7876C143.235 70.344 143.407 70.8934 143.752 71.3316C144.096 71.7698 144.59 72.0663 145.138 72.1651C145.687 72.2638 146.253 72.1579 146.729 71.8674Z" fill="#FFB6B6"/>
<path d="M177.431 119.523H174.67L173.356 108.873L177.432 108.873L177.431 119.523Z" fill="#FFB6B6"/>
<path d="M178.136 122.2L169.232 122.2V122.087C169.232 121.168 169.598 120.287 170.248 119.637C170.897 118.987 171.779 118.622 172.698 118.622H172.698L178.136 118.622L178.136 122.2Z" fill="#2F2E41"/>
<path d="M158.512 119.523H155.751L154.438 108.873L158.513 108.873L158.512 119.523Z" fill="#FFB6B6"/>
<path d="M159.217 122.2L150.313 122.2V122.087C150.314 121.168 150.679 120.287 151.329 119.637C151.978 118.987 152.86 118.622 153.779 118.622H153.779L159.217 118.622L159.217 122.2Z" fill="#2F2E41"/>
<path d="M151.413 61.7461C151.413 61.7461 150.653 72.5617 152.149 78.0088C153.645 83.4558 153.912 116.396 153.912 116.396H158.926L163.271 71.5573L173.29 116.554L178.066 116.226L175.447 63.203L151.413 61.7461Z" fill="#2F2E41"/>
<path d="M173.375 25.2872L169.542 22.4901L163.119 23.8886L161.38 28.0198L158.385 29.5051C157.4 29.9935 156.548 30.7138 155.903 31.6041C155.257 32.4943 154.838 33.5279 154.68 34.616L150.4 64.1712L175.447 63.203L178.479 28.396C178.511 28.0325 178.469 27.6662 178.357 27.319C178.244 26.9717 178.063 26.6506 177.825 26.3745C177.586 26.0984 177.294 25.873 176.967 25.7116C176.64 25.5503 176.283 25.4562 175.919 25.4351L173.375 25.2872Z" fill="#E4E4E4"/>
<path d="M156.799 31.8137L154.486 34.9322L144.41 65.663L149.133 67.554L156.696 53.234L156.799 31.8137Z" fill="#E4E4E4"/>
<path d="M165.081 20.683C169.315 20.683 172.747 17.2508 172.747 13.0169C172.747 8.7831 169.315 5.35089 165.081 5.35089C160.847 5.35089 157.415 8.7831 157.415 13.0169C157.415 17.2508 160.847 20.683 165.081 20.683Z" fill="#2F2E41"/>
<path d="M165.185 21.0298C168.275 21.0298 170.779 18.5252 170.779 15.4357C170.779 12.3461 168.275 9.84155 165.185 9.84155C162.095 9.84155 159.591 12.3461 159.591 15.4357C159.591 18.5252 162.095 21.0298 165.185 21.0298Z" fill="#FFB9B9"/>
<path d="M169.433 14.7105C165.871 13.4257 164.665 12.6364 160.731 14.7105L159.28 8.90918H170.883L169.433 14.7105Z" fill="#2F2E41"/>
<path d="M164.459 9.73794C166.862 9.73794 168.81 7.78993 168.81 5.38695C168.81 2.98396 166.862 1.03595 164.459 1.03595C162.056 1.03595 160.108 2.98396 160.108 5.38695C160.108 7.78993 162.056 9.73794 164.459 9.73794Z" fill="#2F2E41"/>
<path d="M159.28 4.351C159.28 3.2336 159.711 2.15932 160.482 1.35109C161.254 0.542871 162.307 0.0627796 163.423 0.0104578C163.354 0.007192 163.286 0 163.216 0C162.062 0 160.956 0.458407 160.14 1.27438C159.324 2.09035 158.865 3.19704 158.865 4.35099C158.865 5.50495 159.324 6.61164 160.14 7.42761C160.956 8.24358 162.062 8.70199 163.216 8.70199C163.286 8.70199 163.354 8.6948 163.423 8.69153C162.307 8.63921 161.254 8.15911 160.483 7.35089C159.711 6.54267 159.28 5.46839 159.28 4.351Z" fill="#2F2E41"/>
<path opacity="0.1" d="M175.245 33.5836L173.684 49.1432L168.172 60.007L175.245 33.5836Z" fill="black"/>
<path d="M10.2478 81.4722H8.89648V82.5984H10.2478V81.4722Z" fill="#F0F0F0"/>
<path d="M138.07 82.5984H135.407V81.4722H138.07V82.5984ZM132.744 82.5984H130.081V81.4722H132.744V82.5984ZM127.418 82.5984H124.755V81.4722H127.418V82.5984ZM122.092 82.5984H119.429V81.4722H122.092V82.5984ZM116.766 82.5984H114.104V81.4722H116.766V82.5984ZM111.44 82.5984H108.778V81.4722H111.44L111.44 82.5984ZM106.115 82.5984H103.452V81.4722H106.115V82.5984ZM100.789 82.5984H98.1258V81.4722H100.789V82.5984ZM95.4628 82.5984H92.7999V81.4722H95.4628V82.5984ZM90.1369 82.5984H87.4739V81.4722H90.1369L90.1369 82.5984ZM84.811 82.5984H82.148V81.4722H84.811L84.811 82.5984ZM79.4851 82.5984H76.8221V81.4722H79.4851L79.4851 82.5984ZM74.1592 82.5984H71.4962V81.4722H74.1592L74.1592 82.5984ZM68.8332 82.5984H66.1703V81.4722H68.8332L68.8332 82.5984ZM63.5073 82.5984H60.8444V81.4722H63.5073L63.5073 82.5984ZM58.1814 82.5984H55.5184V81.4722H58.1814L58.1814 82.5984ZM52.8555 82.5984H50.1925V81.4722H52.8555L52.8555 82.5984ZM47.5296 82.5984H44.8666V81.4722H47.5296L47.5296 82.5984ZM42.2036 82.5984H39.5407V81.4722H42.2036L42.2036 82.5984ZM36.8777 82.5984H34.2148V81.4722H36.8777L36.8777 82.5984ZM31.5518 82.5984H28.8889V81.4722H31.5518L31.5518 82.5984ZM26.2259 82.5984H23.5629V81.4722H26.2259L26.2259 82.5984ZM20.9 82.5984H18.237V81.4722H20.9L20.9 82.5984ZM15.5741 82.5984H12.9111V81.4722H15.5741L15.5741 82.5984Z" fill="#F0F0F0"/>
<path d="M10.2478 52.8687H8.89648V53.9948H10.2478V52.8687Z" fill="#F0F0F0"/>
<path d="M138.07 53.9948H135.407V52.8687H138.07V53.9948ZM132.744 53.9948H130.081V52.8687H132.744V53.9948ZM127.418 53.9948H124.755V52.8687H127.418V53.9948ZM122.092 53.9948H119.429V52.8687H122.092V53.9948ZM116.766 53.9948H114.104V52.8687H116.766V53.9948ZM111.44 53.9948H108.778V52.8687H111.44L111.44 53.9948ZM106.115 53.9948H103.452V52.8687H106.115V53.9948ZM100.789 53.9948H98.1258V52.8687H100.789V53.9948ZM95.4628 53.9948H92.7999V52.8687H95.4628V53.9948ZM90.1369 53.9948H87.4739V52.8687H90.1369L90.1369 53.9948ZM84.811 53.9948H82.148V52.8687H84.811L84.811 53.9948ZM79.4851 53.9948H76.8221V52.8687H79.4851L79.4851 53.9948ZM74.1592 53.9948H71.4962V52.8687H74.1592L74.1592 53.9948ZM68.8332 53.9948H66.1703V52.8687H68.8332L68.8332 53.9948ZM63.5073 53.9948H60.8444V52.8687H63.5073L63.5073 53.9948ZM58.1814 53.9948H55.5184V52.8687H58.1814L58.1814 53.9948ZM52.8555 53.9948H50.1925V52.8687H52.8555L52.8555 53.9948ZM47.5296 53.9948H44.8666V52.8687H47.5296L47.5296 53.9948ZM42.2036 53.9948H39.5407V52.8687H42.2036L42.2036 53.9948ZM36.8777 53.9948H34.2148V52.8687H36.8777L36.8777 53.9948ZM31.5518 53.9948H28.8889V52.8687H31.5518L31.5518 53.9948ZM26.2259 53.9948H23.5629V52.8687H26.2259L26.2259 53.9948ZM20.9 53.9948H18.237V52.8687H20.9L20.9 53.9948ZM15.5741 53.9948H12.9111V52.8687H15.5741L15.5741 53.9948Z" fill="#F0F0F0"/>
<path d="M10.2478 24.265H8.89648V25.3911H10.2478V24.265Z" fill="#F0F0F0"/>
<path d="M138.07 25.3911H135.407V24.265H138.07V25.3911ZM132.744 25.3911H130.081V24.265H132.744V25.3911ZM127.418 25.3911H124.755V24.265H127.418V25.3911ZM122.092 25.3911H119.429V24.265H122.092V25.3911ZM116.766 25.3911H114.104V24.265H116.766V25.3911ZM111.44 25.3911H108.778V24.265H111.44L111.44 25.3911ZM106.115 25.3911H103.452V24.265H106.115V25.3911ZM100.789 25.3911H98.1258V24.265H100.789V25.3911ZM95.4628 25.3911H92.7999V24.265H95.4628V25.3911ZM90.1369 25.3911H87.4739V24.265H90.1369L90.1369 25.3911ZM84.811 25.3911H82.148V24.265H84.811L84.811 25.3911ZM79.4851 25.3911H76.8221V24.265H79.4851L79.4851 25.3911ZM74.1592 25.3911H71.4962V24.265H74.1592L74.1592 25.3911ZM68.8332 25.3911H66.1703V24.265H68.8332L68.8332 25.3911ZM63.5073 25.3911H60.8444V24.265H63.5073L63.5073 25.3911ZM58.1814 25.3911H55.5184V24.265H58.1814L58.1814 25.3911ZM52.8555 25.3911H50.1925V24.265H52.8555L52.8555 25.3911ZM47.5296 25.3911H44.8666V24.265H47.5296L47.5296 25.3911ZM42.2036 25.3911H39.5407V24.265H42.2036L42.2036 25.3911ZM36.8777 25.3911H34.2148V24.265H36.8777L36.8777 25.3911ZM31.5518 25.3911H28.8889V24.265H31.5518L31.5518 25.3911ZM26.2259 25.3911H23.5629V24.265H26.2259L26.2259 25.3911ZM20.9 25.3911H18.237V24.265H20.9L20.9 25.3911ZM15.5741 25.3911H12.9111V24.265H15.5741L15.5741 25.3911Z" fill="#F0F0F0"/>
<path d="M52.9276 81.8101H41.8916V122.351H52.9276V81.8101Z" fill="#3F3D56"/>
<path d="M54.955 81.8101H43.9189V122.351H54.955V81.8101Z" fill="#36A9C0"/>
<path d="M79.0536 53.2065H68.0176V122.351H79.0536V53.2065Z" fill="#3F3D56"/>
<path d="M81.081 53.2065H70.0449V122.351H81.081V53.2065Z" fill="#36A9C0"/>
<path d="M105.181 24.6028H94.1445V122.351H105.181V24.6028Z" fill="#3F3D56"/>
<path d="M107.207 24.6028H96.1709V122.351H107.207V24.6028Z" fill="#36A9C0"/>
<path d="M9.00934 27.5308C10.502 27.5308 11.712 26.3207 11.712 24.8281C11.712 23.3354 10.502 22.1254 9.00934 22.1254C7.51668 22.1254 6.30664 23.3354 6.30664 24.8281C6.30664 26.3207 7.51668 27.5308 9.00934 27.5308Z" fill="#F0F0F0"/>
<path d="M9.00934 56.1344C10.502 56.1344 11.712 54.9244 11.712 53.4317C11.712 51.939 10.502 50.729 9.00934 50.729C7.51668 50.729 6.30664 51.939 6.30664 53.4317C6.30664 54.9244 7.51668 56.1344 9.00934 56.1344Z" fill="#F0F0F0"/>
<path d="M9.00934 84.738C10.502 84.738 11.712 83.5279 11.712 82.0353C11.712 80.5426 10.502 79.3326 9.00934 79.3326C7.51668 79.3326 6.30664 80.5426 6.30664 82.0353C6.30664 83.5279 7.51668 84.738 9.00934 84.738Z" fill="#F0F0F0"/>
<path d="M200 122.098H0V122.603H200V122.098Z" fill="#3F3D56"/>
<path d="M168.747 70.7335L168.729 70.732C165.313 70.1679 161.518 70.1681 157.128 70.7326H157.126C157.017 70.7339 156.908 70.7135 156.806 70.6726C156.705 70.6317 156.612 70.5711 156.534 70.4943C156.456 70.4175 156.394 70.326 156.351 70.225C156.309 70.1241 156.287 70.0157 156.286 69.9062V65.9302C156.286 65.7109 156.374 65.5006 156.529 65.3455C156.684 65.1904 156.894 65.1031 157.113 65.1029C160.98 64.5988 164.895 64.5991 168.761 65.1038H168.762C168.979 65.107 169.186 65.1955 169.338 65.3502C169.49 65.505 169.575 65.7133 169.574 65.9302V69.9062C169.574 70.1255 169.487 70.3358 169.332 70.4909C169.177 70.646 168.966 70.7333 168.747 70.7335Z" fill="white"/>
<path d="M168.747 70.7335L168.729 70.732C165.313 70.1679 161.518 70.1681 157.128 70.7326H157.126C157.017 70.7339 156.908 70.7135 156.806 70.6726C156.705 70.6317 156.612 70.5711 156.534 70.4943C156.456 70.4175 156.394 70.326 156.351 70.225C156.309 70.1241 156.287 70.0157 156.286 69.9062V65.9302C156.286 65.7109 156.374 65.5006 156.529 65.3455C156.684 65.1904 156.894 65.1031 157.113 65.1029C160.98 64.5988 164.895 64.5991 168.761 65.1038H168.762C168.979 65.107 169.186 65.1955 169.338 65.3502C169.49 65.505 169.575 65.7133 169.574 65.9302V69.9062C169.574 70.1255 169.487 70.3358 169.332 70.4909C169.177 70.646 168.966 70.7333 168.747 70.7335ZM162.783 64.9508C160.892 64.9474 159.003 65.0731 157.129 65.327C157.049 65.3257 156.969 65.3404 156.894 65.3701C156.82 65.3998 156.752 65.4439 156.694 65.5C156.637 65.5561 156.591 65.623 156.56 65.6968C156.528 65.7706 156.512 65.85 156.511 65.9302V69.9062C156.512 70.0658 156.575 70.2189 156.688 70.3318C156.801 70.4446 156.954 70.5081 157.113 70.5083C161.507 69.9424 165.321 69.9423 168.756 70.5082C168.914 70.5057 169.065 70.4412 169.176 70.3286C169.287 70.216 169.349 70.0643 169.349 69.9062V65.9302C169.349 65.7706 169.286 65.6175 169.173 65.5047C169.06 65.3918 168.907 65.3283 168.747 65.3281C166.769 65.08 164.777 64.9539 162.783 64.9508Z" fill="#36A9C0"/>
<path d="M162.93 69.305C163.801 69.305 164.507 68.5992 164.507 67.7284C164.507 66.8577 163.801 66.1519 162.93 66.1519C162.059 66.1519 161.354 66.8577 161.354 67.7284C161.354 68.5992 162.059 69.305 162.93 69.305Z" fill="#36A9C0"/>
<path d="M158.876 66.9047H157.524C157.435 66.9046 157.349 66.869 157.286 66.8056C157.222 66.7423 157.187 66.6564 157.187 66.5669V66.1164C157.187 66.0268 157.222 65.941 157.286 65.8776C157.349 65.8143 157.435 65.7787 157.524 65.7786H158.876C158.965 65.7787 159.051 65.8143 159.114 65.8776C159.178 65.941 159.213 66.0268 159.214 66.1164V66.5669C159.213 66.6564 159.178 66.7423 159.114 66.8056C159.051 66.869 158.965 66.9046 158.876 66.9047Z" fill="#36A9C0"/>
<path d="M168.336 70.0578H166.984C166.895 70.0577 166.809 70.0221 166.746 69.9588C166.682 69.8954 166.647 69.8096 166.646 69.72V69.2695C166.647 69.18 166.682 69.0941 166.746 69.0308C166.809 68.9674 166.895 68.9318 166.984 68.9317H168.336C168.425 68.9318 168.511 68.9674 168.574 69.0308C168.638 69.0941 168.673 69.18 168.674 69.2695V69.72C168.673 69.8096 168.638 69.8954 168.574 69.9588C168.511 70.0221 168.425 70.0577 168.336 70.0578Z" fill="#36A9C0"/>
<path d="M166.215 65.5218C166.191 65.1915 166.241 64.8601 166.36 64.551C166.478 64.242 166.663 63.9627 166.902 63.7329C167.14 63.5031 167.426 63.3283 167.739 63.2209C168.052 63.1135 168.385 63.0761 168.715 63.1113L172.146 55.8313L174.323 59.4028L170.73 65.7685C170.634 66.3176 170.341 66.8126 169.904 67.1595C169.468 67.5064 168.919 67.6813 168.363 67.6508C167.806 67.6204 167.28 67.3869 166.884 66.9945C166.488 66.6021 166.25 66.0781 166.215 65.5218Z" fill="#FFB6B6"/>
<path d="M175.546 27.4413L176.959 25.598C176.959 25.598 180.403 24.8966 180.988 29.6267L180.619 50.6549L173.073 62.5326L168.172 61.2812L174.58 47.1714L175.546 27.4413Z" fill="#E4E4E4"/>
</g>
<defs>
<clipPath id="clip0_816_3298">
<rect width="200" height="122.603" fill="white"/>
</clipPath>
</defs>
</svg>
