<svg width="200" height="143" viewBox="0 0 200 143" fill="none" xmlns="http://www.w3.org/2000/svg">
<g clip-path="url(#clip0_816_3122)">
<path d="M9.24352 29.0752C11.0036 29.0752 12.4304 27.6484 12.4304 25.8883C12.4304 24.1282 11.0036 22.7014 9.24352 22.7014C7.48345 22.7014 6.05664 24.1282 6.05664 25.8883C6.05664 27.6484 7.48345 29.0752 9.24352 29.0752Z" fill="#E6E6E6"/>
<path d="M18.8041 29.0752C20.5641 29.0752 21.9909 27.6484 21.9909 25.8883C21.9909 24.1282 20.5641 22.7014 18.8041 22.7014C17.044 22.7014 15.6172 24.1282 15.6172 25.8883C15.6172 27.6484 17.044 29.0752 18.8041 29.0752Z" fill="#E6E6E6"/>
<path d="M28.3646 29.0752C30.1247 29.0752 31.5515 27.6484 31.5515 25.8883C31.5515 24.1282 30.1247 22.7014 28.3646 22.7014C26.6045 22.7014 25.1777 24.1282 25.1777 25.8883C25.1777 27.6484 26.6045 29.0752 28.3646 29.0752Z" fill="#E6E6E6"/>
<path d="M37.9252 29.0752C39.6852 29.0752 41.112 27.6484 41.112 25.8883C41.112 24.1282 39.6852 22.7014 37.9252 22.7014C36.1651 22.7014 34.7383 24.1282 34.7383 25.8883C34.7383 27.6484 36.1651 29.0752 37.9252 29.0752Z" fill="#E6E6E6"/>
<path d="M47.4857 29.0752C49.2458 29.0752 50.6726 27.6484 50.6726 25.8883C50.6726 24.1282 49.2458 22.7014 47.4857 22.7014C45.7256 22.7014 44.2988 24.1282 44.2988 25.8883C44.2988 27.6484 45.7256 29.0752 47.4857 29.0752Z" fill="#E6E6E6"/>
<path d="M57.0472 29.0752C58.8073 29.0752 60.2341 27.6484 60.2341 25.8883C60.2341 24.1282 58.8073 22.7014 57.0472 22.7014C55.2872 22.7014 53.8604 24.1282 53.8604 25.8883C53.8604 27.6484 55.2872 29.0752 57.0472 29.0752Z" fill="#E6E6E6"/>
<path d="M66.6078 29.0752C68.3678 29.0752 69.7947 27.6484 69.7947 25.8883C69.7947 24.1282 68.3678 22.7014 66.6078 22.7014C64.8477 22.7014 63.4209 24.1282 63.4209 25.8883C63.4209 27.6484 64.8477 29.0752 66.6078 29.0752Z" fill="#E6E6E6"/>
<path d="M73.9712 29.7692H1.87892C1.53509 29.7688 1.20545 29.632 0.962326 29.3889C0.719199 29.1457 0.582435 28.8161 0.582031 28.4723V23.3043C0.582435 22.9605 0.719199 22.6309 0.962326 22.3877C1.20545 22.1446 1.53509 22.0078 1.87892 22.0074H73.9712C74.3151 22.0079 74.6447 22.1446 74.8878 22.3877C75.1309 22.6309 75.2677 22.9605 75.2681 23.3043V28.4723C75.2677 28.8161 75.1309 29.1457 74.8878 29.3889C74.6447 29.632 74.3151 29.7688 73.9712 29.7692ZM1.87892 22.5262C1.67262 22.5264 1.47483 22.6085 1.32895 22.7544C1.18307 22.9002 1.10101 23.098 1.10079 23.3043V28.4723C1.10101 28.6786 1.18307 28.8764 1.32895 29.0223C1.47483 29.1681 1.67262 29.2502 1.87892 29.2504H73.9712C74.1775 29.2502 74.3753 29.1681 74.5212 29.0223C74.6671 28.8764 74.7491 28.6786 74.7494 28.4723V23.3043C74.7491 23.098 74.6671 22.9002 74.5212 22.7544C74.3753 22.6085 74.1775 22.5264 73.9712 22.5262L1.87892 22.5262Z" fill="#E6E6E6"/>
<path d="M17.3076 0.745142C17.5051 0.745368 17.6945 0.823947 17.8342 0.963638C17.9739 1.10333 18.0525 1.29272 18.0527 1.49027V17.6374C18.0525 17.8349 17.9739 18.0243 17.8342 18.164C17.6945 18.3037 17.5051 18.3823 17.3076 18.3825H1.49029C1.29274 18.3823 1.10334 18.3037 0.963652 18.164C0.823961 18.0243 0.745382 17.8349 0.745157 17.6374V1.49029C0.745382 1.29274 0.823961 1.10334 0.963652 0.963648C1.10334 0.823958 1.29274 0.745379 1.49029 0.745153L17.3076 0.745142ZM17.3076 1.07027e-05H1.49029C1.09504 1.07027e-05 0.715982 0.157022 0.436498 0.436505C0.157015 0.715989 0 1.09505 0 1.4903V17.6374C0 18.0326 0.157015 18.4117 0.436498 18.6912C0.715982 18.9706 1.09504 19.1277 1.49029 19.1277H17.3076C17.7028 19.1277 18.0819 18.9706 18.3614 18.6912C18.6409 18.4117 18.7979 18.0326 18.7979 17.6374V1.49029C18.7979 1.09504 18.6409 0.715978 18.3614 0.436495C18.0819 0.157012 17.7028 1.13228e-05 17.3076 1.07027e-05Z" fill="#E6E6E6"/>
<path d="M14.8401 4.98952H4.28697C4.23785 4.98982 4.18916 4.98041 4.14369 4.96182C4.09822 4.94324 4.05688 4.91584 4.02204 4.88122C3.9872 4.84659 3.95956 4.80542 3.94069 4.76006C3.92182 4.71471 3.91211 4.66608 3.91211 4.61696C3.91211 4.56784 3.92182 4.51921 3.94069 4.47385C3.95956 4.4285 3.9872 4.38733 4.02204 4.3527C4.05688 4.31808 4.09822 4.29068 4.14369 4.27209C4.18916 4.25351 4.23785 4.24409 4.28697 4.24439H14.8401C14.8893 4.24409 14.938 4.25351 14.9834 4.27209C15.0289 4.29068 15.0702 4.31808 15.1051 4.3527C15.1399 4.38733 15.1676 4.4285 15.1864 4.47385C15.2053 4.51921 15.215 4.56784 15.215 4.61696C15.215 4.66608 15.2053 4.71471 15.1864 4.76006C15.1676 4.80542 15.1399 4.84659 15.1051 4.88122C15.0702 4.91584 15.0289 4.94324 14.9834 4.96182C14.938 4.98041 14.8893 4.98982 14.8401 4.98952Z" fill="#36A9C0"/>
<path d="M14.8401 7.62795H4.28697C4.23785 7.62825 4.18916 7.61884 4.14369 7.60025C4.09822 7.58166 4.05688 7.55427 4.02204 7.51964C3.9872 7.48501 3.95956 7.44384 3.94069 7.39849C3.92182 7.35314 3.91211 7.3045 3.91211 7.25538C3.91211 7.20626 3.92182 7.15763 3.94069 7.11228C3.95956 7.06693 3.9872 7.02576 4.02204 6.99113C4.05688 6.9565 4.09822 6.92911 4.14369 6.91052C4.18916 6.89193 4.23785 6.88252 4.28697 6.88282H14.8401C14.8893 6.88252 14.938 6.89193 14.9834 6.91052C15.0289 6.92911 15.0702 6.9565 15.1051 6.99113C15.1399 7.02576 15.1676 7.06693 15.1864 7.11228C15.2053 7.15763 15.215 7.20626 15.215 7.25538C15.215 7.3045 15.2053 7.35314 15.1864 7.39849C15.1676 7.44384 15.1399 7.48501 15.1051 7.51964C15.0702 7.55427 15.0289 7.58166 14.9834 7.60025C14.938 7.61884 14.8893 7.62825 14.8401 7.62795Z" fill="#36A9C0"/>
<path d="M14.8401 10.2661H4.28697C4.23785 10.2664 4.18916 10.257 4.14369 10.2384C4.09822 10.2198 4.05688 10.1924 4.02204 10.1578C3.9872 10.1232 3.95956 10.082 3.94069 10.0367C3.92182 9.99132 3.91211 9.94269 3.91211 9.89357C3.91211 9.84445 3.92182 9.79581 3.94069 9.75046C3.95956 9.70511 3.9872 9.66394 4.02204 9.62931C4.05688 9.59468 4.09822 9.56729 4.14369 9.5487C4.18916 9.53011 4.23785 9.5207 4.28697 9.521H14.8401C14.8893 9.5207 14.938 9.53011 14.9834 9.5487C15.0289 9.56729 15.0702 9.59468 15.1051 9.62931C15.1399 9.66394 15.1676 9.70511 15.1864 9.75046C15.2053 9.79581 15.215 9.84445 15.215 9.89357C15.215 9.94269 15.2053 9.99132 15.1864 10.0367C15.1676 10.082 15.1399 10.1232 15.1051 10.1578C15.0702 10.1924 15.0289 10.2198 14.9834 10.2384C14.938 10.257 14.8893 10.2664 14.8401 10.2661Z" fill="#36A9C0"/>
<path d="M14.8401 12.9044H4.28697C4.23785 12.9047 4.18916 12.8953 4.14369 12.8767C4.09822 12.8582 4.05688 12.8308 4.02204 12.7961C3.9872 12.7615 3.95956 12.7203 3.94069 12.675C3.92182 12.6296 3.91211 12.581 3.91211 12.5319C3.91211 12.4828 3.92182 12.4341 3.94069 12.3888C3.95956 12.3434 3.9872 12.3022 4.02204 12.2676C4.05688 12.233 4.09822 12.2056 4.14369 12.187C4.18916 12.1684 4.23785 12.159 4.28697 12.1593H14.8401C14.8893 12.159 14.938 12.1684 14.9834 12.187C15.0289 12.2056 15.0702 12.233 15.1051 12.2676C15.1399 12.3022 15.1676 12.3434 15.1864 12.3888C15.2053 12.4341 15.215 12.4828 15.215 12.5319C15.215 12.581 15.2053 12.6296 15.1864 12.675C15.1676 12.7203 15.1399 12.7615 15.1051 12.7961C15.0702 12.8308 15.0289 12.8582 14.9834 12.8767C14.938 12.8953 14.8893 12.9047 14.8401 12.9044Z" fill="#36A9C0"/>
<path d="M14.8408 15.5429H4.28761C4.1888 15.5429 4.09403 15.5036 4.02416 15.4338C3.95429 15.3639 3.91504 15.2691 3.91504 15.1703C3.91504 15.0715 3.95429 14.9767 4.02416 14.9069C4.09403 14.837 4.1888 14.7977 4.28761 14.7977H14.8408C14.9396 14.7977 15.0344 14.837 15.1042 14.9069C15.1741 14.9767 15.2134 15.0715 15.2134 15.1703C15.2134 15.2691 15.1741 15.3639 15.1042 15.4338C15.0344 15.5036 14.9396 15.5429 14.8408 15.5429Z" fill="#36A9C0"/>
<path d="M71.33 0.745142C71.5276 0.745368 71.717 0.823947 71.8567 0.963638C71.9964 1.10333 72.0749 1.29272 72.0752 1.49027V17.6374C72.0749 17.8349 71.9964 18.0243 71.8567 18.164C71.717 18.3037 71.5276 18.3823 71.33 18.3825H55.5128C55.3152 18.3823 55.1258 18.3037 54.9861 18.164C54.8464 18.0243 54.7678 17.8349 54.7676 17.6374V1.49029C54.7678 1.29274 54.8464 1.10334 54.9861 0.963648C55.1258 0.823958 55.3152 0.745379 55.5128 0.745153L71.33 0.745142ZM71.33 1.07027e-05H55.5128C55.1175 1.07027e-05 54.7384 0.157022 54.459 0.436505C54.1795 0.715989 54.0225 1.09505 54.0225 1.4903V17.6374C54.0225 18.0326 54.1795 18.4117 54.459 18.6912C54.7384 18.9706 55.1175 19.1277 55.5128 19.1277H71.33C71.7253 19.1277 72.1043 18.9706 72.3838 18.6912C72.6633 18.4117 72.8203 18.0326 72.8203 17.6374V1.49029C72.8203 1.09504 72.6633 0.715978 72.3838 0.436495C72.1043 0.157011 71.7253 1.07027e-05 71.33 1.07027e-05Z" fill="#E6E6E6"/>
<path d="M68.8636 4.98952H58.3104C58.2613 4.98982 58.2126 4.98041 58.1671 4.96182C58.1217 4.94324 58.0803 4.91584 58.0455 4.88122C58.0106 4.84659 57.983 4.80542 57.9641 4.76006C57.9453 4.71471 57.9355 4.66608 57.9355 4.61696C57.9355 4.56784 57.9453 4.51921 57.9641 4.47385C57.983 4.4285 58.0106 4.38733 58.0455 4.3527C58.0803 4.31808 58.1217 4.29068 58.1671 4.27209C58.2126 4.25351 58.2613 4.24409 58.3104 4.24439H68.8636C68.962 4.245 69.0562 4.28451 69.1256 4.35432C69.1949 4.42412 69.2339 4.51854 69.2339 4.61696C69.2339 4.71538 69.1949 4.80979 69.1256 4.8796C69.0562 4.9494 68.962 4.98892 68.8636 4.98952Z" fill="#36A9C0"/>
<path d="M68.8636 7.62795H58.3104C58.2613 7.62825 58.2126 7.61884 58.1671 7.60025C58.1217 7.58166 58.0803 7.55427 58.0455 7.51964C58.0106 7.48501 57.983 7.44384 57.9641 7.39849C57.9453 7.35314 57.9355 7.3045 57.9355 7.25538C57.9355 7.20626 57.9453 7.15763 57.9641 7.11228C57.983 7.06693 58.0106 7.02576 58.0455 6.99113C58.0803 6.9565 58.1217 6.92911 58.1671 6.91052C58.2126 6.89193 58.2613 6.88252 58.3104 6.88282H68.8636C68.962 6.88342 69.0562 6.92294 69.1256 6.99275C69.1949 7.06255 69.2339 7.15697 69.2339 7.25538C69.2339 7.3538 69.1949 7.44822 69.1256 7.51802C69.0562 7.58783 68.962 7.62735 68.8636 7.62795Z" fill="#36A9C0"/>
<path d="M68.8636 10.2661H58.3104C58.2613 10.2664 58.2126 10.257 58.1671 10.2384C58.1217 10.2198 58.0803 10.1924 58.0455 10.1578C58.0106 10.1232 57.983 10.082 57.9641 10.0367C57.9453 9.99132 57.9355 9.94269 57.9355 9.89357C57.9355 9.84445 57.9453 9.79581 57.9641 9.75046C57.983 9.70511 58.0106 9.66394 58.0455 9.62931C58.0803 9.59468 58.1217 9.56729 58.1671 9.5487C58.2126 9.53011 58.2613 9.5207 58.3104 9.521H68.8636C68.962 9.52161 69.0562 9.56112 69.1256 9.63093C69.1949 9.70073 69.2339 9.79515 69.2339 9.89357C69.2339 9.99198 69.1949 10.0864 69.1256 10.1562C69.0562 10.226 68.962 10.2655 68.8636 10.2661Z" fill="#36A9C0"/>
<path d="M68.8636 12.9044H58.3104C58.2613 12.9047 58.2126 12.8953 58.1671 12.8767C58.1217 12.8582 58.0803 12.8308 58.0455 12.7961C58.0106 12.7615 57.983 12.7203 57.9641 12.675C57.9453 12.6296 57.9355 12.581 57.9355 12.5319C57.9355 12.4828 57.9453 12.4341 57.9641 12.3888C57.983 12.3434 58.0106 12.3022 58.0455 12.2676C58.0803 12.233 58.1217 12.2056 58.1671 12.187C58.2126 12.1684 58.2613 12.159 58.3104 12.1593H68.8636C68.962 12.1599 69.0562 12.1994 69.1256 12.2692C69.1949 12.339 69.2339 12.4335 69.2339 12.5319C69.2339 12.6303 69.1949 12.7247 69.1256 12.7945C69.0562 12.8643 68.962 12.9038 68.8636 12.9044Z" fill="#36A9C0"/>
<path d="M68.8632 15.5429H58.3101C58.2113 15.5429 58.1165 15.5036 58.0466 15.4338C57.9768 15.3639 57.9375 15.2691 57.9375 15.1703C57.9375 15.0715 57.9768 14.9767 58.0466 14.9069C58.1165 14.837 58.2113 14.7977 58.3101 14.7977H68.8633C68.9621 14.7977 69.0568 14.837 69.1267 14.9069C69.1966 14.9767 69.2358 15.0715 69.2358 15.1703C69.2358 15.2691 69.1966 15.3639 69.1267 15.4338C69.0568 15.5036 68.9621 15.5429 68.8632 15.5429Z" fill="#36A9C0"/>
<path d="M125.091 31.7923C125.288 31.7925 125.478 31.8711 125.617 32.0108C125.757 32.1505 125.836 32.3398 125.836 32.5374V48.6845C125.836 48.882 125.757 49.0714 125.617 49.2111C125.478 49.3508 125.288 49.4294 125.091 49.4296H109.273C109.076 49.4294 108.887 49.3508 108.747 49.2111C108.607 49.0714 108.529 48.882 108.528 48.6845V32.5374C108.529 32.3399 108.607 32.1505 108.747 32.0108C108.887 31.8711 109.076 31.7925 109.273 31.7923L125.091 31.7923ZM125.091 31.0471H109.273C108.878 31.0471 108.499 31.2042 108.22 31.4836C107.94 31.7631 107.783 32.1422 107.783 32.5374V48.6845C107.783 49.0798 107.94 49.4588 108.22 49.7383C108.499 50.0178 108.878 50.1748 109.273 50.1748H125.091C125.486 50.1748 125.865 50.0178 126.145 49.7383C126.424 49.4588 126.581 49.0798 126.581 48.6845V32.5374C126.581 32.1422 126.424 31.7631 126.145 31.4836C125.865 31.2041 125.486 31.0471 125.091 31.0471Z" fill="#36A9C0"/>
<path d="M122.624 36.0366H112.071C112.022 36.0369 111.973 36.0275 111.928 36.0089C111.882 35.9904 111.841 35.963 111.806 35.9283C111.771 35.8937 111.744 35.8525 111.725 35.8072C111.706 35.7618 111.696 35.7132 111.696 35.6641C111.696 35.615 111.706 35.5663 111.725 35.521C111.744 35.4756 111.771 35.4344 111.806 35.3998C111.841 35.3652 111.882 35.3378 111.928 35.3192C111.973 35.3006 112.022 35.2912 112.071 35.2915H122.624C122.723 35.2921 122.817 35.3316 122.886 35.4014C122.956 35.4712 122.995 35.5657 122.995 35.6641C122.995 35.7625 122.956 35.8569 122.886 35.9267C122.817 35.9965 122.723 36.036 122.624 36.0366Z" fill="#36A9C0"/>
<path d="M122.624 38.675H112.071C111.972 38.675 111.877 38.6357 111.807 38.5658C111.737 38.496 111.698 38.4012 111.698 38.3024C111.698 38.2036 111.737 38.1088 111.807 38.0389C111.877 37.9691 111.972 37.9298 112.071 37.9298H122.624C122.723 37.9298 122.818 37.9691 122.887 38.0389C122.957 38.1088 122.997 38.2036 122.997 38.3024C122.997 38.4012 122.957 38.496 122.887 38.5658C122.818 38.6357 122.723 38.675 122.624 38.675Z" fill="#36A9C0"/>
<path d="M122.624 41.3132H112.071C112.022 41.3135 111.973 41.304 111.928 41.2854C111.882 41.2668 111.841 41.2394 111.806 41.2048C111.771 41.1702 111.744 41.129 111.725 41.0837C111.706 41.0384 111.696 40.9898 111.696 40.9407C111.696 40.8916 111.706 40.843 111.725 40.7977C111.744 40.7524 111.771 40.7112 111.806 40.6766C111.841 40.642 111.882 40.6146 111.928 40.5959C111.973 40.5773 112.022 40.5679 112.071 40.5681H122.624C122.722 40.5687 122.817 40.6082 122.886 40.678C122.955 40.7478 122.994 40.8423 122.994 40.9407C122.994 41.0391 122.955 41.1335 122.886 41.2033C122.817 41.2731 122.722 41.3126 122.624 41.3132Z" fill="#36A9C0"/>
<path d="M122.624 43.9517H112.071C112.022 43.952 111.973 43.9426 111.928 43.924C111.882 43.9054 111.841 43.878 111.806 43.8434C111.771 43.8087 111.744 43.7676 111.725 43.7222C111.706 43.6769 111.696 43.6282 111.696 43.5791C111.696 43.53 111.706 43.4814 111.725 43.436C111.744 43.3907 111.771 43.3495 111.806 43.3149C111.841 43.2802 111.882 43.2528 111.928 43.2342C111.973 43.2157 112.022 43.2062 112.071 43.2065H122.624C122.723 43.2072 122.817 43.2467 122.886 43.3165C122.956 43.3863 122.995 43.4807 122.995 43.5791C122.995 43.6775 122.956 43.772 122.886 43.8418C122.817 43.9116 122.723 43.9511 122.624 43.9517Z" fill="#36A9C0"/>
<path d="M122.624 46.59H112.071C112.022 46.5903 111.973 46.5809 111.928 46.5623C111.882 46.5437 111.841 46.5163 111.806 46.4817C111.771 46.4471 111.744 46.4059 111.725 46.3605C111.706 46.3152 111.696 46.2665 111.696 46.2174C111.696 46.1683 111.706 46.1197 111.725 46.0743C111.744 46.029 111.771 45.9878 111.806 45.9532C111.841 45.9185 111.882 45.8911 111.928 45.8726C111.973 45.854 112.022 45.8446 112.071 45.8449H122.624C122.723 45.8455 122.817 45.885 122.886 45.9548C122.956 46.0246 122.995 46.119 122.995 46.2174C122.995 46.3158 122.956 46.4103 122.886 46.4801C122.817 46.5499 122.723 46.5894 122.624 46.59Z" fill="#36A9C0"/>
<path d="M44.5258 19.1276H28.2943C27.8554 19.1271 27.4346 18.9525 27.1242 18.6422C26.8138 18.3318 26.6392 17.9109 26.6387 17.472V5.85749C26.6391 5.41852 26.8137 4.99765 27.1241 4.68723C27.4345 4.37681 27.8554 4.20219 28.2943 4.20166H44.5258C44.9648 4.20214 45.3857 4.37675 45.6961 4.68718C46.0065 4.9976 46.1811 5.41849 46.1816 5.85749V17.472C46.1811 17.911 46.0065 18.3318 45.696 18.6422C45.3856 18.9526 44.9648 19.1272 44.5258 19.1276ZM28.2943 4.9468C28.0529 4.9471 27.8215 5.04315 27.6508 5.21388C27.4801 5.38461 27.3841 5.61607 27.3838 5.85749V17.472C27.3841 17.7134 27.4801 17.9448 27.6508 18.1155C27.8215 18.2862 28.0529 18.3822 28.2943 18.3825H44.5258C44.7672 18.3823 44.9987 18.2863 45.1694 18.1156C45.3401 17.9449 45.4362 17.7134 45.4365 17.472V5.85749C45.4362 5.61605 45.3401 5.38459 45.1694 5.21386C44.9987 5.04314 44.7672 4.94709 44.5258 4.9468H28.2943Z" fill="#E6E6E6"/>
<path d="M41.6871 9.39895H31.134C31.0355 9.39834 30.9414 9.35883 30.872 9.28902C30.8026 9.21922 30.7637 9.1248 30.7637 9.02638C30.7637 8.92797 30.8026 8.83355 30.872 8.76374C30.9414 8.69394 31.0355 8.65442 31.134 8.65382H41.6871C41.7363 8.65351 41.785 8.66293 41.8304 8.68152C41.8759 8.70011 41.9172 8.7275 41.9521 8.76213C41.9869 8.79675 42.0146 8.83793 42.0334 8.88328C42.0523 8.92863 42.062 8.97726 42.062 9.02638C42.062 9.0755 42.0523 9.12414 42.0334 9.16949C42.0146 9.21484 41.9869 9.25601 41.9521 9.29064C41.9172 9.32527 41.8759 9.35266 41.8304 9.37125C41.785 9.38984 41.7363 9.39925 41.6871 9.39895Z" fill="#36A9C0"/>
<path d="M41.6871 12.0374H31.134C31.0355 12.0368 30.9414 11.9973 30.872 11.9274C30.8026 11.8576 30.7637 11.7632 30.7637 11.6648C30.7637 11.5664 30.8026 11.472 30.872 11.4022C30.9414 11.3324 31.0355 11.2928 31.134 11.2922H41.6871C41.7363 11.2919 41.785 11.3014 41.8304 11.3199C41.8759 11.3385 41.9172 11.3659 41.9521 11.4006C41.9869 11.4352 42.0146 11.4764 42.0334 11.5217C42.0523 11.5671 42.062 11.6157 42.062 11.6648C42.062 11.7139 42.0523 11.7626 42.0334 11.8079C42.0146 11.8533 41.9869 11.8944 41.9521 11.9291C41.9172 11.9637 41.8759 11.9911 41.8304 12.0097C41.785 12.0283 41.7363 12.0377 41.6871 12.0374Z" fill="#36A9C0"/>
<path d="M41.6871 14.6756H31.134C31.0355 14.675 30.9414 14.6354 30.872 14.5656C30.8026 14.4958 30.7637 14.4014 30.7637 14.303C30.7637 14.2046 30.8026 14.1102 30.872 14.0404C30.9414 13.9706 31.0355 13.931 31.134 13.9304H41.6871C41.7363 13.9301 41.785 13.9395 41.8304 13.9581C41.8759 13.9767 41.9172 14.0041 41.9521 14.0387C41.9869 14.0734 42.0146 14.1145 42.0334 14.1599C42.0523 14.2052 42.062 14.2539 42.062 14.303C42.062 14.3521 42.0523 14.4007 42.0334 14.4461C42.0146 14.4914 41.9869 14.5326 41.9521 14.5672C41.9172 14.6019 41.8759 14.6293 41.8304 14.6479C41.785 14.6664 41.7363 14.6759 41.6871 14.6756Z" fill="#36A9C0"/>
<path d="M98.3848 25.5636L82.7956 21.0427C82.3742 20.92 82.0186 20.6351 81.807 20.2505C81.5953 19.866 81.5449 19.4132 81.6666 18.9915L84.9015 7.83655C85.0243 7.41508 85.3092 7.05949 85.6937 6.84781C86.0783 6.63612 86.5311 6.58562 86.9529 6.70738L102.542 11.2282C102.964 11.351 103.319 11.6359 103.531 12.0205C103.742 12.4051 103.793 12.858 103.671 13.2797L100.436 24.4346C100.313 24.8561 100.029 25.2117 99.6439 25.4233C99.2593 25.635 98.8065 25.6854 98.3848 25.5636ZM86.7453 7.42304C86.5134 7.35608 86.2643 7.38387 86.0529 7.5003C85.8414 7.61673 85.6847 7.81229 85.6172 8.04409L82.3823 19.199C82.3153 19.4309 82.343 19.6799 82.4594 19.8914C82.5758 20.1029 82.7714 20.2596 83.0032 20.3271L98.5923 24.8479C98.8243 24.9149 99.0733 24.8872 99.2848 24.7708C99.4963 24.6544 99.653 24.4589 99.7206 24.2271L102.956 13.0722C103.022 12.8402 102.995 12.5912 102.878 12.3797C102.762 12.1681 102.566 12.0114 102.334 11.9439L86.7453 7.42304Z" fill="#E6E6E6"/>
<path d="M98.3676 15.4292L88.232 12.4898C88.1372 12.4622 88.0574 12.398 88.0099 12.3115C87.9624 12.225 87.9511 12.1232 87.9786 12.0284C88.0061 11.9337 88.0701 11.8537 88.1565 11.806C88.2429 11.7583 88.3447 11.7469 88.4395 11.7742L98.5751 14.7135C98.67 14.741 98.7501 14.8051 98.7977 14.8917C98.8454 14.9783 98.8567 15.0802 98.8291 15.1751C98.8016 15.27 98.7375 15.3501 98.651 15.3977C98.5644 15.4454 98.4625 15.4567 98.3676 15.4292Z" fill="#36A9C0"/>
<path d="M97.6329 17.9631L87.4973 15.0237C87.4503 15.0101 87.4065 14.9874 87.3683 14.9568C87.3301 14.9262 87.2983 14.8884 87.2747 14.8456C87.2511 14.8027 87.2362 14.7556 87.2308 14.707C87.2254 14.6583 87.2296 14.6091 87.2433 14.5621C87.2569 14.5151 87.2796 14.4713 87.3102 14.4331C87.3408 14.3949 87.3786 14.3631 87.4214 14.3395C87.4643 14.3159 87.5114 14.301 87.56 14.2956C87.6087 14.2902 87.6579 14.2944 87.7049 14.3081L97.8404 17.2474C97.9352 17.2751 98.015 17.3392 98.0625 17.4257C98.11 17.5122 98.1213 17.614 98.0938 17.7088C98.0663 17.8036 98.0023 17.8836 97.9159 17.9312C97.8295 17.9789 97.7277 17.9904 97.6329 17.9631Z" fill="#36A9C0"/>
<path d="M96.8978 20.4969L86.7622 17.5576C86.6675 17.5299 86.5876 17.4658 86.5401 17.3793C86.4926 17.2928 86.4814 17.191 86.5089 17.0962C86.5364 17.0014 86.6003 16.9214 86.6867 16.8737C86.7732 16.8261 86.875 16.8146 86.9698 16.8419L97.1054 19.7813C97.2003 19.8088 97.2803 19.8729 97.328 19.9594C97.3756 20.046 97.3869 20.148 97.3594 20.2429C97.3319 20.3378 97.2678 20.4178 97.1812 20.4655C97.0947 20.5131 96.9927 20.5244 96.8978 20.4969Z" fill="#36A9C0"/>
<path d="M200 142.1H36.498V142.802H200V142.1Z" fill="#E6E6E6"/>
<path d="M131.431 141.003H104.843L105.744 129.287H130.529L131.431 141.003Z" fill="#E6E6E6"/>
<path d="M133.232 139.652H103.49V142.356H133.232V139.652Z" fill="#E6E6E6"/>
<path d="M169.059 53.8048H67.4392C66.7221 53.8048 66.0344 54.0897 65.5273 54.5968C65.0202 55.1038 64.7354 55.7915 64.7354 56.5087V118.472H171.762V56.5087C171.762 56.1536 171.693 55.802 171.557 55.4739C171.421 55.1459 171.222 54.8478 170.971 54.5968C170.719 54.3457 170.421 54.1465 170.093 54.0106C169.765 53.8747 169.414 53.8048 169.059 53.8048Z" fill="#3F3D56"/>
<path d="M64.7354 118.472V128.611C64.7354 128.966 64.8053 129.318 64.9412 129.646C65.0771 129.974 65.2762 130.272 65.5273 130.523C65.7784 130.774 66.0764 130.973 66.4045 131.109C66.7325 131.245 67.0841 131.315 67.4392 131.315H169.059C169.776 131.315 170.463 131.03 170.971 130.523C171.478 130.016 171.762 129.328 171.762 128.611V118.472H64.7354Z" fill="#E6E6E6"/>
<path d="M166.581 59.4377H70.1436V113.515H166.581V59.4377Z" fill="#E6E6E6"/>
<path d="M118.362 127.484C119.855 127.484 121.066 126.274 121.066 124.781C121.066 123.287 119.855 122.077 118.362 122.077C116.869 122.077 115.658 123.287 115.658 124.781C115.658 126.274 116.869 127.484 118.362 127.484Z" fill="#3F3D56"/>
<path d="M73.1498 61.7218C73.4332 61.7218 73.663 61.4921 73.663 61.2087C73.663 60.9253 73.4332 60.6956 73.1498 60.6956C72.8665 60.6956 72.6367 60.9253 72.6367 61.2087C72.6367 61.4921 72.8665 61.7218 73.1498 61.7218Z" fill="white"/>
<path d="M75.0981 61.7218C75.3815 61.7218 75.6112 61.4921 75.6112 61.2087C75.6112 60.9253 75.3815 60.6956 75.0981 60.6956C74.8147 60.6956 74.585 60.9253 74.585 61.2087C74.585 61.4921 74.8147 61.7218 75.0981 61.7218Z" fill="white"/>
<path d="M77.0453 61.7218C77.3287 61.7218 77.5585 61.4921 77.5585 61.2087C77.5585 60.9253 77.3287 60.6956 77.0453 60.6956C76.762 60.6956 76.5322 60.9253 76.5322 61.2087C76.5322 61.4921 76.762 61.7218 77.0453 61.7218Z" fill="white"/>
<path d="M163.801 62.9523H72.6367V108.368H163.801V62.9523Z" fill="white"/>
<path d="M78.6973 69.8602C78.6118 69.8603 78.5299 69.8943 78.4695 69.9547C78.4091 70.0151 78.3751 70.0971 78.375 70.1825V86.473C78.3751 86.5584 78.4091 86.6403 78.4695 86.7008C78.5299 86.7612 78.6118 86.7952 78.6973 86.7953H97.5101C97.5956 86.7952 97.6775 86.7612 97.7379 86.7008C97.7983 86.6403 97.8323 86.5584 97.8324 86.473V70.1825C97.8323 70.0971 97.7983 70.0151 97.7379 69.9547C97.6775 69.8943 97.5956 69.8603 97.5101 69.8602H78.6973Z" fill="#E6E6E6"/>
<path d="M108.903 69.9127C108.818 69.9128 108.736 69.9468 108.676 70.0072C108.615 70.0676 108.581 70.1495 108.581 70.235V86.4731C108.581 86.5585 108.615 86.6405 108.676 86.7009C108.736 86.7613 108.818 86.7953 108.903 86.7953H127.656C127.742 86.7952 127.824 86.7612 127.884 86.7008C127.945 86.6404 127.978 86.5585 127.979 86.4731V70.235C127.978 70.1496 127.945 70.0677 127.884 70.0072C127.824 69.9468 127.742 69.9128 127.656 69.9127H108.903Z" fill="#E6E6E6"/>
<path d="M138.793 69.7424C138.707 69.7425 138.626 69.7765 138.565 69.837C138.505 69.8974 138.471 69.9793 138.471 70.0647V86.473C138.471 86.5584 138.505 86.6403 138.565 86.7007C138.626 86.7612 138.707 86.7952 138.793 86.7953H157.741C157.826 86.7952 157.908 86.7612 157.969 86.7007C158.029 86.6403 158.063 86.5584 158.063 86.473V70.0647C158.063 69.9793 158.029 69.8974 157.969 69.837C157.908 69.7765 157.826 69.7425 157.741 69.7424H138.793Z" fill="#E6E6E6"/>
<path d="M79.041 94.859C78.8645 94.8593 78.6954 94.9297 78.5707 95.0546C78.446 95.1795 78.376 95.3488 78.376 95.5253C78.376 95.7018 78.446 95.8711 78.5707 95.996C78.6954 96.1209 78.8645 96.1913 79.041 96.1916H96.7288C96.9053 96.1913 97.0745 96.1209 97.1992 95.996C97.3239 95.8711 97.3939 95.7018 97.3939 95.5253C97.3939 95.3488 97.3239 95.1795 97.1992 95.0546C97.0745 94.9297 96.9053 94.8593 96.7288 94.859H79.041Z" fill="#E6E6E6"/>
<path d="M79.0411 98.0283C78.8646 98.0287 78.6954 98.099 78.5707 98.2239C78.446 98.3489 78.376 98.5182 78.376 98.6947C78.376 98.8712 78.446 99.0405 78.5707 99.1654C78.6954 99.2904 78.8646 99.3607 79.0411 99.361H87.0049C87.1814 99.3607 87.3506 99.2904 87.4753 99.1654C87.6 99.0405 87.67 98.8712 87.67 98.6947C87.67 98.5182 87.6 98.3489 87.4753 98.2239C87.3506 98.099 87.1814 98.0287 87.0049 98.0283H79.0411Z" fill="#36A9C0"/>
<path d="M109.572 94.859C109.396 94.8593 109.227 94.9297 109.102 95.0546C108.977 95.1795 108.907 95.3488 108.907 95.5253C108.907 95.7018 108.977 95.8711 109.102 95.996C109.227 96.1209 109.396 96.1913 109.572 96.1916H127.26C127.437 96.1913 127.606 96.1209 127.73 95.996C127.855 95.8711 127.925 95.7018 127.925 95.5253C127.925 95.3488 127.855 95.1795 127.73 95.0546C127.606 94.9297 127.437 94.8593 127.26 94.859H109.572Z" fill="#E6E6E6"/>
<path d="M109.572 98.0283C109.396 98.0287 109.227 98.099 109.102 98.2239C108.977 98.3489 108.907 98.5182 108.907 98.6947C108.907 98.8712 108.977 99.0405 109.102 99.1654C109.227 99.2904 109.396 99.3607 109.572 99.361H117.536C117.713 99.3607 117.882 99.2904 118.007 99.1654C118.131 99.0405 118.201 98.8712 118.201 98.6947C118.201 98.5182 118.131 98.3489 118.007 98.2239C117.882 98.099 117.713 98.0287 117.536 98.0283H109.572Z" fill="#36A9C0"/>
<path d="M139.34 94.859C139.163 94.8593 138.994 94.9297 138.87 95.0546C138.745 95.1795 138.675 95.3488 138.675 95.5253C138.675 95.7018 138.745 95.8711 138.87 95.996C138.994 96.1209 139.163 96.1913 139.34 96.1916H157.028C157.204 96.1913 157.373 96.1209 157.498 95.996C157.623 95.8711 157.693 95.7018 157.693 95.5253C157.693 95.3488 157.623 95.1795 157.498 95.0546C157.373 94.9297 157.204 94.8593 157.028 94.859H139.34Z" fill="#E6E6E6"/>
<path d="M79.041 91.5857C78.8645 91.586 78.6954 91.6564 78.5707 91.7813C78.446 91.9062 78.376 92.0755 78.376 92.252C78.376 92.4285 78.446 92.5978 78.5707 92.7227C78.6954 92.8476 78.8645 92.918 79.041 92.9183H96.7288C96.9053 92.918 97.0745 92.8476 97.1992 92.7227C97.3239 92.5978 97.3939 92.4285 97.3939 92.252C97.3939 92.0755 97.3239 91.9062 97.1992 91.7813C97.0745 91.6564 96.9053 91.586 96.7288 91.5857H79.041Z" fill="#E6E6E6"/>
<path d="M109.572 91.5857C109.396 91.586 109.227 91.6564 109.102 91.7813C108.977 91.9062 108.907 92.0755 108.907 92.252C108.907 92.4285 108.977 92.5978 109.102 92.7227C109.227 92.8476 109.396 92.918 109.572 92.9183H127.26C127.437 92.918 127.606 92.8476 127.73 92.7227C127.855 92.5978 127.925 92.4285 127.925 92.252C127.925 92.0755 127.855 91.9062 127.73 91.7813C127.606 91.6564 127.437 91.586 127.26 91.5857H109.572Z" fill="#E6E6E6"/>
<path d="M139.34 91.5857C139.163 91.586 138.994 91.6564 138.87 91.7813C138.745 91.9062 138.675 92.0755 138.675 92.252C138.675 92.4285 138.745 92.5978 138.87 92.7227C138.994 92.8476 139.163 92.918 139.34 92.9183H157.028C157.204 92.918 157.373 92.8476 157.498 92.7227C157.623 92.5978 157.693 92.4285 157.693 92.252C157.693 92.0755 157.623 91.9062 157.498 91.7813C157.373 91.6564 157.204 91.586 157.028 91.5857H139.34Z" fill="#E6E6E6"/>
<path d="M139.34 98.0283C139.163 98.0287 138.994 98.099 138.87 98.2239C138.745 98.3489 138.675 98.5182 138.675 98.6947C138.675 98.8712 138.745 99.0405 138.87 99.1654C138.994 99.2904 139.163 99.3607 139.34 99.361H147.304C147.48 99.3607 147.649 99.2904 147.774 99.1654C147.899 99.0405 147.969 98.8712 147.969 98.6947C147.969 98.5182 147.899 98.3489 147.774 98.2239C147.649 98.099 147.48 98.0287 147.304 98.0283H139.34Z" fill="#36A9C0"/>
</g>
<defs>
<clipPath id="clip0_816_3122">
<rect width="200" height="142.802" fill="white"/>
</clipPath>
</defs>
</svg>
