<svg width="200" height="120" viewBox="0 0 200 120" fill="none" xmlns="http://www.w3.org/2000/svg">
<g clip-path="url(#clip0_816_3181)">
<path d="M89.6882 117.002C88.1945 117.001 86.725 117.38 85.4189 118.105H93.9466C92.6443 117.381 91.1785 117.001 89.6882 117.002Z" fill="#E6E6E6"/>
<path d="M106.235 115.899C103.74 115.896 101.305 116.667 99.2666 118.105H113.195C111.159 116.668 108.727 115.898 106.235 115.899Z" fill="#E6E6E6"/>
<path d="M199.971 101.934C199.348 90.6353 190.27 81.4235 178.981 80.6514C173.778 80.2857 168.607 81.7299 164.346 84.7395C160.085 87.749 156.995 92.1389 155.6 97.1655C155.326 97.1557 155.052 97.1447 154.776 97.1447C149.89 97.1456 145.136 98.7284 141.224 101.656C137.313 104.584 134.455 108.7 133.077 113.388C129.839 111.965 126.221 111.657 122.79 112.51C119.358 113.364 116.306 115.332 114.112 118.105H184.657C193.323 118.105 200.341 110.927 199.987 102.267C199.983 102.156 199.977 102.045 199.971 101.934Z" fill="#E6E6E6"/>
<path d="M198.139 117.872H0V118.339H198.139V117.872Z" fill="#3F3D56"/>
<path d="M66.1269 42.064C66.1269 42.064 57.1337 39.2626 58.5142 43.8716C59.8948 48.4805 67.4697 46.1524 67.4697 46.1524L66.1269 42.064Z" fill="#FFB8B8"/>
<path d="M100.504 24.7648C100.504 24.7648 95.8949 18.4666 91.4171 25.0049C86.9306 31.556 82.7593 36.9341 82.7593 36.9341L71.6164 40.5672L65.1699 41.1392L66.9458 46.8706L85.6893 44.1514C85.6893 44.1514 106.557 31.7557 100.504 24.7648Z" fill="#2F2E41"/>
<path d="M79.932 59.6437C79.932 59.6437 72.9306 64.5446 73.3973 68.9789C73.8641 73.4131 76.898 85.5488 76.898 85.5488L83.1993 84.6153C83.1993 84.6153 83.8994 75.2801 81.5656 71.7794L92.7678 65.4782L79.932 59.6437Z" fill="#FFB8B8"/>
<path d="M95.4526 71.1959C95.4526 71.1959 94.9858 79.831 96.1527 83.3317C97.3196 86.8323 98.4865 99.9016 98.4865 99.9016H105.021C105.021 99.9016 108.055 88.466 104.321 83.3317C104.321 83.3317 103.154 76.5636 106.421 73.2963L95.4526 71.1959Z" fill="#FFB8B8"/>
<path d="M93.9353 47.2745C93.9353 47.2745 78.7656 56.8431 78.7656 59.877L90.9014 69.9123L95.1022 65.2447L94.6354 72.2461L107.705 74.8133C107.705 74.8133 112.372 57.0764 112.139 56.3763C111.905 55.6762 111.205 45.4075 111.205 45.4075L93.9353 47.2745Z" fill="#2F2E41"/>
<path d="M83.1996 83.4484L76.4316 84.8486L77.6341 89.7922C78.226 92.2253 78.2934 94.7565 77.8319 97.2177C77.8319 97.2177 84.8333 99.0848 84.8333 98.1513C84.8333 97.2177 83.1996 93.4837 83.6664 90.9165C84.1332 88.3493 83.1996 83.4484 83.1996 83.4484Z" fill="#36A9C0"/>
<path d="M86.7003 100.952C86.467 100.018 84.5279 95.7858 84.4472 96.5018C84.3665 97.2177 80.6325 98.3846 79.2322 96.9844C79.2322 96.9844 77.3652 95.3507 76.665 96.9844C75.9649 98.618 74.5646 101.419 74.5646 101.419C74.5646 101.419 68.2634 104.453 69.1969 106.086C69.3857 106.417 69.9088 106.556 70.623 106.568C70.6062 106.611 70.5975 106.657 70.5972 106.704V106.869C70.5972 106.971 70.6376 107.069 70.7097 107.141C70.7817 107.213 70.8794 107.253 70.9812 107.253H71.1466C71.2485 107.253 71.3462 107.213 71.4182 107.141C71.4902 107.069 71.5307 106.971 71.5307 106.869V106.704C71.5303 106.644 71.5159 106.585 71.4887 106.532C71.6796 106.516 71.8776 106.494 72.0812 106.467C72.0273 106.534 71.9978 106.617 71.9974 106.704V106.869C71.9974 106.971 72.0379 107.069 72.1099 107.141C72.182 107.213 72.2797 107.253 72.3815 107.253H72.5469C72.6488 107.253 72.7464 107.213 72.8185 107.141C72.8905 107.069 72.931 106.971 72.931 106.869V106.704C72.9308 106.635 72.9123 106.568 72.8773 106.509C72.8424 106.45 72.7923 106.402 72.7323 106.369C73.2695 106.28 73.8301 106.166 74.3876 106.039C74.351 106.099 74.3315 106.167 74.3312 106.237V106.402C74.3312 106.504 74.3717 106.602 74.4437 106.674C74.5158 106.746 74.6134 106.786 74.7153 106.786H74.8807C74.9825 106.786 75.0802 106.746 75.1523 106.674C75.2243 106.602 75.2648 106.504 75.2648 106.402V106.237C75.2647 106.163 75.2431 106.09 75.2026 106.028C75.162 105.966 75.1043 105.916 75.0364 105.886C75.4545 105.784 75.8644 105.678 76.2544 105.573C76.218 105.632 76.1986 105.7 76.1983 105.77V105.935C76.1983 106.037 76.2387 106.135 76.3108 106.207C76.3828 106.279 76.4805 106.32 76.5823 106.32H76.7477C76.8496 106.32 76.9473 106.279 77.0193 106.207C77.0913 106.135 77.1318 106.037 77.1318 105.935V105.77C77.1316 105.688 77.1053 105.609 77.0567 105.543C77.0081 105.478 76.9398 105.429 76.8617 105.405C78.2323 105.019 79.2322 104.686 79.2322 104.686C79.2322 104.686 80.3934 104.263 81.7994 103.693V103.835C81.7994 103.937 81.8398 104.035 81.9119 104.107C81.9839 104.179 82.0816 104.219 82.1834 104.219H82.3488C82.4507 104.219 82.5484 104.179 82.6204 104.107C82.6924 104.035 82.7329 103.937 82.7329 103.835V103.67C82.7327 103.611 82.7193 103.554 82.6935 103.502C82.6678 103.45 82.6304 103.404 82.5844 103.368C82.8666 103.25 83.1514 103.128 83.433 103.004V103.135C83.433 103.237 83.4735 103.334 83.5455 103.407C83.6175 103.479 83.7152 103.519 83.8171 103.519H83.9825C84.0843 103.519 84.182 103.479 84.2541 103.407C84.3261 103.334 84.3665 103.237 84.3666 103.135V102.97C84.3665 102.908 84.3516 102.847 84.3229 102.792C84.2943 102.737 84.2529 102.69 84.2022 102.655C84.5067 102.513 84.8 102.371 85.0704 102.232C85.0692 102.245 85.0667 102.257 85.0667 102.269V102.435C85.0667 102.537 85.1071 102.634 85.1792 102.706C85.2512 102.778 85.3489 102.819 85.4508 102.819H85.6161C85.718 102.819 85.8157 102.778 85.8877 102.706C85.9597 102.634 86.0002 102.537 86.0002 102.435V102.269C86.0002 102.181 85.9696 102.095 85.9136 102.026C85.8576 101.958 85.7796 101.911 85.6929 101.893C86.3454 101.514 86.7569 101.178 86.7003 100.952Z" fill="#2F2E41"/>
<path d="M105.488 98.8514L98.0941 98.3846C98.0941 98.3846 98.5422 106.086 97.6461 108.653C96.7499 111.221 97.198 112.154 97.198 112.154L103.695 112.621L105.488 98.8514Z" fill="#36A9C0"/>
<path d="M105.578 115.873C105.544 114.911 104.531 110.367 104.302 111.051C104.074 111.734 100.179 112.097 99.1012 110.435C99.1012 110.435 97.6159 108.448 96.5905 109.9C95.5651 111.352 93.6117 113.799 93.6117 113.799C93.6117 113.799 86.8163 115.452 87.3887 117.245C87.5045 117.607 87.987 117.853 88.683 118.014C88.6576 118.052 88.6394 118.095 88.6295 118.141L88.595 118.302C88.5738 118.402 88.593 118.506 88.6484 118.591C88.7038 118.677 88.7909 118.737 88.8905 118.758L89.0523 118.793C89.1519 118.814 89.2559 118.795 89.3413 118.739C89.4268 118.684 89.4867 118.597 89.508 118.497L89.5425 118.335C89.5545 118.277 89.5527 118.217 89.5371 118.159C89.7273 118.183 89.9256 118.202 90.1303 118.219C90.0635 118.273 90.0172 118.348 89.999 118.433L89.9645 118.594C89.9432 118.694 89.9625 118.798 90.0179 118.883C90.0733 118.969 90.1604 119.029 90.26 119.05L90.4218 119.085C90.5214 119.106 90.6254 119.087 90.7108 119.031C90.7963 118.976 90.8562 118.889 90.8775 118.789L90.912 118.627C90.9261 118.56 90.9219 118.491 90.9 118.426C90.8781 118.361 90.8392 118.303 90.7874 118.259C91.3315 118.283 91.9036 118.289 92.4751 118.281C92.427 118.332 92.3936 118.394 92.3788 118.463L92.3443 118.624C92.3231 118.724 92.3423 118.828 92.3977 118.914C92.4531 118.999 92.5402 119.059 92.6398 119.08L92.8016 119.115C92.9012 119.136 93.0052 119.117 93.0906 119.061C93.1761 119.006 93.2361 118.919 93.2573 118.819L93.2918 118.657C93.3072 118.585 93.3012 118.509 93.2745 118.44C93.2479 118.371 93.2017 118.311 93.1415 118.267C93.5717 118.254 93.9947 118.236 94.3981 118.214C94.3501 118.265 94.3169 118.327 94.3021 118.395L94.2676 118.557C94.2464 118.657 94.2656 118.761 94.321 118.846C94.3764 118.932 94.4635 118.992 94.5632 119.013L94.7249 119.047C94.8245 119.069 94.9285 119.049 95.0139 118.994C95.0994 118.939 95.1594 118.852 95.1806 118.752L95.2151 118.59C95.2319 118.51 95.2228 118.427 95.1889 118.353C95.1551 118.278 95.0984 118.217 95.027 118.177C96.448 118.085 97.4954 117.968 97.4954 117.968C97.4954 117.968 98.7192 117.797 100.213 117.531L100.184 117.671C100.162 117.77 100.182 117.874 100.237 117.96C100.292 118.045 100.379 118.105 100.479 118.127L100.641 118.161C100.74 118.182 100.844 118.163 100.93 118.108C101.015 118.052 101.075 117.965 101.097 117.866L101.131 117.704C101.143 117.647 101.142 117.588 101.128 117.531C101.113 117.475 101.086 117.423 101.049 117.378C101.349 117.321 101.653 117.261 101.955 117.198L101.927 117.327C101.906 117.426 101.925 117.53 101.981 117.616C102.036 117.701 102.123 117.761 102.223 117.782L102.385 117.817C102.484 117.838 102.588 117.819 102.674 117.764C102.759 117.708 102.819 117.621 102.84 117.521L102.875 117.36C102.888 117.299 102.886 117.237 102.869 117.177C102.852 117.118 102.822 117.063 102.78 117.018C103.107 116.942 103.423 116.865 103.717 116.785C103.713 116.797 103.708 116.808 103.705 116.821L103.671 116.983C103.65 117.082 103.669 117.186 103.724 117.272C103.78 117.357 103.867 117.417 103.967 117.438L104.128 117.473C104.228 117.494 104.332 117.475 104.417 117.419C104.503 117.364 104.563 117.277 104.584 117.177L104.618 117.015C104.637 116.929 104.625 116.839 104.584 116.76C104.544 116.681 104.478 116.619 104.396 116.583C105.114 116.349 105.586 116.106 105.578 115.873Z" fill="#2F2E41"/>
<path d="M93.935 16.9352C97.6729 16.9352 100.703 13.905 100.703 10.1672C100.703 6.42931 97.6729 3.39917 93.935 3.39917C90.1971 3.39917 87.167 6.42931 87.167 10.1672C87.167 13.905 90.1971 16.9352 93.935 16.9352Z" fill="#FFB8B8"/>
<path d="M100.004 9.46704C100.004 9.46704 103.738 14.1346 105.605 13.9012L97.4364 20.2025C97.4364 20.2025 96.5028 16.235 95.3359 15.7683C94.169 15.3015 100.004 9.46704 100.004 9.46704Z" fill="#FFB8B8"/>
<path d="M114.589 44.1239C114.589 44.1239 114.589 18.3713 110.269 16.1529C105.951 13.9358 103.095 12.6704 103.095 12.6704C103.032 13.5154 102.792 14.3377 102.39 15.0841C101.989 15.8305 101.436 16.4844 100.766 17.0036C99.3346 18.1088 97.9084 19.0252 97.1116 19.0282L97.086 18.9189L96.9888 18.6414L94.6355 22.3029C94.6355 22.3029 92.5351 22.7696 91.8349 24.1699C91.4561 24.9275 93.2423 32.5536 92.185 39.4563C91.2879 45.3126 87.5078 50.5992 87.4007 51.2419C87.2196 52.3284 91.814 49.4818 93.8829 48.151C93.9135 48.1852 93.9353 48.208 93.9353 48.208C93.9353 48.208 92.7684 48.6748 95.1022 47.9746C96.4246 47.5779 98.2709 47.5559 99.6233 47.6113C99.6216 48.0168 99.6312 48.3389 99.6531 48.5581C99.8865 50.8919 111.555 54.1592 113.189 53.459C114.823 52.7589 114.589 44.1239 114.589 44.1239Z" fill="#2F2E41"/>
<path d="M106.421 52.9923C106.421 52.9923 99.4193 59.2936 104.087 60.4604C108.754 61.6273 110.622 53.9258 110.622 53.9258L106.421 52.9923Z" fill="#FFB8B8"/>
<path d="M98.2529 69.3289C98.2529 69.3289 101.52 66.2949 103.387 67.9286C105.254 69.5623 106.421 70.7292 106.421 70.7292C106.421 70.7292 101.053 67.4618 98.2529 69.3289Z" fill="#36A9C0"/>
<path d="M99.1016 105.631C99.1016 105.631 100.943 103.921 101.995 104.841C103.048 105.762 103.705 106.42 103.705 106.42C103.705 106.42 100.68 104.578 99.1016 105.631Z" fill="#2F2E41"/>
<path d="M78.4697 89.7248C78.4697 89.7248 79.7339 87.5529 81.0087 88.1276C82.2834 88.7022 83.1041 89.14 83.1041 89.14C83.1041 89.14 79.6736 88.2587 78.4697 89.7248Z" fill="#2F2E41"/>
<path d="M112.826 19.3551C110.512 14.7048 103.473 17.2411 104.617 22.3075C104.634 22.3831 104.652 22.4593 104.67 22.5363C105.876 27.3323 107.846 31.9028 110.505 36.0723L107.938 47.5079L105.137 53.3424L110.972 54.7427L118.206 37.2392C118.206 37.2392 116.211 26.16 112.826 19.3551Z" fill="#2F2E41"/>
<path opacity="0.2" d="M109.455 36.4224L105.021 53.2257L108.755 45.2908L109.455 36.4224Z" fill="black"/>
<path d="M98.1853 2.27809C98.1853 2.27809 94.4442 -1.66053 90.6785 0.819865C86.9129 3.30026 85.1266 5.70973 85.4958 7.38739C85.865 9.06506 86.9577 11.3986 86.9577 11.3986C86.9577 11.3986 86.2786 7.92297 89.3966 7.66577C92.5147 7.40857 96.8225 5.3451 96.8225 5.3451L99.7364 11.5679C99.7364 11.5679 100.148 10.1259 101.29 10.5395C102.433 10.9531 101.547 2.73942 98.1853 2.27809Z" fill="#2F2E41"/>
<path d="M74.2151 91.2666C74.2148 91.8577 74.1657 92.4478 74.0681 93.0309V93.0332C73.8001 94.6016 73.1793 96.0887 72.2526 97.3821C71.3259 98.6755 70.1174 99.7415 68.7185 100.5C67.3196 101.258 65.7668 101.688 64.1772 101.758C62.5876 101.829 61.0029 101.537 59.5425 100.905H59.5402C59.1081 100.719 58.6893 100.503 58.2869 100.259C57.0397 99.5057 55.9626 98.5017 55.1237 97.3106C54.2849 96.1194 53.7027 94.767 53.414 93.339C53.2786 92.6565 53.2106 91.9623 53.2109 91.2666C53.2109 90.9492 53.2249 90.6341 53.2529 90.3237V90.3214C53.4951 87.6415 54.7567 85.1568 56.7775 83.3799C58.7982 81.6031 61.424 80.6697 64.1128 80.7724C66.8017 80.8751 69.3486 82.006 71.2279 83.9318C73.1073 85.8576 74.1757 88.4313 74.2127 91.1219V91.1242C74.2151 91.1732 74.2151 91.2175 74.2151 91.2666Z" fill="#36A9C0"/>
<path d="M66.2977 87.7588H61.5941L59.2422 83.6863L60.8374 80.9213L60.9307 80.8962C62.9501 80.3566 65.083 80.4162 67.0692 81.0679L67.1537 81.0959L68.6496 83.6863L66.2977 87.7588ZM61.8635 87.2921H66.0283L68.1106 83.6863L66.8389 81.4838C64.9933 80.8985 63.0205 80.8426 61.1448 81.3224L59.7812 83.6863L61.8635 87.2921Z" fill="white"/>
<path d="M66.0643 96.1606H61.3607L59.0088 92.0872L61.3607 88.0138H66.0643L68.4162 92.0872L66.0643 96.1606ZM61.6301 95.6939H65.7949L67.8772 92.0872L65.7949 88.4806H61.6301L59.5478 92.0872L61.6301 95.6939Z" fill="white"/>
<path d="M63.7124 102.002C62.2455 102.005 60.794 101.704 59.4489 101.119L59.209 101.015L61.5938 96.8816H66.2975L68.5819 100.839L68.355 100.947C66.907 101.645 65.3197 102.006 63.7124 102.002ZM59.8763 100.792C61.1595 101.309 62.5337 101.561 63.9166 101.533C65.2995 101.506 66.6627 101.2 67.9245 100.633L66.0282 97.3484H61.8634L59.8763 100.792Z" fill="white"/>
<path d="M73.9989 91.9596H69.2953L66.9434 87.8871L69.2952 83.8123H71.4369L71.506 83.885C73.3634 85.839 74.4133 88.423 74.4453 91.1188V91.1865L73.9989 91.9596ZM69.5647 91.4928H73.7295L73.9777 91.0632C73.9326 88.5408 72.9559 86.1243 71.2357 84.279H69.5648L67.4824 87.8871L69.5647 91.4928Z" fill="white"/>
<path d="M69.2304 100.481L66.9434 96.5222L69.2952 92.4474H73.9986L74.3006 92.9679L74.2973 93.0723C74.0424 94.5585 73.4778 95.9745 72.6402 97.2285C71.8027 98.4824 70.7109 99.5463 69.4357 100.351L69.2304 100.481ZM67.4824 96.5222L69.3902 99.8241C70.546 99.0562 71.5345 98.0624 72.2964 96.9026C73.0582 95.7427 73.5775 94.4408 73.8232 93.0751L73.7297 92.9141H69.5648L67.4824 96.5222Z" fill="white"/>
<path d="M58.3691 100.581L58.1654 100.458C56.8909 99.6881 55.7902 98.6617 54.9328 97.4441C54.0754 96.2266 53.48 94.8443 53.1843 93.3848L53.167 93.2984L53.6588 92.4474H58.3625L60.7143 96.5222L58.3691 100.581ZM53.6596 93.3789C53.9431 94.7188 54.491 95.9887 55.2715 97.1142C56.0519 98.2397 57.049 99.1982 58.2045 99.9335L60.1753 96.5222L58.0929 92.9141H53.9282L53.6596 93.3789Z" fill="white"/>
<path d="M58.3632 91.4929H53.6597L53.0195 90.3864V90.3237C53.25 87.6789 54.4551 85.2141 56.4009 83.408L56.4681 83.3456H58.3633L60.7151 87.4204L58.3632 91.4929ZM53.9289 91.0261H58.0938L60.1761 87.4204L58.0937 83.8123H56.6523C54.8518 85.5116 53.7289 87.8064 53.492 90.2708L53.9289 91.0261Z" fill="white"/>
</g>
<defs>
<clipPath id="clip0_816_3181">
<rect width="200" height="119.123" fill="white"/>
</clipPath>
</defs>
</svg>
