<svg width="208" height="97" viewBox="0 0 208 97" fill="none" xmlns="http://www.w3.org/2000/svg">
<path d="M0.962963 95.3333V24.8899L27.995 0.962963H207.037V68.3806L179.743 95.3333H0.962963Z" stroke="white" stroke-width="1.92593"/>
<path d="M35.258 48.608H42.122V56H40.406V54.152H40.142C39.8927 54.7973 39.4527 55.318 38.822 55.714C38.1913 56.11 37.458 56.308 36.622 56.308C34.9647 56.308 33.6593 55.7727 32.706 54.702C31.7673 53.6313 31.298 52.0693 31.298 50.016V46.584C31.298 44.5893 31.7747 43.042 32.728 41.942C33.6813 40.842 35.0087 40.292 36.71 40.292C37.59 40.292 38.3673 40.4387 39.042 40.732C39.7167 41.0107 40.2813 41.4067 40.736 41.92C41.1907 42.4187 41.5353 43.0127 41.77 43.702C42.0047 44.3767 42.122 45.1027 42.122 45.88V46.144H40.274V45.88C40.274 45.3813 40.2007 44.8973 40.054 44.428C39.922 43.9587 39.7093 43.548 39.416 43.196C39.1373 42.8293 38.7707 42.5433 38.316 42.338C37.876 42.118 37.3407 42.008 36.71 42.008C35.522 42.008 34.6273 42.4407 34.026 43.306C33.4393 44.1713 33.146 45.308 33.146 46.716V49.884C33.146 51.3947 33.4393 52.5607 34.026 53.382C34.6273 54.1887 35.5367 54.592 36.754 54.592C37.854 54.592 38.712 54.24 39.328 53.536C39.9587 52.832 40.274 51.8493 40.274 50.588V50.324H35.258V48.608ZM45.5387 40.6H54.8667V42.316H47.3867V47.42H54.7347V49.136H47.3867V54.284H54.9987V56H45.5387V40.6ZM58.2614 40.6H69.0854V42.316H64.5974V56H62.7494V42.316H58.2614V40.6ZM94.2448 45.044C94.2448 44.5453 94.1421 44.1053 93.9368 43.724C93.7461 43.3427 93.4821 43.0273 93.1448 42.778C92.8075 42.5287 92.4188 42.338 91.9788 42.206C91.5388 42.074 91.0768 42.008 90.5928 42.008C90.1675 42.008 89.7641 42.0667 89.3828 42.184C89.0015 42.2867 88.6568 42.4407 88.3488 42.646C88.0555 42.8513 87.8208 43.108 87.6448 43.416C87.4688 43.7093 87.3808 44.054 87.3808 44.45V44.582C87.3808 45.0073 87.4688 45.374 87.6448 45.682C87.8208 45.9753 88.0775 46.232 88.4148 46.452C88.7668 46.6573 89.1995 46.8333 89.7128 46.98C90.2261 47.112 90.8275 47.2293 91.5168 47.332C93.1301 47.5813 94.3181 48.058 95.0808 48.762C95.8435 49.4513 96.2248 50.3827 96.2248 51.556V51.82C96.2248 52.48 96.1075 53.0887 95.8728 53.646C95.6528 54.1887 95.3155 54.658 94.8608 55.054C94.4208 55.45 93.8708 55.758 93.2108 55.978C92.5508 56.198 91.7881 56.308 90.9228 56.308C89.9401 56.308 89.0675 56.1687 88.3048 55.89C87.5568 55.5967 86.9261 55.2007 86.4128 54.702C85.9141 54.1887 85.5328 53.5947 85.2688 52.92C85.0048 52.2307 84.8728 51.4827 84.8728 50.676V50.016H86.7208V50.544C86.7208 51.8933 87.0875 52.9053 87.8208 53.58C88.5688 54.2547 89.6028 54.592 90.9228 54.592C92.0668 54.592 92.9248 54.3427 93.4968 53.844C94.0835 53.3307 94.3768 52.656 94.3768 51.82V51.688C94.3768 50.8813 94.0761 50.2653 93.4748 49.84C92.8881 49.4147 91.9275 49.1067 90.5928 48.916C89.8155 48.8133 89.1115 48.6593 88.4808 48.454C87.8648 48.234 87.3368 47.9553 86.8968 47.618C86.4568 47.266 86.1195 46.848 85.8848 46.364C85.6501 45.88 85.5328 45.308 85.5328 44.648V44.384C85.5328 43.7827 85.6575 43.2327 85.9068 42.734C86.1561 42.2353 86.5008 41.8027 86.9408 41.436C87.3955 41.0693 87.9308 40.7907 88.5468 40.6C89.1775 40.3947 89.8668 40.292 90.6148 40.292C91.4801 40.292 92.2501 40.4167 92.9248 40.666C93.6141 40.9153 94.1935 41.2527 94.6628 41.678C95.1321 42.0887 95.4841 42.58 95.7188 43.152C95.9681 43.7093 96.0928 44.296 96.0928 44.912V45.836H94.2448V45.044ZM98.6735 40.6H109.498V42.316H105.01V56H103.162V42.316H98.6735V40.6ZM120.856 52.172H114.256L113.134 56H111.154L115.818 40.6H119.294L123.958 56H121.978L120.856 52.172ZM117.424 41.392L114.762 50.456H120.35L117.688 41.392H117.424ZM135.845 56H133.997V50.852C133.997 50.4707 133.909 50.1773 133.733 49.972C133.557 49.7667 133.249 49.664 132.809 49.664H128.013V56H126.165V40.6H131.665C132.457 40.6 133.146 40.7173 133.733 40.952C134.32 41.172 134.804 41.4727 135.185 41.854C135.581 42.2353 135.874 42.6827 136.065 43.196C136.27 43.6947 136.373 44.2227 136.373 44.78V45.44C136.373 46.012 136.212 46.584 135.889 47.156C135.581 47.728 135.097 48.168 134.437 48.476V48.74C134.877 48.8133 135.222 48.9893 135.471 49.268C135.72 49.5467 135.845 49.9427 135.845 50.456V56ZM128.013 47.948H131.445C132.486 47.948 133.256 47.728 133.755 47.288C134.268 46.8333 134.525 46.1733 134.525 45.308V44.912C134.525 44.1347 134.268 43.5113 133.755 43.042C133.256 42.558 132.486 42.316 131.445 42.316H128.013V47.948ZM139.086 40.6H149.91V42.316H145.422V56H143.574V42.316H139.086V40.6ZM153.304 40.6H162.632V42.316H155.152V47.42H162.5V49.136H155.152V54.284H162.764V56H153.304V40.6ZM166.313 40.6H171.373C173.28 40.6 174.673 41.0547 175.553 41.964C176.433 42.8733 176.873 44.3253 176.873 46.32V50.28C176.873 52.2747 176.433 53.7267 175.553 54.636C174.673 55.5453 173.28 56 171.373 56H166.313V54.262H167.633V42.316H166.313V40.6ZM171.109 54.284C171.784 54.284 172.363 54.218 172.847 54.086C173.346 53.954 173.756 53.734 174.079 53.426C174.402 53.1033 174.636 52.678 174.783 52.15C174.944 51.622 175.025 50.9547 175.025 50.148V46.452C175.025 45.6453 174.944 44.978 174.783 44.45C174.636 43.922 174.402 43.504 174.079 43.196C173.756 42.8733 173.346 42.646 172.847 42.514C172.363 42.382 171.784 42.316 171.109 42.316H169.481V54.284H171.109Z" fill="white"/>
</svg>
